<?xml version="1.0" encoding="utf-8"?>
<!-- Generator: Adobe Illustrator 16.0.4, SVG Export Plug-In . SVG Version: 6.00 Build 0)  -->
<!DOCTYPE svg PUBLIC "-//W3C//DTD SVG 1.1//EN" "http://www.w3.org/Graphics/SVG/1.1/DTD/svg11.dtd">
<svg version="1.1" id="Capa_1" xmlns="http://www.w3.org/2000/svg" xmlns:xlink="http://www.w3.org/1999/xlink" x="0px" y="0px"
	 width="100px" height="100px" viewBox="0 0 100 100" enable-background="new 0 0 100 100" xml:space="preserve">
<g id="Layer_8">
	<path d="M77.333,19.834H22.667c-0.829,0-1.5,0.672-1.5,1.5v57.332c0,0.828,0.671,1.5,1.5,1.5h42.449
		c0.379,0,0.745-0.143,1.022-0.402l12.217-11.381c0.306-0.283,0.479-0.682,0.479-1.098V21.334
		C78.833,20.506,78.162,19.834,77.333,19.834z M24.167,22.834h51.667v41.572H63.667c-0.829,0-1.5,0.672-1.5,1.5v11.26h-38V22.834z
		 M65.167,76.568v-9.162h9.836L65.167,76.568z M32.325,33.354c0.046,0.111,0.086,0.209,0.116,0.279
		c0.266,0.623,0.611,1.066,1.214,1.363c0.263,0.129,0.684,0.164,0.945,0.018c0.785-0.445,0.926-0.846,1.805-0.33
		c0.683,0.4,1.583,0.041,2.225,0.58c0.464,0.391,0.586,0.541,1.215,0.613c0.64,0.072,0.633-0.928,0-1
		c-0.56-0.064-0.961-0.803-1.584-0.896c-0.566-0.086-1.094,0.055-1.606-0.395c-0.204-0.18-0.266-0.361-0.557-0.377
		c-0.661-0.031-2.166,0.98-2.599,0.316c-0.342-0.527-0.472-1.227-0.85-1.74c0.201-1.4,0.204-2.852,0.134-4.221
		c-0.033-0.643-1.033-0.645-1,0c0.06,1.162,0.074,2.387-0.054,3.582c-2.012-0.521-2.673,4.727-2.759,5.918
		c-0.034,0.477,0.55,0.605,0.854,0.354C31.13,36.332,31.894,34.908,32.325,33.354z M31.035,32.607
		c0.179-0.355,0.36-0.441,0.532-0.379c-0.238,1.234-0.675,2.404-1.428,3.4C30.303,34.58,30.572,33.531,31.035,32.607z
		 M45.806,33.416c-0.067,0.352-0.022,0.75,0.12,1.094c0.185,0.449,0.795,0.498,0.964,0c0.086-0.256,0.12-0.475,0.128-0.686
		c0.105-0.021,0.244-0.008,0.401,0.027c0.349,0.955,0.66,1.922,1.183,2.777c0.336,0.549,1.201,0.047,0.863-0.504
		c-0.278-0.455-0.505-1.088-0.733-1.777c0.752,0.27,1.575,0.563,2.374,0.572c1.156,0.016,1.619-0.295,2.158-1.055
		c0.457,0.414,0.971,0.91,1.571,0.959c1.504,0.123,3.09-1.186,4.509-0.453c0.842,0.434,1.174,1.102,2.174,1.008
		c0.256-0.023,0.516-0.189,0.732-0.289c1.546-0.711,2.533-1.475,4.338-0.98c0.623,0.17,0.887-0.795,0.266-0.965
		c-1.065-0.291-1.984-0.244-3.053,0.018c-1.643,0.406-2.203,1.682-3.953,0.346c-0.642-0.49-1.336-0.451-2.074-0.338
		c-0.584,0.09-1.207,0.428-1.769,0.607c-1.157,0.375-1.849-0.508-2.595-1.082c-0.223-0.172-0.553-0.027-0.684,0.18
		c-1.295,2.031-2.934,0.713-4.49,0.006c-0.495-1.379-1.131-2.668-2.293-3.014c-0.803-0.24-1.552,0.324-1.768,1.127
		C43.823,32.301,45.29,32.689,45.806,33.416z M46.409,31.707c0.172,0.26,0.317,0.531,0.452,0.809
		c-0.139,0.004-0.263,0.023-0.373,0.061c-0.254-0.25-0.643-0.439-0.928-0.609C44.626,31.412,45.66,30.578,46.409,31.707z
		 M70.341,44.131c-1.87-0.615-4.765-0.066-6.729-0.066c-1.73,0-3.782,0.295-5.602,0.08c-0.445-0.133-0.914-0.227-1.414-0.268
		c-0.582-0.047-0.654,0.822-0.134,0.982c0.418,0.129,0.856,0.205,1.304,0.262c1.559,0.5,2.678,1.643,3.985,2.664
		c-0.26,0.041-0.534,0.113-0.83,0.178c-1.159,0.25-2.616,0.07-3.733-0.225c-0.416-0.111-1.051-0.244-1.477-0.094
		c-0.648,0.229-1.177,0.527-1.766,0.893c-2.154,1.338-2.416-1.156-2.807-2.117c-0.236-0.582-0.762-0.973-1.4-0.973
		c-1.771,0-3.591,2.008-4.553,3.531c-1.007,0.252-5.17,0.822-5.715,0.404c-0.095-0.074-0.216-0.078-0.331-0.055
		c0.559-0.961,1.212-1.867,1.141-3.076c-0.015-0.254-0.217-0.525-0.5-0.5c-1.533,0.139-3.038,0.438-4.545,0.725
		c0.068-0.879,0.102-1.764,0.108-2.662c0.004-0.645-0.996-0.645-1,0c-0.007,0.961-0.042,1.908-0.123,2.854
		c-1.118,0.203-2.24,0.379-3.377,0.459c-0.637,0.045-0.649,1.025,0,1c1.241-0.049,2.4,0.359,3.068,1.502
		c0.208,0.355,0.826,0.316,0.914-0.119c0.136-0.674,0.23-1.344,0.307-2.014c1.365-0.26,2.73-0.527,4.114-0.684
		c-0.222,1.568-1.661,2.809-1.841,4.439c-0.047,0.433,0.581,0.666,0.854,0.354c0.205-0.236,0.776-1.375,1.168-0.875
		c0.23,0.293,0.827,0.305,1.174,0.246c0.859-0.146,1.482-0.757,2.367-0.726c0.747,0.025,1.38-0.045,2.063-0.203
		c0.217,0.184,0.566,0.213,0.744-0.107c0.47-0.848,3.714-4.943,4.582-2.807c0.553,1.361,0.512,2.26,1.962,2.846
		c0.437,0.176,1.043-0.08,1.441-0.217c1.336-0.463,2.201-1.314,3.805-0.891c1.125,0.297,4.479-0.545,5.019,0.584
		c0.679,1.42,2.952,0.906,2.003-0.607c-0.684-1.092-2.345-1.98-3.296-2.787c-0.367-0.313-0.735-0.598-1.112-0.854
		c1.172-0.039,2.346-0.145,3.432-0.145c1.646,0,3.293,0,4.939,0c1.993,0,1.553,0.816,0.987,2.123
		c-0.253,0.584,0.608,1.094,0.862,0.504C70.948,46.426,72.246,44.758,70.341,44.131z M34.037,48.207
		c-0.172-0.156-0.36-0.291-0.555-0.412c0.21-0.035,0.42-0.07,0.63-0.109C34.09,47.859,34.063,48.035,34.037,48.207z M60.032,62.939
		c-2.439-0.15-3.439-1.701-5.537,0.18c-0.817,0.734-1.183,1.326-2.347,1.775c0.097-0.037-1.952,0.207-2.214,0.246
		c-0.303,0.043-0.667,0.219-0.881,0.444c-1.227,1.304-2.796,1.506-4.372,0.771c-1.354-0.631-3.11-1.166-4.858-1.287
		c0.221-1.494,0.364-3.572-0.596-3.736c-1-0.17-1.741,0.393-2.56,0.928c-1.688,1.104-1.208-1.264-1.907-1.861
		c-1.591-1.364-3.585,1.39-4.793,2.172c-0.539,0.349-0.038,1.216,0.505,0.863c0.675-0.438,3.556-3.537,3.764-1.44
		c0.063,0.633,0.103,1.657,0.955,1.733c1.035,0.092,3.63-1.908,3.682-0.584c0.025,0.631-0.03,1.271-0.09,1.904
		c-1.652,0.057-3.224,0.557-4.354,1.789c-0.227,0.246-0.176,0.777,0.221,0.836c1.47,0.213,4.508,0.984,4.937-1.246
		c0.017-0.088,0.042-0.217,0.069-0.361c0.875-0.006,1.729,0.072,2.438,0.195c0.947,0.162,1.712,0.787,2.565,1.184
		c0.827,0.388,1.895,0.371,2.782,0.388c0.476,0.008,1.233-0.248,1.543-0.64c1.144-1.438,2.855-0.784,4.192-1.631
		c0.775-0.487,1.383-1.082,2.027-1.733c1.459-1.476,3.268,0.016,4.83,0.112C60.677,63.979,60.673,62.979,60.032,62.939z
		 M35.967,66.898c0.748-0.443,1.665-0.683,2.619-0.779C38.154,67.139,36.989,67.072,35.967,66.898z"/>
</g>
</svg>
