<?xml version="1.0" encoding="utf-8"?>
<!-- Generator: Adobe Illustrator 16.0.4, SVG Export Plug-In . SVG Version: 6.00 Build 0)  -->
<!DOCTYPE svg PUBLIC "-//W3C//DTD SVG 1.1//EN" "http://www.w3.org/Graphics/SVG/1.1/DTD/svg11.dtd">
<svg version="1.1" id="Capa_1" xmlns="http://www.w3.org/2000/svg" xmlns:xlink="http://www.w3.org/1999/xlink" x="0px" y="0px"
	 width="100px" height="100px" viewBox="0 0 100 100" enable-background="new 0 0 100 100" xml:space="preserve">
<g id="Layer_8">
	<path d="M66.218,41.961c0.525,0.76,0.334,1.8-0.425,2.325L50.646,54.748c-0.285,0.197-0.617,0.297-0.95,0.297
		c-0.266,0-0.532-0.064-0.776-0.191c-0.55-0.289-0.895-0.858-0.895-1.479V30.979c0-0.923,0.748-1.671,1.671-1.671
		c0.923,0,1.671,0.748,1.671,1.671v19.208l12.524-8.651C64.652,41.013,65.693,41.203,66.218,41.961z M80.264,41.73
		c0.727,2.646,1.123,5.426,1.123,8.301c0,11.686-6.428,21.894-15.928,27.291l6.812,6.812c0.855,0.856,0.855,2.243,0,3.098
		c-0.854,0.856-2.242,0.856-3.098,0.002l-7.748-7.748c-0.056-0.057-0.098-0.12-0.146-0.18c-3.5,1.352-7.297,2.101-11.267,2.101
		c-3.521,0-6.904-0.593-10.066-1.667l-7.493,7.494c-0.855,0.854-2.242,0.854-3.098-0.002c-0.855-0.854-0.855-2.24,0-3.098
		l6.248-6.248c-10.068-5.229-16.967-15.748-16.967-27.854c0-2.909,0.407-5.723,1.15-8.397c-5.802-6.335-5.655-16.168,0.48-22.304
		c6.306-6.305,16.529-6.305,22.834,0l-0.132,0.133c1.862-0.43,3.788-0.688,5.758-0.77v-1.048c0-0.217,0.044-0.423,0.122-0.611
		h-0.426c-0.759,0-1.375-0.615-1.375-1.375c0-0.76,0.616-1.375,1.375-1.375h3.833c0.759,0,1.375,0.615,1.375,1.375
		c0,0.76-0.616,1.375-1.375,1.375h-0.427c0.078,0.188,0.122,0.395,0.122,0.611v1.073c1.794,0.113,3.549,0.378,5.251,0.778
		l-0.166-0.167c6.306-6.305,16.529-6.305,22.834,0C86.035,25.496,86.154,35.397,80.264,41.73z M76.273,50.031
		c0-14.481-11.781-26.264-26.262-26.264c-14.481,0-26.263,11.782-26.263,26.264c0,14.479,11.782,26.263,26.263,26.263
		C64.492,76.294,76.273,64.512,76.273,50.031z"/>
</g>
</svg>
