<?xml version="1.0" encoding="utf-8"?>
<!-- Generator: Adobe Illustrator 16.0.0, SVG Export Plug-In . SVG Version: 6.00 Build 0)  -->
<!DOCTYPE svg PUBLIC "-//W3C//DTD SVG 1.1//EN" "http://www.w3.org/Graphics/SVG/1.1/DTD/svg11.dtd">
<svg version="1.1" id="Layer_9" xmlns="http://www.w3.org/2000/svg" xmlns:xlink="http://www.w3.org/1999/xlink" x="0px" y="0px"
	 width="100px" height="100px" viewBox="0 0 100 100" enable-background="new 0 0 100 100" xml:space="preserve">
<path d="M89.408,19.548H10.591c-2.119,0-3.838,1.718-3.838,3.838v53.227c0,2.12,1.719,3.839,3.838,3.839h78.817
	c2.12,0,3.839-1.719,3.839-3.839V23.386C93.247,21.266,91.528,19.548,89.408,19.548z M38.101,71.304H12.19v-2.495h25.91V71.304z
	 M42.898,66.506H12.19v-5.95h30.708V66.506z M83.012,70.344c0,0.848-0.688,1.536-1.536,1.536h-29.94
	c-0.849,0-1.535-0.688-1.535-1.536V54.99c0-0.848,0.687-1.535,1.535-1.535h29.94c0.848,0,1.536,0.687,1.536,1.535V70.344z
	 M85.57,45.394c0,0.848-0.688,1.535-1.536,1.535H70.728c-0.849,0-1.535-0.688-1.535-1.535V30.295c0-0.848,0.687-1.535,1.535-1.535
	h13.307c0.848,0,1.536,0.688,1.536,1.535V45.394z M72.675,55.246c-2.175,0-4.125,0.941-5.482,2.432
	c-1.286-1.298-3.069-2.105-5.037-2.105c-3.912,0-7.095,3.183-7.095,7.095c0,3.912,3.183,7.095,7.095,7.095
	c1.969,0,3.751-0.807,5.037-2.106c1.357,1.49,3.308,2.432,5.482,2.432c4.099,0,7.421-3.323,7.421-7.421
	C80.096,58.569,76.773,55.246,72.675,55.246z M66.267,66.397c-1.019,1.121-2.481,1.83-4.111,1.83c-3.065,0-5.559-2.494-5.559-5.56
	s2.493-5.56,5.559-5.56c1.63,0,3.093,0.709,4.111,1.831c-0.641,1.096-1.013,2.367-1.013,3.729
	C65.254,64.029,65.626,65.3,66.267,66.397z"/>
</svg>
