<?xml version="1.0" encoding="utf-8"?>
<!-- Generator: Adobe Illustrator 16.0.4, SVG Export Plug-In . SVG Version: 6.00 Build 0)  -->
<!DOCTYPE svg PUBLIC "-//W3C//DTD SVG 1.1//EN" "http://www.w3.org/Graphics/SVG/1.1/DTD/svg11.dtd">
<svg version="1.1" id="Capa_1" xmlns="http://www.w3.org/2000/svg" xmlns:xlink="http://www.w3.org/1999/xlink" x="0px" y="0px"
	 width="100px" height="100px" viewBox="0 0 100 100" enable-background="new 0 0 100 100" xml:space="preserve">
<g id="Layer_8">
	<path d="M89.422,78.145h-4.727v-25.78H86.2c0.711,0,1.288-0.577,1.288-1.289V26.197c0-0.712-0.577-1.289-1.288-1.289H75.027
		c-0.711,0-1.287,0.577-1.287,1.289v3.394H63.212v-8.162c0-0.712-0.577-1.29-1.289-1.29h-2.063
		c-1.155-4.685-5.375-8.164-10.417-8.164c-5.042,0-9.263,3.479-10.419,8.164h-1.161c-0.712,0-1.29,0.578-1.29,1.29v8.162h-9.451
		v-3.394c0-0.712-0.577-1.289-1.289-1.289H14.661c-0.712,0-1.289,0.577-1.289,1.289v24.877c0,0.712,0.577,1.289,1.289,1.289h1.289
		v25.779h-5.372c-0.711,0-1.289,0.577-1.289,1.289v7.305c0,0.712,0.578,1.289,1.289,1.289h78.844c0.711,0,1.289-0.577,1.289-1.289
		v-7.305C90.711,78.721,90.133,78.145,89.422,78.145z M28.385,72.587c0,0.556-0.448,1.005-1.003,1.005h-4.521
		c-0.554,0-1.004-0.449-1.004-1.005V57.021c0-0.556,0.45-1.006,1.004-1.006h4.521c0.555,0,1.003,0.45,1.003,1.006V72.587z
		 M28.385,52.18c0,0.553-0.448,1.002-1.003,1.002h-4.521c-0.554,0-1.004-0.449-1.004-1.002V36.611c0-0.556,0.45-1.005,1.004-1.005
		h4.521c0.555,0,1.003,0.449,1.003,1.005V52.18z M38.68,72.587c0,0.556-0.45,1.005-1.004,1.005h-4.521
		c-0.555,0-1.003-0.449-1.003-1.005V57.021c0-0.556,0.448-1.006,1.003-1.006h4.521c0.554,0,1.004,0.45,1.004,1.006V72.587z
		 M38.68,52.18c0,0.553-0.45,1.002-1.004,1.002h-4.521c-0.555,0-1.003-0.449-1.003-1.002V36.611c0-0.556,0.448-1.005,1.003-1.005
		h4.521c0.554,0,1.004,0.449,1.004,1.005V52.18z M42.859,24.815h1.146c-0.016-0.244-0.023-0.65-0.023-1.22
		c0-0.554,0.008-0.943,0.023-1.171h-1.146v-1.306h1.246c0.471-4.53,2.369-6.795,5.696-6.795c1.594,0,2.872,0.492,3.836,1.476
		c0.963,0.984,1.559,2.382,1.786,4.197h-2.364c-0.115-1.213-0.459-2.158-1.031-2.843c-0.573-0.684-1.316-1.023-2.227-1.023
		c-1.863,0-2.97,1.663-3.319,4.988h4.146l-0.366,1.306h-3.876c-0.016,0.228-0.024,0.617-0.024,1.171c0,0.569,0.009,0.976,0.024,1.22
		h4.165l-0.365,1.305h-3.703c0.35,3.262,1.456,4.893,3.319,4.893c1.902,0,2.987-1.4,3.257-4.197h2.365
		c-0.363,4.002-2.24,6.002-5.622,6.002c-3.304,0-5.202-2.232-5.696-6.697H42.86L42.859,24.815L42.859,24.815z M58.702,72.343
		c0,0.714-0.578,1.289-1.29,1.289H42.803c-0.711,0-1.289-0.575-1.289-1.289V36.896c0-0.712,0.578-1.289,1.289-1.289h14.609
		c0.712,0,1.29,0.577,1.29,1.289V72.343z M68.667,72.587c0,0.556-0.45,1.005-1.005,1.005h-4.521c-0.554,0-1.002-0.449-1.002-1.005
		V57.021c0-0.556,0.448-1.006,1.002-1.006h4.521c0.555,0,1.005,0.45,1.005,1.006V72.587z M68.667,52.18
		c0,0.553-0.45,1.002-1.005,1.002h-4.521c-0.554,0-1.002-0.449-1.002-1.002V36.611c0-0.556,0.448-1.005,1.002-1.005h4.521
		c0.555,0,1.005,0.449,1.005,1.005V52.18z M78.961,72.587c0,0.556-0.449,1.005-1.004,1.005h-4.52c-0.556,0-1.006-0.449-1.006-1.005
		V57.021c0-0.556,0.45-1.006,1.006-1.006h4.52c0.555,0,1.004,0.45,1.004,1.006V72.587z M78.961,52.18
		c0,0.553-0.449,1.002-1.004,1.002h-4.52c-0.556,0-1.006-0.449-1.006-1.002V36.611c0-0.556,0.45-1.005,1.006-1.005h4.52
		c0.555,0,1.004,0.449,1.004,1.005V52.18z"/>
</g>
</svg>
