<?xml version="1.0" encoding="utf-8"?>
<!-- Generator: Adobe Illustrator 16.0.0, SVG Export Plug-In . SVG Version: 6.00 Build 0)  -->
<!DOCTYPE svg PUBLIC "-//W3C//DTD SVG 1.1//EN" "http://www.w3.org/Graphics/SVG/1.1/DTD/svg11.dtd">
<svg version="1.1" id="Layer_9" xmlns="http://www.w3.org/2000/svg" xmlns:xlink="http://www.w3.org/1999/xlink" x="0px" y="0px"
	 width="100px" height="100px" viewBox="0 0 100 100" enable-background="new 0 0 100 100" xml:space="preserve">
<g>
	<rect x="51.313" y="22.84" width="2.27" height="54.768"/>
	<rect x="62.723" y="22.391" width="5.339" height="55.217"/>
	<polygon points="57.388,22.391 57.36,22.391 57.36,22.84 54.72,22.84 54.72,77.608 57.388,77.608 	"/>
	<rect x="70.614" y="22.391" width="2.272" height="55.217"/>
	<rect x="77.43" y="22.391" width="4.541" height="55.217"/>
	<rect x="18.194" y="22.391" width="2.27" height="55.217"/>
	<rect x="21.601" y="22.391" width="2.668" height="55.217"/>
	<path d="M11.333,18v64.667h77.334V18H11.333z M86.667,80.667H13.333V20h73.334V80.667z"/>
	<rect x="37.495" y="22.391" width="2.272" height="55.217"/>
	<polygon points="48.852,22.84 48.845,22.84 48.845,22.391 44.311,22.391 44.311,77.608 48.852,77.608 	"/>
	<rect x="29.604" y="22.391" width="5.339" height="55.217"/>
</g>
</svg>
