<?xml version="1.0" encoding="utf-8"?>
<!-- Generator: Adobe Illustrator 16.0.0, SVG Export Plug-In . SVG Version: 6.00 Build 0)  -->
<!DOCTYPE svg PUBLIC "-//W3C//DTD SVG 1.1//EN" "http://www.w3.org/Graphics/SVG/1.1/DTD/svg11.dtd">
<svg version="1.1" id="Layer_9" xmlns="http://www.w3.org/2000/svg" xmlns:xlink="http://www.w3.org/1999/xlink" x="0px" y="0px"
	 width="100px" height="100px" viewBox="0 0 100 100" enable-background="new 0 0 100 100" xml:space="preserve">
<path d="M81.1,39.434l-0.109,0.05v-0.316l-0.072,0.028l0.047-0.113l-18.85-7.678c-0.227-0.045-0.451-0.107-0.668-0.194l-4.045-1.596
	v2.239l20.727,8.443L51.592,50.763v-2.207h-5.018c-2.193,0-3.977-1.783-3.977-3.976V30.5L19.67,39.208l-0.1-0.04v0.019l-8.232,12.11
	l8.232-0.726v27.123l29.613,11.681v0.046h2.193v-0.046L80.99,77.694V59.018l7.672-3.298L81.1,39.434z M49.184,87.016l-27.42-10.814
	v-33.81l27.42,10.816V87.016z M78.795,76.201L51.377,87.016V53.208l6.025,15.948l21.393-9.195V76.201z M35.986,28.481
	c-0.186-0.247-0.186-0.585,0.004-0.831l12.918-16.804c0.131-0.168,0.33-0.268,0.545-0.268c0.211,0,0.412,0.1,0.543,0.268
	L62.914,27.65c0.096,0.123,0.143,0.27,0.143,0.417c0,0.146-0.045,0.29-0.139,0.414c-0.184,0.247-0.512,0.337-0.797,0.223
	l-8.555-3.377v19.802c0,0.379-0.307,0.686-0.686,0.686h-6.855c-0.379,0-0.686-0.306-0.686-0.686V25.327l-8.553,3.377
	C36.5,28.819,36.172,28.728,35.986,28.481z"/>
</svg>
