<?xml version="1.0" encoding="utf-8"?>
<!-- Generator: Adobe Illustrator 16.0.0, SVG Export Plug-In . SVG Version: 6.00 Build 0)  -->
<!DOCTYPE svg PUBLIC "-//W3C//DTD SVG 1.1//EN" "http://www.w3.org/Graphics/SVG/1.1/DTD/svg11.dtd">
<svg version="1.1" id="Layer_9" xmlns="http://www.w3.org/2000/svg" xmlns:xlink="http://www.w3.org/1999/xlink" x="0px" y="0px"
	 width="100px" height="100px" viewBox="0 0 100 100" enable-background="new 0 0 100 100" xml:space="preserve">
<path d="M88.662,47.459l-7.564-16.287l-0.109,0.05v-0.316l-0.07,0.028l0.045-0.113L51.547,18.839L19.67,30.947l-0.102-0.04v0.019
	l-8.23,12.11l8.23-0.726v27.123l29.613,11.681v0.046h2.193v-0.046l29.613-11.681V50.757L88.662,47.459z M51.592,42.502L51.59,21.225
	l26.539,10.812L51.592,42.502z M49.182,78.755L21.762,67.94v-33.81l27.42,10.816V78.755z M78.795,67.94l-27.42,10.814V44.947
	l6.027,15.948L78.795,51.7V67.94z"/>
</svg>
