<?xml version="1.0" encoding="utf-8"?>
<!-- Generator: Adobe Illustrator 16.0.4, SVG Export Plug-In . SVG Version: 6.00 Build 0)  -->
<!DOCTYPE svg PUBLIC "-//W3C//DTD SVG 1.1//EN" "http://www.w3.org/Graphics/SVG/1.1/DTD/svg11.dtd">
<svg version="1.1" id="Capa_1" xmlns="http://www.w3.org/2000/svg" xmlns:xlink="http://www.w3.org/1999/xlink" x="0px" y="0px"
	 width="100px" height="100px" viewBox="0 0 100 100" enable-background="new 0 0 100 100" xml:space="preserve">
<g id="Layer_8">
	<path d="M57.25,57.326v-7.75h24.266c3.244,0,6.129-1.541,7.982-3.922v35.78h-79V46.08c1.857,2.137,4.587,3.496,7.633,3.496H45.25
		v7.75c0,2.762,2.239,5,5,5h2C55.012,62.326,57.25,60.088,57.25,57.326z M45.25,37.826v9.75H18.132
		c-3.514,0-6.504-2.246-7.633-5.375V26.434H37v-6.367c0-0.828,0.672-1.5,1.5-1.5h23.166c0.828,0,1.5,0.672,1.5,1.5v6.367h26.333
		V40.91c-0.688,3.785-4.002,6.666-7.981,6.666H57.25v-9.75c0-2.762-2.238-5-5-5h-2C47.489,32.826,45.25,35.064,45.25,37.826z
		 M40,26.434h20.166v-4.867H40V26.434z M45.25,47.576v2h12v-2H45.25z"/>
	<path d="M54.762,45.3v-7.744c0-1.81-1.467-3.276-3.275-3.276h-1.475c-1.809,0-3.276,1.467-3.276,3.276V45.3H54.762z"/>
	<path d="M46.734,51.342v4.943c0,1.81,1.467,3.275,3.276,3.275h1.475c1.81,0,3.277-1.467,3.277-3.275v-4.943H46.734z M51.863,57.581
		h-2.245c-0.588,0-1.064-0.478-1.064-1.063c0-0.588,0.477-1.064,1.064-1.064h2.245c0.589,0,1.064,0.477,1.064,1.064
		C52.928,57.104,52.452,57.581,51.863,57.581z"/>
</g>
</svg>
