<?xml version="1.0" encoding="utf-8"?>
<!-- Generator: Adobe Illustrator 16.0.4, SVG Export Plug-In . SVG Version: 6.00 Build 0)  -->
<!DOCTYPE svg PUBLIC "-//W3C//DTD SVG 1.1//EN" "http://www.w3.org/Graphics/SVG/1.1/DTD/svg11.dtd">
<svg version="1.1" id="Capa_1" xmlns="http://www.w3.org/2000/svg" xmlns:xlink="http://www.w3.org/1999/xlink" x="0px" y="0px"
	 width="100px" height="100px" viewBox="0 0 100 100" enable-background="new 0 0 100 100" xml:space="preserve">
<g id="Layer_8">
	<path d="M44.067,22.975c0-0.92,0.746-1.666,1.667-1.666h10.334c0.92,0,1.666,0.746,1.666,1.666c0,0.921-0.746,1.667-1.666,1.667
		H45.733C44.813,24.642,44.067,23.896,44.067,22.975z M45.733,52.975h10.333c0.92,0,1.668-0.746,1.668-1.666
		c0-0.92-0.746-1.667-1.668-1.667H45.733c-0.92,0-1.667,0.746-1.667,1.667C44.067,52.229,44.813,52.975,45.733,52.975z
		 M72.199,77.977v4.562c0,1.104-0.896,2-2,2H29.801c-1.104,0-2-0.896-2-2v-4.562c0-0.932-2.162-1.707-1.301-1.93V17.461
		c0-1.104,0.896-2,2-2h43c1.104,0,2,0.896,2,2v58.586C74.361,76.27,72.199,77.045,72.199,77.977z M30.4,40.309c0,1.104,0.896,2,2,2
		h36c1.104,0,2-0.896,2-2v-19.5c0-1.104-0.896-2-2-2h-36c-1.104,0-2,0.896-2,2V40.309z M30.4,68.01c0,1.104,0.896,2,2,2h36
		c1.104,0,2-0.896,2-2v-19.5c0-1.104-0.896-2-2-2h-36c-1.104,0-2,0.896-2,2V68.01z"/>
</g>
</svg>
