<?xml version="1.0" encoding="utf-8"?>
<!-- Generator: Adobe Illustrator 16.0.4, SVG Export Plug-In . SVG Version: 6.00 Build 0)  -->
<!DOCTYPE svg PUBLIC "-//W3C//DTD SVG 1.1//EN" "http://www.w3.org/Graphics/SVG/1.1/DTD/svg11.dtd">
<svg version="1.1" id="Capa_1" xmlns="http://www.w3.org/2000/svg" xmlns:xlink="http://www.w3.org/1999/xlink" x="0px" y="0px"
	 width="100px" height="100px" viewBox="0 0 100 100" enable-background="new 0 0 100 100" xml:space="preserve">
<g id="Layer_8">
	<path d="M57.734,22.975c0,0.921-0.746,1.667-1.668,1.667H45.733c-0.92,0-1.667-0.746-1.667-1.667c0-0.92,0.746-1.666,1.667-1.666
		h10.333C56.988,21.309,57.734,22.055,57.734,22.975z M56.066,51.042H45.733c-0.92,0-1.667,0.746-1.667,1.666
		c0,0.921,0.746,1.667,1.667,1.667h10.333c0.92,0,1.668-0.746,1.668-1.667C57.734,51.788,56.988,51.042,56.066,51.042z
		 M72.199,77.977v4.562c0,1.104-0.896,2-2,2H29.801c-1.104,0-2-0.896-2-2v-4.562c0-0.932-2.162-1.707-1.301-1.93V17.461
		c0-1.104,0.896-2,2-2h43c1.104,0,2,0.896,2,2v58.586C74.361,76.27,72.199,77.045,72.199,77.977z M70.4,50.609c0-1.104-0.896-2-2-2
		h-36c-1.104,0-2,0.896-2,2v19.5c0,1.104,0.896,2,2,2h36c1.104,0,2-0.896,2-2V50.609z M70.4,20.809c0-1.104-0.896-2-2-2h-36
		c-1.104,0-2,0.896-2,2v19.5c0,1.104,0.896,2,2,2h2.153l-3.347-5.685l14.546-8.564l6.012,10.211l3.069-5.213l9.735,5.732
		l-2.072,3.519H68.4c1.104,0,2-0.896,2-2V20.809z"/>
</g>
</svg>
