<?xml version="1.0" encoding="utf-8"?>
<!-- Generator: Adobe Illustrator 16.0.4, SVG Export Plug-In . SVG Version: 6.00 Build 0)  -->
<!DOCTYPE svg PUBLIC "-//W3C//DTD SVG 1.1//EN" "http://www.w3.org/Graphics/SVG/1.1/DTD/svg11.dtd">
<svg version="1.1" id="Capa_1" xmlns="http://www.w3.org/2000/svg" xmlns:xlink="http://www.w3.org/1999/xlink" x="0px" y="0px"
	 width="100px" height="100px" viewBox="0 0 100 100" enable-background="new 0 0 100 100" xml:space="preserve">
<g id="Layer_8">
	<path d="M40.062,74.803c-0.727-1.336-1.09-2.504-1.09-3.504c0-0.609,0.254-1.188,0.762-1.734c0.508-0.545,1.145-0.819,1.91-0.819
		c1.313,0,2.289,0.758,2.93,2.272c0.625,1.392,1.469,2.474,2.531,3.246c1.062,0.773,2.25,1.16,3.563,1.16
		c1.203,0,2.258-0.312,3.164-0.938s1.605-1.484,2.098-2.578c0.493-1.094,0.738-2.336,0.738-3.727c0-1.5-0.266-2.781-0.797-3.845
		s-1.242-1.854-2.133-2.379s-1.883-0.785-2.977-0.785c-1.345,0-2.306,0.164-2.884,0.492s-1.41,0.901-2.496,1.724
		c-1.086,0.82-1.98,1.229-2.684,1.229c-0.766,0-1.445-0.277-2.039-0.832c-0.594-0.556-0.891-1.185-0.891-1.888
		c0-0.078,0.086-0.608,0.258-1.594l1.969-11.227c0.219-1.344,0.625-2.32,1.219-2.93c0.594-0.61,1.563-0.914,2.906-0.914h12.375
		c2.438,0,3.655,0.93,3.655,2.789c0,0.813-0.297,1.469-0.891,1.969s-1.469,0.75-2.625,0.75H47.503l-1.336,7.594
		c2.219-1.188,4.266-1.781,6.142-1.781c1.5,0,2.901,0.281,4.207,0.844c1.305,0.563,2.448,1.341,3.434,2.332
		c0.984,0.992,1.758,2.168,2.32,3.527c0.562,1.359,0.844,2.82,0.844,4.383c0,2.267-0.508,4.328-1.523,6.188
		c-1.015,1.86-2.48,3.336-4.395,4.43c-1.916,1.095-4.122,1.642-6.622,1.642c-2.797,0-5.066-0.517-6.809-1.547
		C42.021,77.322,40.788,76.139,40.062,74.803z M85.305,21.063v17.864c0,0.053-0.021,0.101-0.025,0.152v46.419
		c0,2.896-2.357,5.256-5.256,5.256h-60.07c-2.898,0-5.256-2.357-5.256-5.256V30.433c0-0.082,0.02-0.158,0.023-0.238v-9.131
		c0-1.113,1.436-2.017,3.209-2.017h5.729v-3.762c0-3.332,2.709-6.04,6.039-6.04c3.33,0,6.039,2.708,6.039,6.04v3.762h9.459v-3.762
		c0-3.332,2.709-6.04,6.04-6.04c3.33,0,6.039,2.708,6.039,6.04v3.762h8.619v-3.762c0-3.332,2.709-6.04,6.039-6.04
		s6.039,2.708,6.039,6.04v3.762h4.125C83.866,19.047,85.305,19.95,85.305,21.063z M68.896,19.047h6.069v-3.762
		c0-1.674-1.36-3.036-3.034-3.036c-1.675,0-3.035,1.362-3.035,3.036V19.047z M48.198,19.047h6.069v-3.762
		c0-1.674-1.36-3.036-3.035-3.036c-1.673,0-3.034,1.362-3.034,3.036V19.047z M26.659,19.047h6.072v-3.762
		c0-1.674-1.361-3.036-3.035-3.036c-1.674,0-3.037,1.362-3.037,3.036V19.047z M80.773,40.946H19.2v44.553
		c0,0.414,0.338,0.75,0.752,0.75h60.069c0.414,0,0.752-0.336,0.752-0.75V40.946z"/>
</g>
</svg>
