<?xml version="1.0" encoding="utf-8"?>
<!-- Generator: Adobe Illustrator 16.0.4, SVG Export Plug-In . SVG Version: 6.00 Build 0)  -->
<!DOCTYPE svg PUBLIC "-//W3C//DTD SVG 1.1//EN" "http://www.w3.org/Graphics/SVG/1.1/DTD/svg11.dtd">
<svg version="1.1" id="Capa_1" xmlns="http://www.w3.org/2000/svg" xmlns:xlink="http://www.w3.org/1999/xlink" x="0px" y="0px"
	 width="100px" height="100px" viewBox="0 0 100 100" enable-background="new 0 0 100 100" xml:space="preserve">
<g id="Layer_8">
	<path d="M38.738,74.354C38.246,73.275,38,72.386,38,71.684c0-0.906,0.293-1.638,0.879-2.191c0.586-0.555,1.316-0.832,2.191-0.832
		c0.438,0,0.859,0.129,1.266,0.387c0.407,0.258,0.672,0.566,0.797,0.926c0.813,2.172,1.684,3.785,2.613,4.84
		c0.929,1.056,2.238,1.582,3.926,1.582c0.969,0,1.902-0.237,2.801-0.715c0.899-0.477,1.641-1.184,2.228-2.121
		c0.586-0.937,0.879-2.022,0.879-3.258c0-1.828-0.5-3.262-1.5-4.301s-2.392-1.559-4.172-1.559c-0.313,0-0.797,0.031-1.453,0.094
		c-0.656,0.062-1.078,0.094-1.266,0.094c-0.859,0-1.523-0.215-1.992-0.645c-0.469-0.43-0.703-1.027-0.703-1.793
		c0-0.75,0.281-1.355,0.844-1.816s1.398-0.691,2.508-0.691h0.961c1.438,0,2.676-0.422,3.715-1.266s1.559-2.055,1.559-3.633
		c0-1.203-0.414-2.238-1.242-3.105s-1.945-1.301-3.352-1.301c-0.953,0-1.738,0.133-2.355,0.398
		c-0.617,0.265-1.105,0.617-1.465,1.055s-0.699,1-1.02,1.688c-0.321,0.688-0.613,1.336-0.879,1.945
		c-0.156,0.328-0.438,0.586-0.844,0.773c-0.406,0.187-0.875,0.281-1.406,0.281c-0.625,0-1.199-0.254-1.723-0.763
		c-0.524-0.508-0.785-1.184-0.785-2.026c0-0.813,0.246-1.668,0.738-2.566c0.492-0.898,1.211-1.754,2.156-2.566
		c0.945-0.812,2.121-1.465,3.527-1.957c1.406-0.492,2.977-0.738,4.711-0.738c1.516,0,2.898,0.207,4.148,0.621
		s2.336,1.012,3.258,1.793c0.922,0.781,1.617,1.688,2.086,2.719c0.469,1.03,0.703,2.141,0.703,3.328c0,1.562-0.34,2.901-1.02,4.02
		s-1.652,2.207-2.918,3.271c1.219,0.656,2.246,1.406,3.082,2.25s1.465,1.777,1.887,2.801S62,68.831,62,70.02
		c0,1.422-0.285,2.797-0.855,4.125c-0.569,1.328-1.41,2.512-2.52,3.551s-2.426,1.852-3.949,2.438s-3.207,0.879-5.051,0.879
		c-1.875,0-3.555-0.336-5.039-1.008s-2.707-1.512-3.668-2.52S39.23,75.434,38.738,74.354z M85.305,21.063v17.864
		c0,0.053-0.02,0.101-0.025,0.152v46.419c0,2.896-2.357,5.256-5.256,5.256H19.952c-2.898,0-5.256-2.357-5.256-5.256V30.433
		c0-0.082,0.02-0.158,0.023-0.238v-9.131c0-1.113,1.437-2.017,3.209-2.017h5.729v-3.762c0-3.332,2.709-6.04,6.039-6.04
		c3.33,0,6.039,2.708,6.039,6.04v3.762h9.459v-3.762c0-3.332,2.709-6.04,6.039-6.04c3.33,0,6.039,2.708,6.039,6.04v3.762h8.619
		v-3.762c0-3.332,2.711-6.04,6.039-6.04c3.33,0,6.041,2.708,6.041,6.04v3.762h4.125C83.867,19.047,85.305,19.95,85.305,21.063z
		 M68.896,19.047h6.07v-3.762c0-1.674-1.361-3.036-3.035-3.036c-1.675,0-3.035,1.362-3.035,3.036V19.047z M48.198,19.047h6.071
		v-3.762c0-1.674-1.361-3.036-3.037-3.036c-1.673,0-3.034,1.362-3.034,3.036V19.047z M26.66,19.047h6.071v-3.762
		c0-1.674-1.361-3.036-3.035-3.036c-1.674,0-3.036,1.362-3.036,3.036V19.047z M80.773,40.946H19.201v44.553
		c0,0.414,0.337,0.75,0.751,0.75h60.071c0.414,0,0.75-0.336,0.75-0.75V40.946z"/>
</g>
</svg>
