<?xml version="1.0" encoding="utf-8"?>
<!-- Generator: Adobe Illustrator 16.0.4, SVG Export Plug-In . SVG Version: 6.00 Build 0)  -->
<!DOCTYPE svg PUBLIC "-//W3C//DTD SVG 1.1//EN" "http://www.w3.org/Graphics/SVG/1.1/DTD/svg11.dtd">
<svg version="1.1" id="Capa_1" xmlns="http://www.w3.org/2000/svg" xmlns:xlink="http://www.w3.org/1999/xlink" x="0px" y="0px"
	 width="100px" height="100px" viewBox="0 0 100 100" enable-background="new 0 0 100 100" xml:space="preserve">
<g id="Layer_8">
	<path d="M82.096,19.047h-4.125v-3.762c0-3.332-2.709-6.04-6.039-6.04s-6.039,2.708-6.039,6.04v3.762h-8.619v-3.762
		c0-3.332-2.709-6.04-6.039-6.04c-3.33,0-6.04,2.708-6.04,6.04v3.762h-9.459v-3.762c0-3.332-2.709-6.04-6.039-6.04
		c-3.33,0-6.039,2.708-6.039,6.04v3.762h-5.729c-1.772,0-3.208,0.903-3.208,2.017v9.131c-0.004,0.08-0.024,0.156-0.024,0.238v55.066
		c0,2.897,2.357,5.256,5.256,5.256h60.07c2.898,0,5.256-2.358,5.256-5.256V39.08c0.007-0.052,0.025-0.1,0.025-0.152V21.063
		C85.305,19.95,83.867,19.047,82.096,19.047z M68.896,15.285c0-1.674,1.36-3.036,3.035-3.036c1.674,0,3.035,1.362,3.035,3.036v3.762
		h-6.07V15.285z M48.198,15.285c0-1.674,1.361-3.036,3.036-3.036c1.674,0,3.035,1.362,3.035,3.036v3.762h-6.071V15.285z
		 M26.66,15.285c0-1.674,1.362-3.036,3.036-3.036c1.674,0,3.036,1.362,3.036,3.036v3.762H26.66V15.285z M80.773,85.499
		c0,0.414-0.336,0.75-0.75,0.75H19.952c-0.414,0-0.751-0.336-0.751-0.75V40.946h61.572V85.499z M38.764,59.693
		c-0.508-0.522-0.762-1.129-0.762-1.815c0-0.797,0.25-1.383,0.75-1.758s1.383-0.859,2.648-1.453
		c1.891-0.892,3.402-1.828,4.535-2.813c1.133-0.984,2.137-2.085,3.012-3.305c0.875-1.219,1.445-1.969,1.711-2.25
		c0.266-0.281,0.766-0.422,1.5-0.422c0.828,0,1.492,0.32,1.992,0.961c0.5,0.641,0.75,1.523,0.75,2.648v26.836
		c0,3.141-1.07,4.711-3.211,4.711c-0.953,0-1.719-0.32-2.297-0.961s-0.867-1.586-0.867-2.836V55.909
		c-3.969,3.047-6.641,4.569-8.016,4.569C39.854,60.479,39.271,60.218,38.764,59.693z"/>
</g>
</svg>
