<?xml version="1.0" encoding="utf-8"?>
<!-- Generator: Adobe Illustrator 16.0.4, SVG Export Plug-In . SVG Version: 6.00 Build 0)  -->
<!DOCTYPE svg PUBLIC "-//W3C//DTD SVG 1.1//EN" "http://www.w3.org/Graphics/SVG/1.1/DTD/svg11.dtd">
<svg version="1.1" id="Capa_1" xmlns="http://www.w3.org/2000/svg" xmlns:xlink="http://www.w3.org/1999/xlink" x="0px" y="0px"
	 width="100px" height="100px" viewBox="0 0 100 100" enable-background="new 0 0 100 100" xml:space="preserve">
<g id="Layer_8">
	<path d="M30.288,74.378c-0.492-1.078-0.738-1.969-0.738-2.672c0-0.906,0.293-1.638,0.879-2.19c0.586-0.555,1.316-0.832,2.191-0.832
		c0.438,0,0.859,0.129,1.266,0.387c0.407,0.258,0.672,0.565,0.797,0.926c0.813,2.172,1.684,3.785,2.613,4.84
		c0.929,1.055,2.238,1.582,3.926,1.582c0.969,0,1.902-0.238,2.801-0.715s1.641-1.184,2.227-2.121s0.879-2.023,0.879-3.258
		c0-1.828-0.5-3.262-1.5-4.301s-2.391-1.56-4.172-1.56c-0.313,0-0.797,0.031-1.453,0.095c-0.656,0.062-1.078,0.094-1.266,0.094
		c-0.859,0-1.523-0.215-1.992-0.646c-0.469-0.43-0.703-1.026-0.703-1.793c0-0.75,0.281-1.354,0.844-1.815s1.398-0.691,2.508-0.691
		h0.961c1.438,0,2.676-0.422,3.715-1.266c1.039-0.844,1.559-2.056,1.559-3.633c0-1.203-0.414-2.238-1.242-3.105
		c-0.828-0.867-1.945-1.301-3.352-1.301c-0.953,0-1.738,0.133-2.355,0.398c-0.617,0.265-1.105,0.617-1.465,1.056
		c-0.36,0.438-0.699,1-1.02,1.688c-0.321,0.688-0.613,1.336-0.879,1.945c-0.156,0.328-0.438,0.586-0.844,0.772
		c-0.406,0.188-0.875,0.281-1.406,0.281c-0.625,0-1.199-0.254-1.723-0.762c-0.524-0.509-0.785-1.185-0.785-2.027
		c0-0.813,0.246-1.668,0.738-2.565c0.492-0.898,1.211-1.754,2.156-2.566c0.945-0.812,2.121-1.465,3.527-1.957
		c1.406-0.492,2.977-0.738,4.711-0.738c1.516,0,2.898,0.207,4.148,0.621s2.336,1.012,3.258,1.793
		c0.922,0.781,1.617,1.688,2.086,2.719c0.469,1.031,0.703,2.142,0.703,3.328c0,1.563-0.341,2.902-1.021,4.021
		c-0.68,1.118-1.652,2.207-2.918,3.27c1.219,0.656,2.246,1.406,3.082,2.25c0.837,0.845,1.466,1.777,1.888,2.802
		c0.422,1.023,0.633,2.129,0.633,3.315c0,1.422-0.284,2.797-0.854,4.125s-1.41,2.513-2.521,3.551
		c-1.11,1.039-2.426,1.853-3.949,2.438s-3.207,0.879-5.051,0.879c-1.875,0-3.555-0.336-5.039-1.008
		c-1.484-0.672-2.707-1.512-3.668-2.521C31.507,76.501,30.78,75.456,30.288,74.378z M56.46,60.479c1.375,0,4.047-1.522,8.017-4.569
		v21.327c0,1.25,0.289,2.195,0.866,2.837c0.578,0.641,1.345,0.961,2.298,0.961c2.141,0,3.211-1.57,3.211-4.711V49.487
		c0-1.125-0.25-2.008-0.75-2.648c-0.5-0.64-1.164-0.961-1.992-0.961c-0.734,0-1.234,0.141-1.5,0.422
		c-0.267,0.281-0.836,1.031-1.711,2.25c-0.875,1.219-1.879,2.32-3.012,3.306c-1.134,0.984-2.646,1.922-4.535,2.812
		c-1.267,0.594-2.148,1.078-2.648,1.453s-0.75,0.961-0.75,1.758c0,0.688,0.254,1.293,0.762,1.816
		C55.223,60.218,55.805,60.479,56.46,60.479z M85.305,21.063v17.864c0,0.053-0.021,0.101-0.025,0.152v46.419
		c0,2.896-2.357,5.256-5.256,5.256h-60.07c-2.898,0-5.256-2.357-5.256-5.256V30.433c0-0.082,0.02-0.158,0.023-0.238v-9.131
		c0-1.113,1.436-2.017,3.209-2.017h5.729v-3.762c0-3.332,2.709-6.04,6.039-6.04c3.33,0,6.039,2.708,6.039,6.04v3.762h9.459v-3.762
		c0-3.332,2.709-6.04,6.04-6.04c3.33,0,6.039,2.708,6.039,6.04v3.762h8.619v-3.762c0-3.332,2.709-6.04,6.039-6.04
		s6.039,2.708,6.039,6.04v3.762h4.125C83.866,19.047,85.305,19.95,85.305,21.063z M68.896,19.047h6.069v-3.762
		c0-1.674-1.36-3.036-3.034-3.036c-1.675,0-3.035,1.362-3.035,3.036V19.047z M48.198,19.047h6.069v-3.762
		c0-1.674-1.36-3.036-3.035-3.036c-1.673,0-3.034,1.362-3.034,3.036V19.047z M26.659,19.047h6.072v-3.762
		c0-1.674-1.361-3.036-3.035-3.036c-1.674,0-3.037,1.362-3.037,3.036V19.047z M80.773,40.946H19.2v44.553
		c0,0.414,0.338,0.75,0.752,0.75h60.069c0.414,0,0.752-0.336,0.752-0.75V40.946z"/>
</g>
</svg>
