<?xml version="1.0" encoding="utf-8"?>
<!-- Generator: Adobe Illustrator 16.0.0, SVG Export Plug-In . SVG Version: 6.00 Build 0)  -->
<!DOCTYPE svg PUBLIC "-//W3C//DTD SVG 1.1//EN" "http://www.w3.org/Graphics/SVG/1.1/DTD/svg11.dtd">
<svg version="1.1" id="Layer_9" xmlns="http://www.w3.org/2000/svg" xmlns:xlink="http://www.w3.org/1999/xlink" x="0px" y="0px"
	 width="100px" height="100px" viewBox="0 0 100 100" enable-background="new 0 0 100 100" xml:space="preserve">
<path d="M56.198,56.523c-2.006,0-3.631,1.625-3.631,3.631c0,1.064,0.461,2.019,1.19,2.683c-0.635,0.629-1.03,1.501-1.03,2.464
	c0,1.914,1.557,3.471,3.471,3.471c1.914,0,3.472-1.557,3.472-3.471c0-0.963-0.395-1.835-1.031-2.464
	c0.729-0.664,1.19-1.618,1.19-2.683C59.829,58.148,58.203,56.523,56.198,56.523z M58.918,65.301c0,1.5-1.22,2.72-2.72,2.72
	s-2.721-1.22-2.721-2.72c0-0.797,0.348-1.513,0.896-2.012c0.536,0.314,1.159,0.496,1.825,0.496c0.666,0,1.289-0.182,1.825-0.496
	C58.571,63.788,58.918,64.503,58.918,65.301z M68.845,11.477c0-2.146-1.74-3.886-3.886-3.886H35.041
	c-2.146,0-3.886,1.74-3.886,3.886v41.705h37.69V11.477z M44.366,39.193H37.76v-6.605h6.605V39.193z M44.366,29.479H37.76v-6.606
	h6.605V29.479z M44.366,19.895H37.76V13.29h6.605V19.895z M53.108,48.001h-6.605v-6.605h6.605V48.001z M53.108,39.193h-6.605v-6.605
	h6.605V39.193z M53.108,29.479h-6.605v-6.606h6.605V29.479z M53.108,19.895h-6.605V13.29h6.605V19.895z M61.462,39.193h-6.605
	v-6.605h6.605V39.193z M61.462,29.479h-6.605v-6.606h6.605V29.479z M61.462,19.895h-6.605V13.29h6.605V19.895z M31.058,53.862V61.6
	h3.387l-0.002-2.332h-1.054v-3.075H35.1v34.337c0,1.037,0.84,1.878,1.877,1.878h26.044c1.038,0,1.878-0.841,1.878-1.878V56.194
	h1.712v3.075h-0.77L65.837,61.6h3.105v-7.738H31.058z M47.746,61.857h-7.387c-0.415,0-0.751-0.335-0.751-0.751v-5.159h8.89v5.159
	C48.497,61.522,48.16,61.857,47.746,61.857z M58.076,89.749h-2.911V74.723h2.911V89.749z M60.423,89.749h-1.22V77.071h1.22V89.749z
	 M59.954,71.249h-7.513c-0.416,0-0.751-0.336-0.751-0.752V55.947h9.016v14.549C60.706,70.913,60.369,71.249,59.954,71.249z"/>
</svg>
