<?xml version="1.0" encoding="utf-8"?>
<!-- Generator: Adobe Illustrator 16.0.0, SVG Export Plug-In . SVG Version: 6.00 Build 0)  -->
<!DOCTYPE svg PUBLIC "-//W3C//DTD SVG 1.1//EN" "http://www.w3.org/Graphics/SVG/1.1/DTD/svg11.dtd">
<svg version="1.1" id="Layer_9" xmlns="http://www.w3.org/2000/svg" xmlns:xlink="http://www.w3.org/1999/xlink" x="0px" y="0px"
	 width="100px" height="100px" viewBox="0 0 100 100" enable-background="new 0 0 100 100" xml:space="preserve">
<g>
	<circle cx="72.4" cy="56.514" r="2.204"/>
	<path d="M38.991,19.29c0-0.096,0-0.267,0.005-0.479H22.163v24.186h16.84L38.991,19.29z"/>
	<path d="M90.289,71.192V35.034c0-2.652-1.448-4.968-3.592-6.211V12.286H46.468v15.565h-5.394v7.184h5.394h36.637l0.004,36.158
		H17.015V50.838h31.608V36.471h-7.549v3.592h1.563v6.226H19.17v-6.226h1.233v-3.592h-3.388v-1.437h3.388v-7.184h-3.388
		c-3.961,0-7.184,3.223-7.184,7.184v36.158H6v16.522h88V71.192H90.289z M79.513,27.851H53.652v-8.381h25.861V27.851z M51.616,84.123
		c-2.579,0-4.669-2.091-4.669-4.669c0-2.579,2.091-4.669,4.669-4.669c2.579,0,4.669,2.09,4.669,4.669
		C56.286,82.032,54.195,84.123,51.616,84.123z"/>
	<path d="M79.273,46.498c0-1.934-1.568-3.501-3.501-3.501H56.375c-1.934,0-3.501,1.568-3.501,3.501c0,1.934,1.568,3.502,3.501,3.502
		h19.397C77.706,50,79.273,48.432,79.273,46.498z"/>
	<circle cx="58.302" cy="56.514" r="2.204"/>
	<circle cx="58.302" cy="63.787" r="2.204"/>
	<circle cx="65.355" cy="56.514" r="2.204"/>
	<circle cx="72.4" cy="63.787" r="2.204"/>
	<circle cx="65.355" cy="63.787" r="2.204"/>
</g>
</svg>
