<?xml version="1.0" encoding="utf-8"?>
<!-- Generator: Adobe Illustrator 16.0.0, SVG Export Plug-In . SVG Version: 6.00 Build 0)  -->
<!DOCTYPE svg PUBLIC "-//W3C//DTD SVG 1.1//EN" "http://www.w3.org/Graphics/SVG/1.1/DTD/svg11.dtd">
<svg version="1.1" id="Layer_9" xmlns="http://www.w3.org/2000/svg" xmlns:xlink="http://www.w3.org/1999/xlink" x="0px" y="0px"
	 width="100px" height="100px" viewBox="0 0 100 100" enable-background="new 0 0 100 100" xml:space="preserve">
<path d="M84.394,68.621c-0.126-5.018-1.291-9.775-3.283-14.072l1.968-0.65l0.875,2.678c0.334,1.021,1.433,1.579,2.453,1.245
	c1.021-0.334,1.579-1.433,1.245-2.454l-1.768-5.404c-0.334-1.021-1.432-1.579-2.454-1.245c-1.021,0.334-1.577,1.433-1.243,2.454
	l0.58,1.776l-2.098,0.694c-1.495-3-3.396-5.759-5.638-8.204l2.242-1.994l1.854,2.16c0.699,0.815,1.928,0.908,2.743,0.209
	c0.815-0.7,0.909-1.928,0.209-2.743l-3.704-4.315c-0.7-0.814-1.928-0.909-2.743-0.209s-0.908,1.928-0.209,2.743l1.199,1.396
	l-2.279,2.027c-2.462-2.539-5.294-4.716-8.415-6.436l1.131-1.955l2.378,1.338c0.937,0.526,2.122,0.194,2.649-0.742
	c0.526-0.937,0.194-2.122-0.742-2.649l-4.956-2.787c-0.937-0.526-2.123-0.195-2.649,0.742c-0.526,0.936-0.194,2.122,0.742,2.648
	l1.706,0.96l-1.144,1.977c-3.901-2.008-8.219-3.323-12.793-3.77v-0.173h-15V21.2c0-2.762-2.238-5-5-5h-7.124h-3.542h-6.792
	c-2.462,0-4.458,1.996-4.458,4.458s1.996,4.458,4.458,4.458h1.792v39.417c0,1.681,0.836,3.159,2.107,4.066h-0.657
	c-3.147,0-5.7,2.552-5.7,5.7v3.8c0,3.148,2.553,5.7,5.7,5.7h65.932c3.148,0,5.7-2.552,5.7-5.7v-3.8
	C89.666,71.296,87.341,68.841,84.394,68.621z M21.251,62.2c0,0.552-0.448,1-1,1c-0.553,0-1-0.448-1-1V28.866c0-0.552,0.447-1,1-1
	c0.552,0,1,0.448,1,1V62.2z M73.438,53.998c-0.152,0.083-0.315,0.122-0.477,0.122c-0.355,0-0.698-0.189-0.88-0.522
	c-5.93-10.91-18.399-12.97-18.524-12.989c-0.545-0.085-0.919-0.596-0.835-1.142c0.085-0.545,0.597-0.917,1.14-0.835
	c0.551,0.084,13.564,2.211,19.977,14.011C74.104,53.128,73.924,53.734,73.438,53.998z"/>
</svg>
