<?xml version="1.0" encoding="utf-8"?>
<!-- Generator: Adobe Illustrator 16.0.4, SVG Export Plug-In . SVG Version: 6.00 Build 0)  -->
<!DOCTYPE svg PUBLIC "-//W3C//DTD SVG 1.1//EN" "http://www.w3.org/Graphics/SVG/1.1/DTD/svg11.dtd">
<svg version="1.1" id="Capa_1" xmlns="http://www.w3.org/2000/svg" xmlns:xlink="http://www.w3.org/1999/xlink" x="0px" y="0px"
	 width="100px" height="100px" viewBox="0 0 100 100" enable-background="new 0 0 100 100" xml:space="preserve">
<g id="Layer_8">
	<path d="M89.422,78.145h-4.729v-25.78H86.2c0.711,0,1.288-0.577,1.288-1.289V26.197c0-0.712-0.577-1.289-1.288-1.289H75.027
		c-0.711,0-1.289,0.577-1.289,1.289v3.394H63.212v-8.162c0-0.712-0.577-1.29-1.289-1.29h-2.063
		c-1.155-4.685-5.377-8.164-10.417-8.164c-5.043,0-9.262,3.479-10.417,8.164h-1.162c-0.713,0-1.289,0.578-1.289,1.29v8.162H27.12
		v-3.394c0-0.712-0.577-1.289-1.288-1.289H14.66c-0.711,0-1.289,0.577-1.289,1.289v24.877c0,0.712,0.578,1.289,1.289,1.289h1.289
		v25.779h-5.371c-0.713,0-1.289,0.577-1.289,1.289v7.305c0,0.712,0.576,1.289,1.289,1.289h78.844c0.711,0,1.289-0.577,1.289-1.289
		v-7.305C90.711,78.721,90.133,78.145,89.422,78.145z M28.385,72.587c0,0.556-0.449,1.005-1.006,1.005h-4.518
		c-0.556,0-1.005-0.449-1.005-1.005V57.021c0-0.556,0.449-1.006,1.005-1.006h4.518c0.557,0,1.006,0.45,1.006,1.006V72.587z
		 M28.385,52.18c0,0.553-0.449,1.002-1.006,1.002h-4.518c-0.556,0-1.005-0.449-1.005-1.002V36.611c0-0.556,0.449-1.005,1.005-1.005
		h4.518c0.557,0,1.006,0.449,1.006,1.005V52.18z M38.68,72.587c0,0.556-0.45,1.005-1.006,1.005h-4.519
		c-0.555,0-1.005-0.449-1.005-1.005V57.021c0-0.556,0.45-1.006,1.005-1.006h4.519c0.556,0,1.006,0.45,1.006,1.006V72.587z
		 M38.68,52.18c0,0.553-0.45,1.002-1.006,1.002h-4.519c-0.555,0-1.005-0.449-1.005-1.002V36.611c0-0.556,0.45-1.005,1.005-1.005
		h4.519c0.556,0,1.006,0.449,1.006,1.005V52.18z M58.701,72.343c0,0.714-0.578,1.289-1.29,1.289H42.804
		c-0.712,0-1.29-0.575-1.29-1.289V36.896c0-0.712,0.578-1.289,1.29-1.289h14.607c0.712,0,1.29,0.577,1.29,1.289V72.343z
		 M68.666,72.587c0,0.556-0.45,1.005-1.004,1.005h-4.521c-0.554,0-1.002-0.449-1.002-1.005V57.021c0-0.556,0.448-1.006,1.002-1.006
		h4.521c0.554,0,1.004,0.45,1.004,1.006V72.587z M68.666,52.18c0,0.553-0.45,1.002-1.004,1.002h-4.521
		c-0.554,0-1.002-0.449-1.002-1.002V36.611c0-0.556,0.448-1.005,1.002-1.005h4.521c0.554,0,1.004,0.449,1.004,1.005V52.18z
		 M78.96,72.587c0,0.556-0.448,1.005-1.003,1.005h-4.521c-0.555,0-1.004-0.449-1.004-1.005V57.021c0-0.556,0.449-1.006,1.004-1.006
		h4.521c0.555,0,1.003,0.45,1.003,1.006V72.587z M78.96,52.18c0,0.553-0.448,1.002-1.003,1.002h-4.521
		c-0.555,0-1.004-0.449-1.004-1.002V36.611c0-0.556,0.449-1.005,1.004-1.005h4.521c0.555,0,1.003,0.449,1.003,1.005V52.18z"/>
</g>
</svg>
