<?xml version="1.0" encoding="utf-8"?>
<!-- Generator: Adobe Illustrator 16.0.4, SVG Export Plug-In . SVG Version: 6.00 Build 0)  -->
<!DOCTYPE svg PUBLIC "-//W3C//DTD SVG 1.1//EN" "http://www.w3.org/Graphics/SVG/1.1/DTD/svg11.dtd">
<svg version="1.1" id="Capa_1" xmlns="http://www.w3.org/2000/svg" xmlns:xlink="http://www.w3.org/1999/xlink" x="0px" y="0px"
	 width="100px" height="100px" viewBox="0 0 100 100" enable-background="new 0 0 100 100" xml:space="preserve">
<g id="Layer_8">
	<path d="M66.439,85.037c-6.388,2.037-13.194,2.293-19.685,0.742l2.604-10.902c4.504,1.078,9.233,0.898,13.677-0.518
		c13.435-4.281,20.878-18.691,16.597-32.124C75.354,28.804,60.943,21.359,47.511,25.64c-12.947,4.125-20.299,17.658-16.985,30.656
		l1.666,5.226l9.733-7.947c0.327-0.268,0.791-0.281,1.134-0.039c0.345,0.242,0.484,0.686,0.342,1.082l-9.847,27.234
		c-0.101,0.272-0.318,0.483-0.597,0.573c-0.278,0.089-0.58,0.043-0.818-0.123L8.35,65.785c-0.176-0.119-0.297-0.289-0.356-0.482
		C7.932,65.113,7.931,64.906,8,64.705c0.139-0.396,0.527-0.65,0.947-0.621l12.537,0.85l-1.249-3.768
		c-0.432-1.352-1.407-5.986-1.469-6.781c-2.069-17.168,8.271-33.986,25.341-39.424c19.32-6.158,40.049,4.551,46.206,23.871
		C96.471,58.154,85.762,78.881,66.439,85.037z M55.266,27.719c-1.07,0-1.938,0.867-1.938,1.938v25.954
		c0,0.72,0.399,1.382,1.038,1.716c0.281,0.147,0.591,0.223,0.898,0.223c0.387,0,0.771-0.114,1.102-0.344L73.92,45.078
		c0.88-0.607,1.102-1.814,0.493-2.695c-0.606-0.877-1.813-1.098-2.694-0.492L57.201,51.918V29.656
		C57.201,28.586,56.335,27.719,55.266,27.719z"/>
</g>
</svg>
