<?xml version="1.0" encoding="utf-8"?>
<!-- Generator: Adobe Illustrator 16.0.4, SVG Export Plug-In . SVG Version: 6.00 Build 0)  -->
<!DOCTYPE svg PUBLIC "-//W3C//DTD SVG 1.1//EN" "http://www.w3.org/Graphics/SVG/1.1/DTD/svg11.dtd">
<svg version="1.1" id="Capa_1" xmlns="http://www.w3.org/2000/svg" xmlns:xlink="http://www.w3.org/1999/xlink" x="0px" y="0px"
	 width="100px" height="100px" viewBox="0 0 100 100" enable-background="new 0 0 100 100" xml:space="preserve">
<g id="Layer_8">
	<path d="M9.688,38.832c6.156-19.32,26.885-30.029,46.205-23.871c17.07,5.438,27.41,22.256,25.342,39.424
		c-0.062,0.795-1.037,5.43-1.469,6.781l-1.25,3.768l12.537-0.85c0.42-0.029,0.809,0.225,0.947,0.621
		c0.068,0.201,0.068,0.408,0.007,0.598c-0.06,0.193-0.181,0.363-0.356,0.482L67.859,82.303c-0.237,0.166-0.539,0.211-0.817,0.123
		c-0.278-0.09-0.496-0.301-0.597-0.574l-9.848-27.233c-0.143-0.396-0.002-0.841,0.342-1.082c0.344-0.242,0.808-0.229,1.135,0.039
		l9.732,7.946l1.666-5.225c3.313-12.998-4.037-26.531-16.984-30.656c-13.432-4.281-27.842,3.164-32.122,16.596
		c-4.281,13.432,3.163,27.842,16.597,32.123c4.443,1.416,9.172,1.597,13.678,0.519l2.604,10.902
		c-6.489,1.551-13.297,1.295-19.685-0.742C14.238,78.881,3.529,58.154,9.688,38.832z M43.285,27.719
		c-1.069,0-1.938,0.867-1.938,1.938v25.954c0,0.72,0.4,1.382,1.038,1.716c0.282,0.147,0.591,0.223,0.899,0.223
		c0.387,0,0.771-0.114,1.101-0.344l17.555-12.128c0.881-0.607,1.103-1.814,0.494-2.695c-0.607-0.877-1.813-1.098-2.695-0.492
		L45.222,51.918V29.656C45.222,28.586,44.355,27.719,43.285,27.719z"/>
</g>
</svg>
