<?xml version="1.0" encoding="utf-8"?>
<!-- Generator: Adobe Illustrator 16.0.4, SVG Export Plug-In . SVG Version: 6.00 Build 0)  -->
<!DOCTYPE svg PUBLIC "-//W3C//DTD SVG 1.1//EN" "http://www.w3.org/Graphics/SVG/1.1/DTD/svg11.dtd">
<svg version="1.1" id="Capa_1" xmlns="http://www.w3.org/2000/svg" xmlns:xlink="http://www.w3.org/1999/xlink" x="0px" y="0px"
	 width="100px" height="100px" viewBox="0 0 100 100" enable-background="new 0 0 100 100" xml:space="preserve">
<g id="Layer_8">
	<path d="M50.001,12.453c-20.703,0-37.547,16.844-37.547,37.547s16.844,37.547,37.547,37.547S87.548,70.703,87.548,50
		S70.704,12.453,50.001,12.453z M50.001,81.43c-17.329,0-31.429-14.101-31.429-31.43s14.1-31.429,31.429-31.429
		S81.43,32.671,81.43,50S67.33,81.43,50.001,81.43z M69.396,40.343c0.627,0.909,0.399,2.154-0.51,2.782L50.762,55.646
		C50.422,55.881,50.024,56,49.625,56c-0.318,0-0.637-0.076-0.929-0.229c-0.658-0.347-1.071-1.028-1.071-1.771V27.201
		c0-1.104,0.896-2,2-2c1.104,0,2,0.896,2,2v22.986l14.988-10.354C67.523,39.208,68.77,39.436,69.396,40.343z"/>
</g>
</svg>
