<?xml version="1.0" encoding="utf-8"?>
<!-- Generator: Adobe Illustrator 16.0.4, SVG Export Plug-In . SVG Version: 6.00 Build 0)  -->
<!DOCTYPE svg PUBLIC "-//W3C//DTD SVG 1.1//EN" "http://www.w3.org/Graphics/SVG/1.1/DTD/svg11.dtd">
<svg version="1.1" id="Capa_1" xmlns="http://www.w3.org/2000/svg" xmlns:xlink="http://www.w3.org/1999/xlink" x="0px" y="0px"
	 width="100px" height="100px" viewBox="0 0 100 100" enable-background="new 0 0 100 100" xml:space="preserve">
<g id="Layer_8">
	<path d="M24.259,64.348v0.131c0,4.521,3.663,8.183,8.182,8.183h13.638c4.519,0,8.183-3.662,8.183-8.183V46H24.259v0.391
		c-3.63,0.229-6.517,3.246-6.517,6.934v4.09C17.742,61.102,20.629,64.119,24.259,64.348z M27.031,50.812
		c0-0.475,0.385-0.856,0.855-0.856c0.475,0,0.857,0.383,0.857,0.856v10.873c0.005,0.539,0.209,5.308,5.998,5.308
		c0.474,0,0.857,0.385,0.857,0.856c0,0.476-0.384,0.857-0.857,0.857c-7.624,0-7.711-6.951-7.711-7.021L27.031,50.812L27.031,50.812z
		 M20.195,53.324c0-2.336,1.787-4.258,4.063-4.479v13.048c-2.276-0.222-4.063-2.146-4.063-4.479V53.324z M77.117,82.088v-6.805
		h-0.062c0.041-0.391,0.062-0.791,0.062-1.193V18.484c0-6.313-5.116-11.426-11.426-11.426H33.317
		c-6.31,0-11.426,5.113-11.426,11.426v3.436c1.509-1.418,3.534-2.293,5.768-2.293h4.319c1.029,2.523,3.033,4.545,5.548,5.592
		l1.999,2.309h3.598l2.399-2.367c2.453-1.061,4.403-3.055,5.414-5.533h0.609c4.655,0,8.432,3.773,8.432,8.43v41.031
		c0,2.453-1.056,4.656-2.728,6.195H21.955v6.805h-4.213v10.854h64.516V82.088H77.117z M56.4,89.057h-4.283V84.2H56.4V89.057z
		 M66.977,89.057h-4.285V84.2h4.285V89.057z"/>
</g>
</svg>
