<?xml version="1.0" encoding="utf-8"?>
<!-- Generator: Adobe Illustrator 16.0.4, SVG Export Plug-In . SVG Version: 6.00 Build 0)  -->
<!DOCTYPE svg PUBLIC "-//W3C//DTD SVG 1.1//EN" "http://www.w3.org/Graphics/SVG/1.1/DTD/svg11.dtd">
<svg version="1.1" id="Capa_1" xmlns="http://www.w3.org/2000/svg" xmlns:xlink="http://www.w3.org/1999/xlink" x="0px" y="0px"
	 width="100px" height="100px" viewBox="0 0 100 100" enable-background="new 0 0 100 100" xml:space="preserve">
<g id="Layer_8">
	<path d="M22.955,48.004c-4.035-3.844-6.564-9.258-6.564-15.273c0-11.656,9.449-21.105,21.105-21.105
		c6.617,0,12.518,3.05,16.387,7.814c-1.557,0.539-3.033,1.239-4.422,2.077c-2.995-3.194-7.241-5.202-11.965-5.202
		c-9.065,0-16.416,7.35-16.416,16.416c0,4.941,2.193,9.361,5.648,12.371C25.373,45.942,24.108,46.912,22.955,48.004z M41.398,20.479
		h-4.305l-0.182,0.952c-0.249,1.305-1.019,3.039-4.784,3.039h-1.174v4.557h1.174c1.628,0,2.992-0.167,4.114-0.507v13.264
		c0.607-0.069,1.224-0.101,1.843-0.122c0-0.027-0.002-0.052-0.002-0.078c0-4.372,1.224-8.453,3.315-11.959L41.398,20.479
		L41.398,20.479z M62.503,20.479c-11.655,0-21.104,9.45-21.104,21.106c0,0.061,0.009,0.119,0.009,0.18
		c1.639,0.178,3.224,0.535,4.743,1.037c-0.03-0.403-0.063-0.806-0.063-1.217c0-9.066,7.35-16.416,16.415-16.416
		s16.415,7.35,16.415,16.416C78.918,50.65,71.568,58,62.503,58c-0.493,0-0.979-0.032-1.462-0.074
		c0.475,1.518,0.784,3.104,0.938,4.737c0.176,0.004,0.349,0.026,0.524,0.026c11.656,0,21.106-9.449,21.106-21.105
		S74.159,20.479,62.503,20.479z M66.404,53.993V29.331h-4.303l-0.183,0.952c-0.25,1.305-1.019,3.04-4.786,3.04h-1.171v4.557h1.171
		c1.631,0,2.993-0.167,4.116-0.507v16.621L66.404,53.993L66.404,53.993z M59.995,64.816c0,11.656-9.449,21.105-21.105,21.105
		c-11.655,0-21.104-9.449-21.104-21.105c0-11.655,9.449-21.105,21.104-21.105C50.546,43.711,59.995,53.162,59.995,64.816z
		 M55.307,64.816c0-9.065-7.352-16.415-16.417-16.415s-16.415,7.349-16.415,16.415s7.35,16.416,16.415,16.416
		S55.307,73.883,55.307,64.816z M38.306,53.516c-0.25,1.305-1.019,3.041-4.785,3.041h-1.172v4.557h1.172
		c1.63,0,2.994-0.168,4.115-0.506v16.621h5.156V52.564h-4.304L38.306,53.516z"/>
</g>
</svg>
