<?xml version="1.0" encoding="utf-8"?>
<!-- Generator: Adobe Illustrator 16.0.0, SVG Export Plug-In . SVG Version: 6.00 Build 0)  -->
<!DOCTYPE svg PUBLIC "-//W3C//DTD SVG 1.1//EN" "http://www.w3.org/Graphics/SVG/1.1/DTD/svg11.dtd">
<svg version="1.1" id="Layer_9" xmlns="http://www.w3.org/2000/svg" xmlns:xlink="http://www.w3.org/1999/xlink" x="0px" y="0px"
	 width="100px" height="100px" viewBox="0 0 100 100" enable-background="new 0 0 100 100" xml:space="preserve">
<path d="M89.408,19.548H10.592c-2.12,0-3.839,1.718-3.839,3.838v53.227c0,2.12,1.719,3.839,3.839,3.839h78.816
	c2.12,0,3.839-1.719,3.839-3.839V23.386C93.247,21.266,91.528,19.548,89.408,19.548z M38.101,71.304H12.19v-2.495h25.91V71.304z
	 M42.899,66.506H12.19v-5.95h30.709V66.506z M83.012,70.344c0,0.848-0.688,1.536-1.536,1.536h-29.94
	c-0.848,0-1.535-0.688-1.535-1.536V54.99c0-0.848,0.688-1.535,1.535-1.535h29.94c0.848,0,1.536,0.687,1.536,1.535V70.344z
	 M85.57,45.394c0,0.848-0.688,1.535-1.535,1.535H70.728c-0.848,0-1.535-0.688-1.535-1.535V30.295c0-0.848,0.688-1.535,1.535-1.535
	h13.308c0.848,0,1.535,0.688,1.535,1.535V45.394z M79.429,57.549v2.047c0,0.848-0.688,1.536-1.535,1.536h-22.52
	c-0.848,0-1.535-0.688-1.535-1.536v-2.047c0-0.848,0.688-1.536,1.535-1.536h22.52C78.741,56.014,79.429,56.701,79.429,57.549z
	 M79.429,65.866v2.047c0,0.848-0.688,1.536-1.535,1.536h-22.52c-0.848,0-1.535-0.688-1.535-1.536v-2.047
	c0-0.848,0.688-1.535,1.535-1.535h22.52C78.741,64.331,79.429,65.019,79.429,65.866z"/>
</svg>
