<?xml version="1.0" encoding="utf-8"?>
<!-- Generator: Adobe Illustrator 16.0.0, SVG Export Plug-In . SVG Version: 6.00 Build 0)  -->
<!DOCTYPE svg PUBLIC "-//W3C//DTD SVG 1.1//EN" "http://www.w3.org/Graphics/SVG/1.1/DTD/svg11.dtd">
<svg version="1.1" id="Layer_9" xmlns="http://www.w3.org/2000/svg" xmlns:xlink="http://www.w3.org/1999/xlink" x="0px" y="0px"
	 width="100px" height="100px" viewBox="0 0 100 100" enable-background="new 0 0 100 100" xml:space="preserve">
<path d="M49.456,43.347c-1.45,0-2.75,0.627-3.655,1.621c-0.857-0.865-2.046-1.403-3.358-1.403c-2.607,0-4.729,2.122-4.729,4.73
	c0,2.607,2.122,4.73,4.729,4.73c1.313,0,2.501-0.538,3.358-1.404c0.905,0.993,2.205,1.621,3.655,1.621
	c2.732,0,4.947-2.215,4.947-4.947C54.403,45.562,52.188,43.347,49.456,43.347z M45.184,50.781C44.505,51.528,43.529,52,42.442,52
	c-2.043,0-3.705-1.663-3.705-3.706c0-2.044,1.662-3.707,3.705-3.707c1.087,0,2.063,0.473,2.741,1.22
	c-0.427,0.73-0.675,1.578-0.675,2.486C44.509,49.202,44.757,50.049,45.184,50.781z M63.171,57.591V22.107
	c0-1.414-1.146-2.559-2.56-2.559H8.066c-1.413,0-2.559,1.146-2.559,2.559v35.484c0,1.414,1.146,2.56,2.559,2.56h52.545
	C62.024,60.151,63.171,59.005,63.171,57.591z M26.406,54.052H9.133v-1.664h17.273V54.052z M29.604,50.853H9.133v-3.966h20.472
	V50.853z M56.347,53.412c0,0.565-0.459,1.024-1.023,1.024H35.362c-0.565,0-1.023-0.459-1.023-1.024V43.176
	c0-0.565,0.458-1.023,1.023-1.023h19.961c0.564,0,1.023,0.458,1.023,1.023V53.412z M58.053,36.779c0,0.565-0.459,1.023-1.024,1.023
	h-8.871c-0.565,0-1.023-0.458-1.023-1.023V26.713c0-0.565,0.458-1.023,1.023-1.023h8.871c0.565,0,1.024,0.458,1.024,1.023V36.779z
	 M85.28,65.184v1.365c0,0.565-0.459,1.024-1.023,1.024H69.243c-0.564,0-1.023-0.458-1.023-1.024v-1.365
	c0-0.565,0.459-1.024,1.023-1.024h15.014C84.821,64.16,85.28,64.618,85.28,65.184z M91.933,39.849H66.937v17.742
	c0,3.249-2.644,5.893-5.893,5.893H36.829v14.409c0,1.413,1.146,2.559,2.56,2.559h52.544c1.414,0,2.56-1.146,2.56-2.559V42.408
	C94.492,40.995,93.347,39.849,91.933,39.849z M57.728,74.354H40.454V72.69h17.273V74.354z M60.927,71.155H40.454v-3.967h20.473
	V71.155z M87.669,73.713c0,0.565-0.459,1.024-1.024,1.024h-19.96c-0.565,0-1.023-0.458-1.023-1.024V63.478
	c0-0.565,0.458-1.023,1.023-1.023h19.96c0.565,0,1.024,0.458,1.024,1.023V73.713z M89.374,57.08c0,0.565-0.458,1.023-1.023,1.023
	h-8.871c-0.565,0-1.023-0.458-1.023-1.023V47.014c0-0.565,0.458-1.023,1.023-1.023h8.871c0.565,0,1.023,0.458,1.023,1.023V57.08z
	 M85.28,70.728v1.365c0,0.565-0.459,1.023-1.023,1.023H69.243c-0.564,0-1.023-0.458-1.023-1.023v-1.365
	c0-0.565,0.459-1.023,1.023-1.023h15.014C84.821,69.705,85.28,70.163,85.28,70.728z"/>
</svg>
