<?xml version="1.0" encoding="utf-8"?>
<!-- Generator: Adobe Illustrator 16.0.4, SVG Export Plug-In . SVG Version: 6.00 Build 0)  -->
<!DOCTYPE svg PUBLIC "-//W3C//DTD SVG 1.1//EN" "http://www.w3.org/Graphics/SVG/1.1/DTD/svg11.dtd">
<svg version="1.1" id="Capa_1" xmlns="http://www.w3.org/2000/svg" xmlns:xlink="http://www.w3.org/1999/xlink" x="0px" y="0px"
	 width="100px" height="100px" viewBox="0 0 100 100" enable-background="new 0 0 100 100" xml:space="preserve">
<g id="Layer_8">
	<path d="M82.096,19.047h-4.125v-3.762c0-3.332-2.709-6.04-6.039-6.04s-6.041,2.708-6.041,6.04v3.762h-8.619v-3.762
		c0-3.332-2.709-6.04-6.039-6.04c-3.33,0-6.04,2.708-6.04,6.04v3.762h-9.459v-3.762c0-3.332-2.709-6.04-6.039-6.04
		c-3.33,0-6.04,2.708-6.04,6.04v3.762h-5.729c-1.772,0-3.208,0.903-3.208,2.017v9.131c-0.004,0.08-0.024,0.156-0.024,0.238v55.066
		c0,2.897,2.358,5.256,5.256,5.256h60.071c2.897,0,5.256-2.358,5.256-5.256V39.08c0.006-0.052,0.023-0.1,0.023-0.152V21.063
		C85.305,19.95,83.867,19.047,82.096,19.047z M68.896,15.285c0-1.674,1.36-3.036,3.035-3.036c1.676,0,3.036,1.362,3.036,3.036v3.762
		h-6.071V15.285L68.896,15.285z M48.198,15.285c0-1.674,1.361-3.036,3.036-3.036c1.675,0,3.035,1.362,3.035,3.036v3.762h-6.07
		L48.198,15.285L48.198,15.285z M26.66,15.285c0-1.674,1.362-3.036,3.036-3.036c1.674,0,3.036,1.362,3.036,3.036v3.762H26.66V15.285
		z M80.773,85.499c0,0.414-0.336,0.75-0.75,0.75H19.952c-0.414,0-0.751-0.336-0.751-0.75V40.946h61.572V85.499z M26.617,59.652
		c-0.495-0.51-0.742-1.101-0.742-1.771c0-0.776,0.243-1.348,0.731-1.713c0.487-0.366,1.348-0.838,2.581-1.416
		c1.842-0.868,3.315-1.782,4.419-2.741s2.082-2.032,2.935-3.221c0.853-1.188,1.408-1.918,1.667-2.192
		c0.258-0.273,0.746-0.411,1.461-0.411c0.807,0,1.454,0.313,1.941,0.937c0.487,0.625,0.731,1.484,0.731,2.581v26.151
		c0,3.061-1.043,4.591-3.129,4.591c-0.929,0-1.675-0.313-2.238-0.938s-0.845-1.546-0.845-2.764V55.964
		c-3.868,2.97-6.471,4.454-7.811,4.454C27.679,60.418,27.112,60.163,26.617,59.652z M64.581,58.625
		c0.435-0.938,0.651-1.854,0.651-2.752c0-0.975-0.232-1.848-0.696-2.615c-0.466-0.769-1.097-1.365-1.896-1.793
		c-0.8-0.426-1.672-0.64-2.615-0.64c-1.996,0-3.563,0.876-4.705,2.627c-0.152,0.228-0.408,0.853-0.766,1.872
		c-0.357,1.021-0.762,1.805-1.209,2.353c-0.449,0.55-1.109,0.822-1.977,0.822c-0.762,0-1.394-0.251-1.896-0.754
		c-0.502-0.502-0.753-1.188-0.753-2.056c0-1.051,0.236-2.146,0.708-3.289c0.472-1.143,1.175-2.177,2.112-3.105
		c0.937-0.929,2.125-1.679,3.563-2.25c1.438-0.57,3.125-0.856,5.059-0.856c2.33,0,4.316,0.365,5.961,1.097
		c1.066,0.487,2.002,1.157,2.811,2.01c0.807,0.853,1.435,1.839,1.883,2.958c0.449,1.119,0.675,2.28,0.675,3.482
		c0,1.889-0.468,3.604-1.405,5.149c-0.938,1.546-1.893,2.757-2.865,3.632c-0.976,0.877-2.609,2.25-4.9,4.123
		s-3.863,3.326-4.715,4.361c-0.365,0.411-0.739,0.906-1.119,1.484h11.922c1.188,0,2.093,0.244,2.718,0.73
		c0.624,0.487,0.937,1.149,0.937,1.987c0,0.746-0.248,1.378-0.742,1.896c-0.494,0.519-1.244,0.776-2.25,0.776H52.262
		c-1.143,0-2.034-0.315-2.673-0.948c-0.64-0.631-0.959-1.373-0.959-2.227c0-0.549,0.206-1.275,0.617-2.182
		c0.411-0.905,0.86-1.617,1.347-2.136c2.025-2.102,3.852-3.901,5.481-5.401c1.629-1.5,2.794-2.485,3.495-2.957
		c1.248-0.883,2.287-1.771,3.117-2.661C63.516,60.475,64.146,59.562,64.581,58.625z"/>
</g>
</svg>
