<?xml version="1.0" encoding="utf-8"?>
<!-- Generator: Adobe Illustrator 16.0.4, SVG Export Plug-In . SVG Version: 6.00 Build 0)  -->
<!DOCTYPE svg PUBLIC "-//W3C//DTD SVG 1.1//EN" "http://www.w3.org/Graphics/SVG/1.1/DTD/svg11.dtd">
<svg version="1.1" id="Capa_1" xmlns="http://www.w3.org/2000/svg" xmlns:xlink="http://www.w3.org/1999/xlink" x="0px" y="0px"
	 width="100px" height="100px" viewBox="0 0 100 100" enable-background="new 0 0 100 100" xml:space="preserve">
<g id="Layer_8">
	<path d="M38.105,48.726c0-1.078,0.344-1.773,1.031-2.086c0.687-0.313,1.648-0.469,2.883-0.469h15.609
		c1.5,0,2.586,0.234,3.259,0.703c0.672,0.469,1.008,1.242,1.008,2.32c0,0.656-0.396,1.523-1.185,2.602s-1.688,2.271-2.694,3.574
		c-1.008,1.304-2.048,2.926-3.117,4.862c-1.07,1.938-2.051,4.306-2.941,7.103c-0.375,1.233-0.641,2.258-0.797,3.07
		c-0.156,0.812-0.328,1.866-0.516,3.163c-0.188,1.298-0.353,2.289-0.493,2.978c-0.328,1.595-0.793,2.699-1.395,3.315
		c-0.602,0.617-1.402,0.927-2.402,0.927c-0.953,0-1.719-0.332-2.297-0.996s-0.867-1.646-0.867-2.94c0-1,0.211-2.359,0.633-4.078
		c0.422-1.719,1.109-3.777,2.063-6.176c0.954-2.399,2.145-4.859,3.574-7.384c1.43-2.524,3.129-5.034,5.098-7.534H42.02
		c-1.313,0-2.293-0.238-2.941-0.716C38.431,50.487,38.105,49.741,38.105,48.726z M85.305,21.063v17.864
		c0,0.053-0.021,0.101-0.025,0.152v46.419c0,2.896-2.357,5.256-5.256,5.256h-60.07c-2.898,0-5.256-2.357-5.256-5.256V30.433
		c0-0.082,0.02-0.158,0.023-0.238v-9.131c0-1.113,1.436-2.017,3.209-2.017h5.729v-3.762c0-3.332,2.709-6.04,6.039-6.04
		c3.33,0,6.039,2.708,6.039,6.04v3.762h9.459v-3.762c0-3.332,2.709-6.04,6.04-6.04c3.33,0,6.039,2.708,6.039,6.04v3.762h8.619
		v-3.762c0-3.332,2.709-6.04,6.039-6.04s6.039,2.708,6.039,6.04v3.762h4.125C83.866,19.047,85.305,19.95,85.305,21.063z
		 M68.896,19.047h6.069v-3.762c0-1.674-1.36-3.036-3.034-3.036c-1.675,0-3.035,1.362-3.035,3.036V19.047z M48.198,19.047h6.069
		v-3.762c0-1.674-1.36-3.036-3.035-3.036c-1.673,0-3.034,1.362-3.034,3.036V19.047z M26.659,19.047h6.072v-3.762
		c0-1.674-1.361-3.036-3.035-3.036c-1.674,0-3.037,1.362-3.037,3.036V19.047z M80.773,40.946H19.2v44.553
		c0,0.414,0.338,0.75,0.752,0.75h60.069c0.414,0,0.752-0.336,0.752-0.75V40.946z"/>
</g>
</svg>
