<?xml version="1.0" encoding="utf-8"?>
<!-- Generator: Adobe Illustrator 16.0.4, SVG Export Plug-In . SVG Version: 6.00 Build 0)  -->
<!DOCTYPE svg PUBLIC "-//W3C//DTD SVG 1.1//EN" "http://www.w3.org/Graphics/SVG/1.1/DTD/svg11.dtd">
<svg version="1.1" id="Capa_1" xmlns="http://www.w3.org/2000/svg" xmlns:xlink="http://www.w3.org/1999/xlink" x="0px" y="0px"
	 width="100px" height="100px" viewBox="0 0 100 100" enable-background="new 0 0 100 100" xml:space="preserve">
<g id="Layer_8">
	<path d="M26.402,75.049c-0.727-1.336-1.09-2.504-1.09-3.504c0-0.609,0.254-1.188,0.762-1.734c0.508-0.545,1.145-0.819,1.91-0.819
		c1.313,0,2.289,0.758,2.93,2.272c0.625,1.392,1.469,2.473,2.531,3.246s2.25,1.16,3.563,1.16c1.203,0,2.258-0.312,3.164-0.938
		c0.906-0.625,1.605-1.484,2.098-2.578s0.738-2.336,0.738-3.728c0-1.5-0.266-2.78-0.797-3.844c-0.531-1.063-1.242-1.854-2.133-2.379
		s-1.883-0.785-2.977-0.785c-1.344,0-2.305,0.164-2.883,0.492c-0.578,0.328-1.41,0.901-2.496,1.723s-1.98,1.23-2.684,1.23
		c-0.766,0-1.445-0.277-2.039-0.832c-0.594-0.556-0.891-1.185-0.891-1.888c0-0.078,0.086-0.608,0.258-1.594l1.969-11.227
		c0.219-1.344,0.625-2.32,1.219-2.93c0.594-0.61,1.563-0.914,2.906-0.914h12.375c2.438,0,3.656,0.93,3.656,2.789
		c0,0.813-0.297,1.469-0.891,1.969c-0.594,0.5-1.469,0.75-2.625,0.75H33.844l-1.336,7.594c2.219-1.188,4.266-1.781,6.141-1.781
		c1.5,0,2.902,0.281,4.207,0.844c1.305,0.563,2.449,1.34,3.434,2.332s1.758,2.168,2.32,3.527s0.844,2.82,0.844,4.383
		c0,2.266-0.508,4.328-1.523,6.188c-1.015,1.86-2.48,3.336-4.395,4.43c-1.915,1.095-4.121,1.642-6.621,1.642
		c-2.797,0-5.066-0.517-6.809-1.547C28.363,77.568,27.129,76.385,26.402,75.049z M53.343,57.623c0.892,0,1.566-0.281,2.027-0.844
		c0.461-0.563,0.875-1.367,1.241-2.414c0.367-1.047,0.63-1.688,0.785-1.922c1.172-1.797,2.781-2.695,4.828-2.695
		c0.969,0,1.863,0.219,2.685,0.656s1.469,1.051,1.944,1.84c0.477,0.789,0.715,1.684,0.715,2.684c0,0.922-0.223,1.863-0.668,2.824
		c-0.444,0.961-1.094,1.898-1.944,2.812c-0.851,0.916-1.918,1.824-3.199,2.73c-0.719,0.484-1.914,1.496-3.586,3.035
		s-3.547,3.387-5.625,5.543c-0.5,0.531-0.961,1.262-1.383,2.191c-0.422,0.929-0.634,1.676-0.634,2.237
		c0,0.875,0.328,1.638,0.984,2.285s1.57,0.974,2.742,0.974h17.25c1.031,0,1.801-0.267,2.309-0.797
		c0.508-0.531,0.763-1.181,0.763-1.945c0-0.859-0.32-1.539-0.961-2.039c-0.642-0.5-1.57-0.75-2.789-0.75H58.593
		c0.392-0.594,0.773-1.103,1.148-1.523c0.875-1.062,2.487-2.555,4.84-4.477s4.026-3.332,5.026-4.23s1.98-2.141,2.941-3.727
		s1.441-3.348,1.441-5.285c0-1.234-0.23-2.426-0.691-3.574c-0.461-1.148-1.105-2.16-1.934-3.035
		c-0.829-0.875-1.789-1.562-2.883-2.062c-1.688-0.75-3.728-1.125-6.117-1.125c-1.984,0-3.715,0.293-5.191,0.879
		c-1.476,0.586-2.695,1.355-3.656,2.309c-0.961,0.954-1.684,2.016-2.168,3.188c-0.483,1.172-0.727,2.297-0.727,3.375
		c0,0.891,0.258,1.594,0.773,2.108C51.911,57.365,52.562,57.623,53.343,57.623z M85.305,21.063v17.864
		c0,0.053-0.021,0.101-0.025,0.152v46.419c0,2.896-2.357,5.256-5.256,5.256h-60.07c-2.898,0-5.256-2.357-5.256-5.256V30.433
		c0-0.082,0.02-0.158,0.023-0.238v-9.131c0-1.113,1.436-2.017,3.209-2.017h5.729v-3.762c0-3.332,2.709-6.04,6.039-6.04
		c3.33,0,6.039,2.708,6.039,6.04v3.762h9.459v-3.762c0-3.332,2.709-6.04,6.04-6.04c3.33,0,6.039,2.708,6.039,6.04v3.762h8.619
		v-3.762c0-3.332,2.709-6.04,6.039-6.04s6.039,2.708,6.039,6.04v3.762h4.125C83.866,19.047,85.305,19.95,85.305,21.063z
		 M68.896,19.047h6.069v-3.762c0-1.674-1.36-3.036-3.034-3.036c-1.675,0-3.035,1.362-3.035,3.036V19.047z M48.198,19.047h6.069
		v-3.762c0-1.674-1.36-3.036-3.035-3.036c-1.673,0-3.034,1.362-3.034,3.036V19.047z M26.659,19.047h6.072v-3.762
		c0-1.674-1.361-3.036-3.035-3.036c-1.674,0-3.037,1.362-3.037,3.036V19.047z M80.773,40.946H19.2v44.553
		c0,0.414,0.338,0.75,0.752,0.75h60.069c0.414,0,0.752-0.336,0.752-0.75V40.946z"/>
</g>
</svg>
