<?xml version="1.0" encoding="utf-8"?>
<!-- Generator: Adobe Illustrator 16.0.0, SVG Export Plug-In . SVG Version: 6.00 Build 0)  -->
<!DOCTYPE svg PUBLIC "-//W3C//DTD SVG 1.1//EN" "http://www.w3.org/Graphics/SVG/1.1/DTD/svg11.dtd">
<svg version="1.1" id="Layer_9" xmlns="http://www.w3.org/2000/svg" xmlns:xlink="http://www.w3.org/1999/xlink" x="0px" y="0px"
	 width="100px" height="100px" viewBox="0 0 100 100" enable-background="new 0 0 100 100" xml:space="preserve">
<path d="M80.833,19.188c-3.979-3.979-9.782-5.012-14.717-3.113l-6.117-6.117l-2.637,2.637L53.67,8.903l-3.428,3.428l3.691,3.692
	l-2.373,2.373l0.437,0.438L26.315,39.677c-0.529-0.171-1.093-0.265-1.679-0.265c-3.021,0-5.47,2.448-5.47,5.47
	c0,2.741,2.019,5.005,4.649,5.402l15.106,33.218c-1.454,0.412-2.687,1.003-3.579,1.714c-8.599,0.921-14.689,3.206-14.689,5.881
	h46.255c0-2.675-6.091-4.96-14.688-5.881c-1.533-1.22-4.063-2.084-7.009-2.299L29.249,47.815c0.54-0.849,0.858-1.853,0.858-2.934
	c0-0.193-0.011-0.384-0.03-0.572l26.162-21.233l1.692,1.692c-1.507,4.755-0.385,10.163,3.387,13.935l5.197-5.198
	c1.342,1.307,3.085,1.964,4.829,1.964c1.774,0,3.548-0.676,4.897-2.025c1.309-1.309,2.029-3.048,2.029-4.897
	c0-1.819-0.7-3.529-1.967-4.829L80.833,19.188z M76.779,28.546c0,1.451-0.565,2.816-1.592,3.843
	c-2.097,2.097-5.492,2.115-7.617,0.062l7.68-7.679C76.235,25.79,76.779,27.125,76.779,28.546z"/>
</svg>
