<?xml version="1.0" encoding="utf-8"?>
<!-- Generator: Adobe Illustrator 16.0.0, SVG Export Plug-In . SVG Version: 6.00 Build 0)  -->
<!DOCTYPE svg PUBLIC "-//W3C//DTD SVG 1.1//EN" "http://www.w3.org/Graphics/SVG/1.1/DTD/svg11.dtd">
<svg version="1.1" id="Layer_9" xmlns="http://www.w3.org/2000/svg" xmlns:xlink="http://www.w3.org/1999/xlink" x="0px" y="0px"
	 width="100px" height="100px" viewBox="0 0 100 100" enable-background="new 0 0 100 100" xml:space="preserve">
<path d="M11.833,18.5v63h76.334v-63H11.833z M83.167,60.151L66.817,76.5H31.232L16.833,62.101V37.483L30.816,23.5h39.017
	l13.334,13.333V60.151z M69.478,37.607l3.087,3.086c0.124,0.125,0.124,0.327,0,0.452L71.209,42.5c-0.125,0.125-0.327,0.125-0.452,0
	l-3.086-3.086c-0.125-0.125-0.125-0.327,0-0.452l1.355-1.355C69.15,37.482,69.353,37.482,69.478,37.607z M50.854,59.396
	c-0.079-0.078-0.112-0.192-0.087-0.3l2.214-5.375c0.014-0.059,0.043-0.112,0.085-0.155l0.075-0.075c0.125-0.125,0.327-0.125,0.452,0
	l3.087,3.087c0.125,0.125,0.125,0.327,0,0.452l-0.075,0.075c-0.041,0.041-0.092,0.07-0.147,0.084l-5.301,2.29
	C51.049,59.504,50.935,59.474,50.854,59.396z M67.37,39.714c-0.125-0.125-0.327-0.125-0.452,0L62.5,44.132V29.5H36.833v38H62.5
	V51.209l7.956-7.956c0.125-0.125,0.125-0.327,0-0.452L67.37,39.714z M61.5,45.132l-7.681,7.681c-0.125,0.125-0.125,0.327,0,0.452
	l3.087,3.086c0.125,0.125,0.326,0.125,0.452,0l4.142-4.142V66.5H37.833v-36H61.5V45.132z"/>
</svg>
