<?xml version="1.0" encoding="utf-8"?>
<!-- Generator: Adobe Illustrator 16.0.4, SVG Export Plug-In . SVG Version: 6.00 Build 0)  -->
<!DOCTYPE svg PUBLIC "-//W3C//DTD SVG 1.1//EN" "http://www.w3.org/Graphics/SVG/1.1/DTD/svg11.dtd">
<svg version="1.1" id="Capa_1" xmlns="http://www.w3.org/2000/svg" xmlns:xlink="http://www.w3.org/1999/xlink" x="0px" y="0px"
	 width="100px" height="100px" viewBox="0 0 100 100" enable-background="new 0 0 100 100" xml:space="preserve">
<g id="Layer_8">
	<path d="M59.949,18.449l-4.24-10.597h8.337l6.433,10.598L59.949,18.449L59.949,18.449z M57.096,18.449l-4.24-10.597h-5.712
		L42.905,18.45L57.096,18.449L57.096,18.449z M50,43.689l7.236-22.59H42.763L50,43.689z M44.29,7.852h-8.337L29.521,18.45H40.05
		L44.29,7.852z M65.993,26.131l4.065-5.031H60.018l-6.595,20.588l9.286-11.492c10.816,4.854,18.354,15.705,18.354,28.33
		C81.064,75.682,67.156,89.59,50,89.59c-17.157,0-31.065-13.908-31.065-31.064c0-12.623,7.532-23.481,18.345-28.341l9.295,11.504
		L39.981,21.1H29.942l4.06,5.025c-11.255,5.805-18.956,17.533-18.956,31.07c0,19.303,15.649,34.953,34.954,34.953
		c19.305,0,34.953-15.65,34.953-34.953C84.954,43.656,77.25,31.932,65.993,26.131z"/>
</g>
</svg>
