<?xml version="1.0" encoding="utf-8"?>
<!-- Generator: Adobe Illustrator 16.0.4, SVG Export Plug-In . SVG Version: 6.00 Build 0)  -->
<!DOCTYPE svg PUBLIC "-//W3C//DTD SVG 1.1//EN" "http://www.w3.org/Graphics/SVG/1.1/DTD/svg11.dtd">
<svg version="1.1" id="Capa_1" xmlns="http://www.w3.org/2000/svg" xmlns:xlink="http://www.w3.org/1999/xlink" x="0px" y="0px"
	 width="100px" height="100px" viewBox="0 0 100 100" enable-background="new 0 0 100 100" xml:space="preserve">
<g id="Layer_8">
	<g>
		<path d="M81.889,37.43c0.357-0.697,0.625-1.449,0.77-2.244V20.709H56.324v-6.367c0-0.828-0.672-1.5-1.5-1.5H31.658
			c-0.828,0-1.5,0.672-1.5,1.5v6.367H3.657v15.768c1.129,3.129,4.119,5.375,7.633,5.375h3.867V39.4h9.125v2.451h33.655
			c0.433-2.506,2.606-4.422,5.233-4.422L81.889,37.43L81.889,37.43z M53.324,20.709H33.158v-4.867h20.166V20.709z"/>
		<path d="M24.282,50.15h-9.125v-6.299H11.29c-3.046,0-5.775-1.359-7.633-3.496v35.354h54.188V43.852H24.282V50.15z"/>
		<path d="M88.297,41.055H65.093c-1.558,0-2.825,1.27-2.825,2.828v40.449c0,1.559,1.269,2.826,2.825,2.826h28.423
			c1.561,0,2.827-1.268,2.827-2.826V49.799L88.297,41.055z M88.964,45.285l3.527,3.834h-3.527V45.285z M93.971,84.332
			c0,0.25-0.205,0.453-0.455,0.453H65.093c-0.249,0-0.452-0.203-0.452-0.453V43.883c0-0.25,0.203-0.453,0.452-0.453H86.59v6.877
			c0,0.654,0.533,1.186,1.188,1.186h6.193V84.332z"/>
		<path d="M67.45,55.932c0,0.553,0.446,1,1,1H89.7c0.553,0,1-0.447,1-1s-0.447-1-1-1H68.45C67.896,54.932,67.45,55.379,67.45,55.932
			z"/>
		<path d="M89.7,63.682H68.45c-0.554,0-1,0.447-1,1s0.446,1,1,1H89.7c0.553,0,1-0.447,1-1S90.253,63.682,89.7,63.682z"/>
		<path d="M89.7,71.65H68.45c-0.554,0-1,0.447-1,1c0,0.554,0.446,1,1,1H89.7c0.553,0,1-0.446,1-1
			C90.7,72.098,90.253,71.65,89.7,71.65z"/>
	</g>
</g>
</svg>
