<?xml version="1.0" encoding="utf-8"?>
<!-- Generator: Adobe Illustrator 16.0.0, SVG Export Plug-In . SVG Version: 6.00 Build 0)  -->
<!DOCTYPE svg PUBLIC "-//W3C//DTD SVG 1.1//EN" "http://www.w3.org/Graphics/SVG/1.1/DTD/svg11.dtd">
<svg version="1.1" id="Layer_9" xmlns="http://www.w3.org/2000/svg" xmlns:xlink="http://www.w3.org/1999/xlink" x="0px" y="0px"
	 width="100px" height="100px" viewBox="0 0 100 100" enable-background="new 0 0 100 100" xml:space="preserve">
<path d="M80.021,86.108v-57.88c0-0.524-0.219-1.026-0.602-1.383L64.029,12.509c-0.35-0.327-0.811-0.507-1.287-0.507H21.869
	c-1.043,0-1.891,0.846-1.891,1.89v72.216c0,1.043,0.848,1.89,1.891,1.89h56.262C79.176,87.998,80.021,87.151,80.021,86.108z
	 M23.758,15.781h35.27v14.183c0,1.043,0.846,1.889,1.889,1.889h15.326v52.365H23.758V15.781z M75.195,28.075H62.807V16.534
	L75.195,28.075z M51.051,60.789c-1.693-1.857-4.709-3.238-9.205-4.214V43.853c2.57,0.583,3.945,2.279,4.193,5.167
	c0.027,0.326,0.301,0.576,0.629,0.576h5.42c0.004,0,0.01,0,0.012,0c0.316-0.021,0.645-0.278,0.645-0.629
	c0-0.086-0.018-0.167-0.049-0.241c-0.711-6.251-4.359-9.758-10.85-10.429V34.59c0-0.348-0.281-0.629-0.629-0.629H38.24
	c-0.348,0-0.629,0.281-0.629,0.629v3.716c-3.318,0.401-6.016,1.609-8.027,3.594c-2.146,2.116-3.232,4.933-3.232,8.371
	c0,6.002,3.787,9.869,11.26,11.497v14.257c-3.322-0.816-5.115-3.2-5.471-7.262c-0.029-0.325-0.301-0.574-0.629-0.574h-5.393
	c-0.176,0-0.342,0.072-0.463,0.2c-0.117,0.128-0.178,0.3-0.166,0.474c0.529,7.434,4.605,11.709,12.121,12.717v3.698
	c0,0.348,0.281,0.63,0.629,0.63h2.977c0.348,0,0.629-0.282,0.629-0.63v-3.724c3.59-0.317,6.463-1.688,8.549-4.079
	c2.188-2.507,3.297-5.494,3.297-8.879C53.691,65.336,52.803,62.709,51.051,60.789z M47.01,68.929c0,4.107-1.691,6.447-5.164,7.13
	V62.752c1.967,0.592,3.313,1.308,4.004,2.132C46.619,65.802,47.01,67.163,47.01,68.929z M33.004,49.854
	c0-3.283,1.51-5.264,4.607-6.035v11.817c-1.285-0.414-2.357-0.992-3.195-1.724C33.479,53.097,33.004,51.732,33.004,49.854z"/>
</svg>
