<?xml version="1.0" encoding="utf-8"?>
<!-- Generator: Adobe Illustrator 16.0.4, SVG Export Plug-In . SVG Version: 6.00 Build 0)  -->
<!DOCTYPE svg PUBLIC "-//W3C//DTD SVG 1.1//EN" "http://www.w3.org/Graphics/SVG/1.1/DTD/svg11.dtd">
<svg version="1.1" id="Capa_1" xmlns="http://www.w3.org/2000/svg" xmlns:xlink="http://www.w3.org/1999/xlink" x="0px" y="0px"
	 width="100px" height="100px" viewBox="0 0 100 100" enable-background="new 0 0 100 100" xml:space="preserve">
<g id="Layer_8">
	<path d="M55.354,68.534c0.69,0.823,1.037,2.002,1.037,3.532c0,3.738-1.699,5.818-5.1,6.246V66.502
		C53.309,67.033,54.661,67.71,55.354,68.534z M81.73,62.463c0,21.334-14.205,30.9-31.73,30.9c-17.525,0-31.73-9.566-31.73-30.9
		c0-17.627,13.939-32.041,23.975-36.975c-3.537,0.355-7.074,0.825-10.547,1.58c-1.24,0.269-7.258,1.197-6.99,3.204
		c0.059,0.439-0.631,0.434-0.689,0c-0.238-1.78,2.826-2.615,4.035-2.985c3.402-1.041,6.957-1.6,10.479-2.06
		c0.018-0.002,0.037-0.005,0.055-0.007c-1.436-0.018-2.873-0.104-4.287-0.286c-1.297-0.169-3.262-0.423-3.83-1.813
		c-0.168-0.412,0.498-0.59,0.664-0.184c0.512,1.252,3.25,1.349,4.328,1.437c1.336,0.109,2.672,0.15,4.012,0.151
		c1.189,0.001,2.396-0.105,3.605-0.274c-5.967-2.696-15.174-8.127-9.25-14.054c8.414-8.413,6.434,0.354,11.383,3.146
		c4.949,2.793,19.301-13.045,15.836-3.642c-1.48,4.023-3.688,8.316-5.727,11.913c0.328,0.089,0.637,0.246,0.912,0.496
		c0.758,0.686,1.258,1.504,0.733,2.471c-0.145,0.266-0.397,0.429-0.719,0.522c1.035,0.027,1.92-0.167,2.308-0.755
		c0.118-0.18,0.381-0.238,0.543-0.069c1.348,1.423,0.248,2.274-1.22,2.648C69.898,32.928,81.73,44.993,81.73,62.463z M55.27,25.721
		c0.496,0.212,0.994,0.434,1.492,0.666c0.041-0.003,0.076-0.001,0.119-0.006c0.748-0.083,2.523-0.348,1.951-1.318
		C58.059,25.753,56.689,25.882,55.27,25.721z M53.807,24.215c0.361,0.07,0.723,0.128,1.09,0.152c0.379,0.026,0.888,0.098,1.25-0.052
		c0.328-1.036,0.011-1.699-0.948-1.988c-0.089-0.022-0.173-0.033-0.259-0.047C54.553,22.954,54.172,23.603,53.807,24.215z
		 M60.695,71.802c0-2.473-0.655-4.426-1.965-5.86c-1.311-1.436-3.791-2.527-7.438-3.277V51.561c2.647,0.366,4.091,1.92,4.327,4.657
		h4.304c-0.515-4.944-3.392-7.617-8.631-8.014v-3.399H48.93v3.399c-2.737,0.25-4.911,1.17-6.522,2.76
		c-1.611,1.591-2.417,3.687-2.417,6.29c0,4.622,2.98,7.528,8.94,8.721v12.338c-3.237-0.543-5.019-2.655-5.342-6.334h-4.282
		c0.412,5.797,3.62,9.027,9.624,9.688v3.379h2.362v-3.422c2.943-0.162,5.246-1.194,6.909-3.103
		C59.863,76.618,60.695,74.377,60.695,71.802z M44.272,56.923c0,1.649,0.43,2.849,1.292,3.599c0.86,0.752,1.983,1.304,3.366,1.655
		V51.516C45.824,52.061,44.272,53.863,44.272,56.923z"/>
</g>
</svg>
