<?xml version="1.0" encoding="utf-8"?>
<!-- Generator: Adobe Illustrator 16.0.4, SVG Export Plug-In . SVG Version: 6.00 Build 0)  -->
<!DOCTYPE svg PUBLIC "-//W3C//DTD SVG 1.1//EN" "http://www.w3.org/Graphics/SVG/1.1/DTD/svg11.dtd">
<svg version="1.1" id="Capa_1" xmlns="http://www.w3.org/2000/svg" xmlns:xlink="http://www.w3.org/1999/xlink" x="0px" y="0px"
	 width="100px" height="100px" viewBox="0 0 100 100" enable-background="new 0 0 100 100" xml:space="preserve">
<g id="Layer_8">
	<path d="M50.613,30.037v-5.626c0.961,0.253,1.605,0.575,1.937,0.97c0.329,0.392,0.494,0.952,0.494,1.681
		C53.044,28.843,52.234,29.834,50.613,30.037z M90.711,79.434v7.303c0,0.713-0.578,1.289-1.289,1.289H10.578
		c-0.713,0-1.289-0.576-1.289-1.289v-7.303c0-0.713,0.576-1.289,1.289-1.289h5.37v-25.78H14.66c-0.714,0-1.289-0.577-1.289-1.289
		V26.197c0-0.712,0.575-1.289,1.289-1.289h11.171c0.712,0,1.289,0.577,1.289,1.289v3.394h9.452v-8.162c0-0.712,0.577-1.29,1.29-1.29
		h1.161c1.155-4.685,5.375-8.164,10.419-8.164c5.041,0,9.261,3.479,10.417,8.164h2.062c0.712,0,1.289,0.578,1.289,1.29v8.162h10.525
		v-3.394c0-0.712,0.578-1.289,1.289-1.289h11.173c0.711,0,1.29,0.577,1.29,1.289v24.877c0,0.712-0.579,1.289-1.29,1.289h-1.505
		v25.779h4.728C90.133,78.145,90.711,78.721,90.711,79.434z M28.385,57.021c0-0.556-0.45-1.006-1.006-1.006H22.86
		c-0.555,0-1.004,0.45-1.004,1.006v15.565c0,0.556,0.449,1.005,1.004,1.005h4.519c0.556,0,1.006-0.449,1.006-1.005V57.021z
		 M28.385,36.611c0-0.556-0.45-1.005-1.006-1.005H22.86c-0.555,0-1.004,0.449-1.004,1.005v15.567c0,0.555,0.449,1.004,1.004,1.004
		h4.519c0.556,0,1.006-0.449,1.006-1.004V36.611z M38.68,57.021c0-0.556-0.45-1.006-1.005-1.006h-4.52
		c-0.555,0-1.005,0.45-1.005,1.006v15.565c0,0.556,0.45,1.005,1.005,1.005h4.52c0.555,0,1.005-0.449,1.005-1.005V57.021z
		 M38.68,36.611c0-0.556-0.45-1.005-1.005-1.005h-4.52c-0.555,0-1.005,0.449-1.005,1.005v15.567c0,0.555,0.45,1.004,1.005,1.004
		h4.52c0.555,0,1.005-0.449,1.005-1.004V36.611z M49.49,24.162v5.875c-1.543-0.258-2.391-1.266-2.545-3.017h-2.041
		c0.197,2.761,1.727,4.3,4.586,4.614v1.61h1.123v-1.632c1.404-0.075,2.5-0.568,3.293-1.477c0.792-0.907,1.188-1.975,1.188-3.2
		c0-1.179-0.311-2.109-0.936-2.794c-0.624-0.683-1.805-1.203-3.545-1.56v-5.289c1.264,0.174,1.949,0.916,2.062,2.219h2.051
		c-0.246-2.355-1.615-3.629-4.111-3.817v-1.618H49.49v1.618c-1.304,0.119-2.34,0.557-3.108,1.314
		c-0.767,0.757-1.15,1.756-1.15,2.997C45.231,22.208,46.65,23.592,49.49,24.162z M58.7,36.896c0-0.712-0.577-1.289-1.289-1.289
		H42.803c-0.711,0-1.289,0.577-1.289,1.289v35.447c0,0.714,0.578,1.289,1.289,1.289h14.608c0.712,0,1.289-0.575,1.289-1.289V36.896z
		 M68.666,57.021c0-0.556-0.449-1.006-1.005-1.006h-4.521c-0.554,0-1.004,0.45-1.004,1.006v15.565c0,0.556,0.45,1.005,1.004,1.005
		h4.521c0.556,0,1.005-0.449,1.005-1.005V57.021z M68.666,36.611c0-0.556-0.449-1.005-1.005-1.005h-4.521
		c-0.554,0-1.004,0.449-1.004,1.005v15.567c0,0.555,0.45,1.004,1.004,1.004h4.521c0.556,0,1.005-0.449,1.005-1.004V36.611z
		 M78.96,57.021c0-0.556-0.448-1.006-1.005-1.006h-4.52c-0.555,0-1.004,0.45-1.004,1.006v15.565c0,0.556,0.449,1.005,1.004,1.005
		h4.52c0.557,0,1.005-0.449,1.005-1.005V57.021z M78.96,36.611c0-0.556-0.448-1.005-1.005-1.005h-4.52
		c-0.555,0-1.004,0.449-1.004,1.005v15.567c0,0.555,0.449,1.004,1.004,1.004h4.52c0.557,0,1.005-0.449,1.005-1.004V36.611z
		 M49.49,17.273c-1.48,0.259-2.219,1.118-2.219,2.574c0,0.787,0.205,1.358,0.615,1.715c0.409,0.357,0.944,0.621,1.604,0.788V17.273z
		"/>
</g>
</svg>
