<?xml version="1.0" encoding="utf-8"?>
<!-- Generator: Adobe Illustrator 16.0.0, SVG Export Plug-In . SVG Version: 6.00 Build 0)  -->
<!DOCTYPE svg PUBLIC "-//W3C//DTD SVG 1.1//EN" "http://www.w3.org/Graphics/SVG/1.1/DTD/svg11.dtd">
<svg version="1.1" id="Layer_9" xmlns="http://www.w3.org/2000/svg" xmlns:xlink="http://www.w3.org/1999/xlink" x="0px" y="0px"
	 width="100px" height="100px" viewBox="0 0 100 100" enable-background="new 0 0 100 100" xml:space="preserve">
<g>
	<polygon points="71.67,16.4 66.654,19.649 66.197,22.242 71.213,18.993 	"/>
	<polygon points="70.732,21.716 65.717,24.964 65.19,27.947 70.206,24.698 	"/>
	<polygon points="72.563,11.343 68.254,10.583 67.135,16.926 72.15,13.678 	"/>
	<path d="M58.279,38.412c-1.496,0-2.708,1.212-2.708,2.708c0,1.497,1.212,2.709,2.708,2.709c0.069,0,0.135-0.016,0.202-0.02
		c0.653,4.813-4.397,9.214-9.179,9.472c-5.387,0.291-7.621-4.926-8.067-9.529c1.197-0.28,2.09-1.349,2.09-2.631
		c0-1.495-1.212-2.708-2.708-2.708c-1.495,0-2.708,1.212-2.708,2.708c0,0.829,0.38,1.561,0.967,2.058
		c0.396,6.333,4.005,13.344,11.431,12.338c6.216-0.842,11.772-6.833,10.266-12.968c0.259-0.416,0.415-0.902,0.415-1.428
		C60.987,39.625,59.774,38.412,58.279,38.412z"/>
	<path d="M78.829,86.747c-1.991-7.839-7.883-34.746-0.104-51.861c0.008-0.017,0.009-0.035,0.016-0.052
		c0.042-0.1,0.073-0.201,0.095-0.306c0.006-0.026,0.015-0.051,0.02-0.076c0.021-0.13,0.028-0.262,0.021-0.394
		c-0.001-0.024-0.009-0.048-0.011-0.071c-0.011-0.106-0.031-0.211-0.063-0.315c-0.011-0.037-0.024-0.073-0.038-0.109
		c-0.034-0.091-0.077-0.179-0.127-0.265c-0.012-0.021-0.018-0.046-0.032-0.069c-0.008-0.013-0.021-0.021-0.028-0.034
		c-0.014-0.02-0.022-0.042-0.037-0.062l-5.594-7.522c-0.199-0.268-0.473-0.458-0.776-0.574c0.645,1.563,0.536,3.463-0.326,4.911
		l1.849,2.486H65.89l3.333-2.159l0.504-2.853l-5.016,3.249l-0.312,1.763h-5.256l2.568-4.05l0.585-0.95l-3.962-2.522l-9.534-6.046
		l-2.871,4.527l2.786,9.042h-1.441L41.438,13.49l-15.291,4.711l2.066,6.708H26.61c-0.651,0-1.248,0.364-1.545,0.944l-3.857,7.522
		c-0.017,0.033-0.024,0.068-0.04,0.102c-0.02,0.044-0.037,0.088-0.053,0.135c-0.028,0.083-0.049,0.167-0.063,0.252
		c-0.008,0.04-0.017,0.079-0.021,0.12c-0.011,0.113-0.013,0.225-0.002,0.337c0.001,0.015-0.001,0.029,0,0.044
		c0.015,0.126,0.046,0.251,0.088,0.372c0.004,0.01,0.004,0.02,0.007,0.03c8.218,22.36,2.433,45.586,0.464,52.172
		c-0.113,0.379-0.323,1.085,0.208,1.789c0.327,0.434,0.842,0.689,1.385,0.689h0.023c0.471-0.006,0.815-0.168,1.071-0.395h51.98
		c0.247,0.183,0.569,0.31,0.993,0.31c0.536,0,1.042-0.248,1.371-0.671C79.144,87.988,78.984,87.357,78.829,86.747z M27.672,28.382
		h1.611l1.248,4.05h-4.938L27.672,28.382z M25.583,85.551c2.293-8.679,6.271-29.232-0.392-49.646h49.365
		c-6.205,16.747-1.844,40.09,0.406,49.646H25.583z"/>
</g>
</svg>
