<?xml version="1.0" encoding="utf-8"?>
<!-- Generator: Adobe Illustrator 16.0.0, SVG Export Plug-In . SVG Version: 6.00 Build 0)  -->
<!DOCTYPE svg PUBLIC "-//W3C//DTD SVG 1.1//EN" "http://www.w3.org/Graphics/SVG/1.1/DTD/svg11.dtd">
<svg version="1.1" id="Layer_9" xmlns="http://www.w3.org/2000/svg" xmlns:xlink="http://www.w3.org/1999/xlink" x="0px" y="0px"
	 width="100px" height="100px" viewBox="0 0 100 100" enable-background="new 0 0 100 100" xml:space="preserve">
<path d="M89.768,27.857l0.054-0.135L54.65,13.396l-5.967,2.267c0.622,0.675,1.211,1.394,1.77,2.134l4.164-1.583l8.457,3.445
	c2.582-0.412,4.894-0.281,6.873,0.436c2.309,0.837,4.089,2.365,5.339,4.539l11.146,4.541l-9.148,3.608
	c-0.067,1.077-0.325,2.191-0.927,3.185l10.871-4.288v40.423L54.445,85.032V44.609l15.25-6.015c-1.378-0.174-2.841-0.576-4.369-1.096
	l-12.191,4.809l-11.723-4.624l5.783-2.635c-0.484-0.206-0.92-0.515-1.26-0.935c-0.514-0.633-0.769-1.415-0.729-2.222
	c-0.309-0.361-1.218-0.772-2.297-1.164l-9.251,3.896l-13.499-5.324l9.31-3.536c-0.734-0.602-1.321-1.309-1.726-2.149l-11.206,4.256
	l-0.12-0.047v0.092l-0.005,0.003l0.005,0.015v45.953l35.406,13.967v0.055h2.622v-0.055l35.406-13.967V27.824L89.768,27.857z
	 M31.17,76.887l-12.13-4.785V31.679l12.13,4.785V76.887z M51.823,85.032l-13.751-5.553l0.046-40.274l13.705,5.404V85.032z
	 M38.92,28.183c3.191,0.866,8.017,2.173,7.85,3.771c-0.113,1.08,0.672,2.047,1.752,2.16l0,0c0.562,0.059,1.09-0.13,1.487-0.472
	c0.111,0.098,0.227,0.194,0.364,0.267c0.964,0.502,2.152,0.132,2.655-0.828c0.019-0.039,0.055-0.063,0.081-0.097
	c0.48,0.276,1.072,0.356,1.639,0.155c0.25-0.089,0.47-0.226,0.656-0.394c2.021,0.37,4.863,1.469,6.863,2.241
	c2.904,1.121,5.714,2.205,8.088,2.452c1.706,0.179,3.186-0.078,4.313-1.063c2.382-2.081,1.429-6.074,1.118-7.387
	c-0.929-3.897-2.961-6.438-6.042-7.554c-5.023-1.82-11.6,0.814-16.323,3.404c-2.467-4.871-6.616-11.17-12.034-12.492
	c-3.184-0.777-6.281,0.214-9.213,2.947c-2.767,2.578-3.858,4.861-3.336,6.975C29.685,25.679,34.17,26.895,38.92,28.183z
	 M68.407,25.133c1.78,0.647,2.942,2.206,3.552,4.768c0.694,2.912,0.126,3.508,0.121,3.514c-0.91,0.793-5.778-1.089-8.396-2.098
	c-2.835-1.096-5.862-2.264-8.459-2.536c-0.046-0.114-0.092-0.228-0.144-0.349C59.367,26.063,64.857,23.854,68.407,25.133z
	 M34.857,18.171c1.927-1.796,3.755-2.448,5.597-2.002c3.813,0.929,7.306,6.22,9.564,10.701c-0.543,0.353-1.029,0.679-1.419,0.947
	c-2.117-1.65-5.505-2.577-8.651-3.432c-2.619-0.71-7.001-1.897-7.29-3.062C32.65,21.287,32.465,20.402,34.857,18.171z"/>
</svg>
