<?xml version="1.0" encoding="utf-8"?>
<!-- Generator: Adobe Illustrator 16.0.0, SVG Export Plug-In . SVG Version: 6.00 Build 0)  -->
<!DOCTYPE svg PUBLIC "-//W3C//DTD SVG 1.1//EN" "http://www.w3.org/Graphics/SVG/1.1/DTD/svg11.dtd">
<svg version="1.1" id="Layer_9" xmlns="http://www.w3.org/2000/svg" xmlns:xlink="http://www.w3.org/1999/xlink" x="0px" y="0px"
	 width="100px" height="100px" viewBox="0 0 100 100" enable-background="new 0 0 100 100" xml:space="preserve">
<path d="M72.664,76.237c0,1.817-1.472,3.29-3.29,3.29c-1.816,0-3.29-1.473-3.29-3.29s1.474-3.29,3.29-3.29
	C71.192,72.947,72.664,74.42,72.664,76.237z M80.066,76.237c0,5.896-4.797,10.693-10.693,10.693S58.68,82.133,58.68,76.237
	c0-5.028,3.493-9.246,8.177-10.382V55.264l-8.867-8.868v36.887c0,1.387-1.124,2.513-2.512,2.516l-35.539,0.003
	c-0.002,0-0.004,0-0.005,0l16.979-5.032l-0.2,0l16.244-16.244V30.633c0-0.667,0.266-1.307,0.737-1.779l17.298-17.298
	c0.981-0.983,2.576-0.983,3.558,0c0.983,0.982,0.983,2.576,0,3.558L57.989,31.676v7.604l13.162,13.163
	c0.473,0.472,0.737,1.112,0.737,1.779v11.634C76.573,66.991,80.066,71.208,80.066,76.237z M52.957,68.083L40.271,80.77l12.687,0.001
	V68.083z M76.292,76.237c0-3.815-3.104-6.919-6.919-6.919s-6.919,3.104-6.919,6.919c0,3.815,3.104,6.919,6.919,6.919
	S76.292,80.052,76.292,76.237z M48.15,79.866c1.046-0.162,1.85-1.059,1.85-2.149v-4.724l-6.729,6.88L48.15,79.866z M22.639,77.717
	V60.835c0-1.207,0.978-2.184,2.183-2.184h5.701c0.199-0.971,1.685-1.677,3.614-1.677h4.271c1.93,0,3.416,0.706,3.614,1.677h5.796
	c1.206,0,2.183,0.978,2.183,2.184v4.944L35.879,79.9H24.821C23.616,79.9,22.639,78.922,22.639,77.717z M31.462,58.651h9.619
	c-0.29-0.383-1.27-0.805-2.674-0.805h-4.271C32.731,57.846,31.752,58.268,31.462,58.651z"/>
</svg>
