<?xml version="1.0" encoding="utf-8"?>
<!-- Generator: Adobe Illustrator 16.0.0, SVG Export Plug-In . SVG Version: 6.00 Build 0)  -->
<!DOCTYPE svg PUBLIC "-//W3C//DTD SVG 1.1//EN" "http://www.w3.org/Graphics/SVG/1.1/DTD/svg11.dtd">
<svg version="1.1" id="Layer_9" xmlns="http://www.w3.org/2000/svg" xmlns:xlink="http://www.w3.org/1999/xlink" x="0px" y="0px"
	 width="100px" height="100px" viewBox="0 0 100 100" enable-background="new 0 0 100 100" xml:space="preserve">
<g>
	<path d="M71.889,66.98V55.346c0-0.667-0.265-1.307-0.737-1.779L57.989,40.405v-7.604L74.55,16.239c0.983-0.982,0.983-2.576,0-3.558
		c-0.981-0.983-2.576-0.983-3.558,0L53.694,29.979c-0.472,0.472-0.737,1.112-0.737,1.779V65.65L36.713,81.894l0.2,0l-16.979,5.032
		c0.001,0,0.003,0,0.005,0l35.539-0.003c1.388-0.002,2.512-1.128,2.512-2.516V47.521l8.867,8.868V66.98
		c-4.684,1.136-8.177,5.354-8.177,10.382c0,5.896,4.797,10.693,10.693,10.693s10.693-4.797,10.693-10.693
		C80.066,72.333,76.573,68.116,71.889,66.98z M52.957,81.896l-12.687-0.001l12.687-12.687V81.896z M69.373,84.281
		c-3.815,0-6.919-3.104-6.919-6.919c0-3.815,3.104-6.919,6.919-6.919s6.919,3.104,6.919,6.919
		C76.292,81.177,73.188,84.281,69.373,84.281z"/>
	<circle cx="69.374" cy="77.362" r="3.29"/>
	<polygon points="37.976,78.816 22.617,78.816 22.617,55.349 31.349,55.349 31.349,62.989 31.945,62.989 32.694,61.352 
		33.451,62.989 34.124,61.352 34.828,62.989 35.52,61.352 36.262,62.989 36.806,62.989 36.806,55.349 46.083,55.349 46.083,70.708 
		48.267,68.526 48.267,53.166 20.434,53.166 20.434,80.999 35.792,80.999 	"/>
	<polygon points="48.267,80.999 48.267,74.912 46.083,77.095 46.083,78.816 44.363,78.816 42.18,80.999 	"/>
</g>
</svg>
