<?xml version="1.0" encoding="utf-8"?>
<!-- Generator: Adobe Illustrator 16.0.0, SVG Export Plug-In . SVG Version: 6.00 Build 0)  -->
<!DOCTYPE svg PUBLIC "-//W3C//DTD SVG 1.1//EN" "http://www.w3.org/Graphics/SVG/1.1/DTD/svg11.dtd">
<svg version="1.1" id="Layer_9" xmlns="http://www.w3.org/2000/svg" xmlns:xlink="http://www.w3.org/1999/xlink" x="0px" y="0px"
	 width="100px" height="100px" viewBox="0 0 100 100" enable-background="new 0 0 100 100" xml:space="preserve">
<path d="M72.664,77.362c0,1.817-1.472,3.29-3.29,3.29c-1.816,0-3.29-1.473-3.29-3.29s1.474-3.29,3.29-3.29
	C71.192,74.072,72.664,75.545,72.664,77.362z M80.066,77.362c0,5.896-4.797,10.693-10.693,10.693S58.68,83.258,58.68,77.362
	c0-5.028,3.493-9.246,8.177-10.382V56.389l-8.867-8.868v36.887c0,1.387-1.124,2.513-2.512,2.516l-35.539,0.003
	c-0.002,0-0.004,0-0.005,0l16.979-5.032l-0.2,0L52.957,65.65V31.758c0-0.667,0.266-1.307,0.737-1.779l17.298-17.298
	c0.981-0.983,2.576-0.983,3.558,0c0.983,0.982,0.983,2.576,0,3.558L57.989,32.801v7.604l13.162,13.163
	c0.473,0.472,0.737,1.112,0.737,1.779V66.98C76.573,68.116,80.066,72.333,80.066,77.362z M52.957,69.208L40.271,81.895l12.687,0.001
	V69.208z M76.292,77.362c0-3.815-3.104-6.919-6.919-6.919s-6.919,3.104-6.919,6.919c0,3.815,3.104,6.919,6.919,6.919
	S76.292,81.177,76.292,77.362z"/>
</svg>
