<?xml version="1.0" encoding="utf-8"?>
<!-- Generator: Adobe Illustrator 16.0.4, SVG Export Plug-In . SVG Version: 6.00 Build 0)  -->
<!DOCTYPE svg PUBLIC "-//W3C//DTD SVG 1.1//EN" "http://www.w3.org/Graphics/SVG/1.1/DTD/svg11.dtd">
<svg version="1.1" id="Capa_1" xmlns="http://www.w3.org/2000/svg" xmlns:xlink="http://www.w3.org/1999/xlink" x="0px" y="0px"
	 width="100px" height="100px" viewBox="0 0 100 100" enable-background="new 0 0 100 100" xml:space="preserve">
<g id="Layer_8">
	<path d="M86.04,45.76L25.707,18.283c-1.065-0.483-2.32-0.012-2.804,1.054L13.788,27.4c-0.483,1.065-0.012,2.32,1.053,2.804
		l27.364,12.518c-0.509,2.186-0.431,4.421,0.159,6.502c-4.313,2.875-12.338,9.779-13.002,21.678H11.374
		c-0.879,0-1.589,0.712-1.589,1.589v7.829c0,0.877,0.71,1.589,1.589,1.589H80.68c0.877,0,1.588-0.712,1.588-1.589v-7.829
		c0-0.877-0.711-1.589-1.588-1.589h-23.4c1.063-1.989,2.883-4.946,5.271-7.271l12.456,5.807c6.538,3.047,9.119,0.215,12.165-6.322
		C90.218,56.576,92.578,48.805,86.04,45.76z M53.251,45.373c-1.462,0-2.646-1.186-2.646-2.647s1.185-2.647,2.646-2.647
		c1.463,0,2.647,1.186,2.647,2.647S54.714,45.373,53.251,45.373z M63.312,50.668c-1.463,0-2.647-1.186-2.647-2.647
		c0-1.463,1.187-2.647,2.647-2.647c1.463,0,2.646,1.185,2.646,2.647C65.959,49.482,64.773,50.668,63.312,50.668z"/>
</g>
</svg>
