<?xml version="1.0" encoding="utf-8"?>
<!-- Generator: Adobe Illustrator 16.0.0, SVG Export Plug-In . SVG Version: 6.00 Build 0)  -->
<!DOCTYPE svg PUBLIC "-//W3C//DTD SVG 1.1//EN" "http://www.w3.org/Graphics/SVG/1.1/DTD/svg11.dtd">
<svg version="1.1" id="Layer_9" xmlns="http://www.w3.org/2000/svg" xmlns:xlink="http://www.w3.org/1999/xlink" x="0px" y="0px"
	 width="100px" height="100px" viewBox="0 0 100 100" enable-background="new 0 0 100 100" xml:space="preserve">
<path d="M79.42,26.845L64.029,12.509c-0.35-0.327-0.811-0.507-1.287-0.507H21.869c-1.045,0-1.891,0.846-1.891,1.89v72.216
	c0,1.043,0.846,1.89,1.891,1.89h56.262c1.045,0,1.891-0.846,1.891-1.89v-57.88C80.021,27.703,79.803,27.202,79.42,26.845z
	 M62.805,16.534l12.391,11.541H62.805V16.534z M26.422,63.919h-2.664v-4.787h2.662c-0.02,0.574-0.029,1.344-0.029,2.331
	C26.391,62.501,26.4,63.312,26.422,63.919z M23.758,68.32h2.998c1.074,8.736,4.396,14.051,9.881,15.898H23.758V68.32z
	 M76.242,84.219H46.557c5.523-1.761,8.695-6.673,9.43-14.697l0.057-0.631h-7.041l-0.049,0.523c-0.639,6.667-3.1,9.908-7.52,9.908
	c-4.205,0-6.695-3.601-7.6-11.001h8.99l1.234-4.401H33.492c-0.023-0.597-0.033-1.42-0.033-2.456c0-0.987,0.01-1.768,0.031-2.331
	h9.527l1.234-4.401h-10.42c0.898-7.463,3.455-11.246,7.602-11.246c2.102,0,3.768,0.766,5.09,2.34c1.34,1.595,2.156,3.866,2.43,6.748
	l0.049,0.524h7.064l-0.082-0.65c-0.578-4.614-2.127-8.235-4.602-10.764c-2.498-2.549-5.846-3.843-9.949-3.843
	c-8.447,0-13.385,5.682-14.682,16.891h-2.994v-38.95h35.27v14.183c0,1.043,0.846,1.889,1.889,1.889h15.326V84.219z"/>
</svg>
