<?xml version="1.0" encoding="utf-8"?>
<!-- Generator: Adobe Illustrator 16.0.4, SVG Export Plug-In . SVG Version: 6.00 Build 0)  -->
<!DOCTYPE svg PUBLIC "-//W3C//DTD SVG 1.1//EN" "http://www.w3.org/Graphics/SVG/1.1/DTD/svg11.dtd">
<svg version="1.1" id="Capa_1" xmlns="http://www.w3.org/2000/svg" xmlns:xlink="http://www.w3.org/1999/xlink" x="0px" y="0px"
	 width="100px" height="100px" viewBox="0 0 100 100" enable-background="new 0 0 100 100" xml:space="preserve">
<g id="Layer_8">
	<path d="M87.288,16.299h2.933v-0.844h-2.979c-0.027-0.162-0.063-0.322-0.108-0.481l5.778-2.398l-0.382-0.916l-5.776,2.398
		c-0.106-0.189-0.229-0.364-0.36-0.529l3.311-3.309l-0.598-0.598l-3.303,3.302c-0.178-0.148-0.363-0.285-0.564-0.401l1.507-3.64
		l-0.918-0.381l-1.503,3.632c-0.219-0.063-0.44-0.103-0.667-0.128V9.319h-0.845v2.678c-0.244,0.022-0.488,0.059-0.732,0.127
		l-2.156-5.193l-0.917,0.381l2.154,5.193c-0.21,0.118-0.405,0.258-0.589,0.406l-2.91-2.91l-0.598,0.598l2.904,2.904
		c-0.076,0.096-0.154,0.19-0.223,0.293l-3.586-1.481l-0.378,0.918l3.532,1.459c-0.086,0.247-0.144,0.505-0.183,0.766l-2.678-0.002
		V16.3h2.642c0.016,0.293,0.053,0.586,0.135,0.88l-5.496,2.281l0.379,0.916l5.498-2.281c0.051,0.091,0.113,0.171,0.168,0.257
		L49.102,49.028c-0.059-0.006-0.114-0.014-0.174-0.014c-7.474,0.142-8.188,0.855-8.614,1.28L8.078,82.531
		c-1.317,1.318-1.317,3.458,0,4.775l4.776,4.776c1.317,1.315,3.458,1.313,4.775,0l32.235-32.237
		c0.474-0.472,1.189-1.188,0.781-9.229c-0.011-0.213-0.063-0.415-0.146-0.6l30.487-30.486c0.074,0.046,0.145,0.099,0.221,0.141
		l-1.564,3.788l0.918,0.379l1.567-3.796c0.224,0.06,0.454,0.094,0.685,0.115v2.925h0.845v-2.937c0.209-0.025,0.419-0.062,0.628-0.12
		l2.521,6.079l0.918-0.379l-2.522-6.081c0.192-0.108,0.375-0.232,0.545-0.368l3.558,3.558L89.9,22.24l-3.56-3.562
		c0.218-0.263,0.41-0.545,0.556-0.853l3.844,1.59l0.379-0.916l-3.896-1.613C87.262,16.694,87.279,16.499,87.288,16.299z"/>
</g>
</svg>
