<?xml version="1.0" encoding="utf-8"?>
<!-- Generator: Adobe Illustrator 16.0.0, SVG Export Plug-In . SVG Version: 6.00 Build 0)  -->
<!DOCTYPE svg PUBLIC "-//W3C//DTD SVG 1.1//EN" "http://www.w3.org/Graphics/SVG/1.1/DTD/svg11.dtd">
<svg version="1.1" id="Layer_9" xmlns="http://www.w3.org/2000/svg" xmlns:xlink="http://www.w3.org/1999/xlink" x="0px" y="0px"
	 width="100px" height="100px" viewBox="0 0 100 100" enable-background="new 0 0 100 100" xml:space="preserve">
<path d="M84.62,40.579l-5.787-21.422c-0.177-0.654-0.452-1.272-0.782-1.854c0.49-0.701,0.782-1.55,0.782-2.47
	c0-2.388-1.936-4.323-4.323-4.323H24.985c-2.388,0-4.323,1.936-4.323,4.323c0,1.195,0.484,2.276,1.269,3.059
	c-0.322,0.571-0.589,1.179-0.763,1.82l-5.786,21.422c-0.783,2.9,0.355,5.348,2.584,5.931v42.424h64.433v-43.12
	C84.375,45.62,85.357,43.311,84.62,40.579z M66.059,22.747l4.889,18.099c0.076,0.282,0.188,0.552,0.295,0.823
	c-2.183,3.575-5.356,5.128-8.813,4.268c-3.035-0.753-5.152-3.082-5.198-4.734V23.581c0-0.285-0.043-0.56-0.085-0.834H66.059z
	 M29.054,41.402l5.039-18.655h8.484c-0.043,0.274-0.085,0.549-0.085,0.834v17.953l-0.01-0.005c-2.018,3.816-5.136,5.519-8.551,4.67
	c-2.831-0.702-4.805-2.888-4.805-4.409h-0.213C28.958,41.659,29.018,41.535,29.054,41.402z M64.184,85.086H29.422V71.182h6.238
	c0.598-1.35,1.944-2.294,3.516-2.294c1.569,0,2.917,0.944,3.514,2.294h12.696c0.179-1.959,1.808-3.499,3.813-3.499
	c2.004,0,3.634,1.54,3.812,3.499h1.174V85.086z M36.579,66.176c0-1.497,1.215-2.711,2.712-2.711s2.711,1.214,2.711,2.711
	c0,1.498-1.214,2.712-2.711,2.712S36.579,67.674,36.579,66.176z M56.603,64.971c0-1.497,1.214-2.711,2.711-2.711
	s2.711,1.214,2.711,2.711c0,1.498-1.214,2.712-2.711,2.712S56.603,66.469,56.603,64.971z M79.062,86.152h-4.264V58.02H25.854v28.133
	h-4.551V47.247l0.979,0.019c2.319,0.047,4.737-1.695,6.046-4.116c0.748,1.81,2.844,3.512,5.336,4.13
	c0.487,0.121,1.166,0.239,1.963,0.239c1.964,0,4.637-0.722,6.873-3.888c0.042,3.017,2.508,4.376,5.554,4.376h3.615
	c2.627,0,4.814-1.827,5.398-4.275c1.076,1.48,2.955,2.755,5.096,3.285c0.521,0.13,1.25,0.256,2.103,0.256
	c2.157,0,5.11-0.817,7.544-4.429c1.336,2.29,3.67,3.91,5.909,3.866l1.343-0.026V86.152z"/>
</svg>
