<?xml version="1.0" encoding="utf-8"?>
<!-- Generator: Adobe Illustrator 16.0.0, SVG Export Plug-In . SVG Version: 6.00 Build 0)  -->
<!DOCTYPE svg PUBLIC "-//W3C//DTD SVG 1.1//EN" "http://www.w3.org/Graphics/SVG/1.1/DTD/svg11.dtd">
<svg version="1.1" id="Layer_9" xmlns="http://www.w3.org/2000/svg" xmlns:xlink="http://www.w3.org/1999/xlink" x="0px" y="0px"
	 width="100px" height="100px" viewBox="0 0 100 100" enable-background="new 0 0 100 100" xml:space="preserve">
<path d="M51.016,84.267v0.542c0,0.318-0.064,0.618-0.167,0.901c0.104,0.239,0.167,0.381,0.167,0.381c0,2.764-2.24,5.003-5.004,5.003
	H42.01c-2.764,0-5.004-2.239-5.004-5.003l-6.004-30.889l14.01-0.094c-2.231,4.162-1.42,7.85,0.223,14.346
	c0.969,0.404,1.649,1.361,1.649,2.477v0.543c0,0.517-0.152,0.993-0.405,1.402c0.157,0.506,0.315,1.003,0.475,1.492
	c0.966,0.407,1.645,1.362,1.645,2.477v0.543c0,0.382-0.083,0.746-0.228,1.075c0.299,0.82,0.589,1.585,0.859,2.282
	C50.269,82.116,51.016,83.101,51.016,84.267z M84.669,36.349c0-3.055-1.663-5.715-4.129-7.143V11.509
	c0-1.162-0.741-2.194-1.841-2.566c-1.102-0.373-2.917,2.374-8.826,7.114c-5.909,4.739-26.824,3.584-40.028,3.81
	c-3.428,0-6.249,2.637-6.55,5.987c-1.382,0.591-2.352,1.961-2.352,3.56v0.773h-0.355v0.316c-2.484,0.781-4.288,3.103-4.288,5.846
	c0,2.742,1.804,5.063,4.288,5.846v0.316h0.355v0.773c0,1.599,0.97,2.969,2.352,3.559c0.301,3.352,3.122,5.987,6.55,5.987
	c13.204,0.226,34.119-0.93,40.028,3.811c5.909,4.739,7.725,7.487,8.826,7.113c1.1-0.371,1.841-1.404,1.841-2.565V43.491
	C83.006,42.063,84.669,39.402,84.669,36.349z"/>
</svg>
