<?xml version="1.0" encoding="utf-8"?>
<!-- Generator: Adobe Illustrator 16.0.4, SVG Export Plug-In . SVG Version: 6.00 Build 0)  -->
<!DOCTYPE svg PUBLIC "-//W3C//DTD SVG 1.1//EN" "http://www.w3.org/Graphics/SVG/1.1/DTD/svg11.dtd">
<svg version="1.1" id="Capa_1" xmlns="http://www.w3.org/2000/svg" xmlns:xlink="http://www.w3.org/1999/xlink" x="0px" y="0px"
	 width="100px" height="100px" viewBox="0 0 100 100" enable-background="new 0 0 100 100" xml:space="preserve">
<g id="Layer_8">
	<path d="M67.707,50.207c-1.869-0.615-4.764-0.066-6.729-0.066c-1.73,0-3.783,0.295-5.603,0.08
		c-0.446-0.133-0.914-0.227-1.416-0.268c-0.582-0.047-0.651,0.822-0.133,0.982c0.418,0.129,0.856,0.205,1.305,0.262
		c1.56,0.5,2.679,1.643,3.986,2.664c-0.263,0.041-0.535,0.113-0.83,0.178c-1.158,0.25-2.615,0.07-3.733-0.225
		c-0.416-0.111-1.052-0.244-1.478-0.095c-0.647,0.229-1.177,0.527-1.767,0.894c-2.153,1.338-2.414-1.156-2.805-2.117
		c-0.236-0.582-0.764-0.973-1.4-0.973c-1.771,0-3.592,2.008-4.553,3.531c-1.008,0.252-5.17,0.821-5.715,0.403
		c-0.096-0.074-0.217-0.078-0.332-0.056c0.559-0.961,1.213-1.866,1.141-3.075c-0.014-0.254-0.217-0.525-0.5-0.5
		c-1.531,0.139-3.037,0.438-4.545,0.725c0.068-0.879,0.102-1.764,0.107-2.662c0.006-0.645-0.994-0.645-1,0
		c-0.006,0.961-0.041,1.908-0.121,2.854c-1.119,0.203-2.24,0.379-3.379,0.459c-0.637,0.045-0.648,1.025,0,1
		c1.242-0.049,2.4,0.359,3.068,1.502c0.209,0.355,0.826,0.316,0.914-0.119c0.137-0.674,0.23-1.344,0.307-2.014
		c1.365-0.26,2.73-0.527,4.115-0.684c-0.223,1.567-1.662,2.809-1.842,4.438c-0.047,0.432,0.582,0.666,0.854,0.354
		c0.205-0.236,0.777-1.375,1.168-0.875c0.23,0.293,0.828,0.305,1.174,0.245c0.859-0.146,1.482-0.756,2.367-0.725
		c0.748,0.024,1.381-0.045,2.064-0.203c0.217,0.185,0.566,0.213,0.742-0.106c0.471-0.849,3.715-4.943,4.582-2.808
		c0.555,1.36,0.514,2.26,1.963,2.847c0.436,0.176,1.043-0.08,1.441-0.218c1.336-0.463,2.201-1.313,3.806-0.891
		c1.125,0.297,4.479-0.546,5.018,0.584c0.678,1.42,2.953,0.905,2.004-0.607c-0.684-1.092-2.346-1.979-3.297-2.786
		c-0.367-0.313-0.734-0.599-1.111-0.854c1.172-0.039,2.346-0.146,3.432-0.146c1.646,0,3.293,0,4.939,0
		c1.992,0,1.551,0.816,0.986,2.123c-0.252,0.584,0.609,1.094,0.863,0.504C68.314,52.502,69.613,50.834,67.707,50.207z
		 M31.404,54.283c-0.172-0.156-0.359-0.291-0.555-0.412c0.209-0.035,0.42-0.07,0.629-0.109
		C31.457,53.936,31.43,54.111,31.404,54.283z M57.398,69.016c-2.439-0.149-3.439-1.701-5.537,0.18
		c-0.816,0.734-1.182,1.326-2.346,1.775c0.098-0.037-1.951,0.207-2.215,0.246c-0.303,0.043-0.666,0.219-0.881,0.445
		c-1.227,1.303-2.795,1.506-4.371,0.77c-1.354-0.631-3.111-1.166-4.859-1.287c0.223-1.494,0.365-3.571-0.596-3.735
		c-1-0.17-1.74,0.393-2.559,0.928c-1.689,1.104-1.209-1.264-1.908-1.86c-1.59-1.365-3.584,1.389-4.793,2.172
		c-0.539,0.348-0.037,1.215,0.506,0.862c0.674-0.438,3.555-3.536,3.764-1.44c0.063,0.633,0.102,1.658,0.955,1.734
		c1.033,0.092,3.629-1.908,3.682-0.585c0.025,0.632-0.031,1.271-0.092,1.904c-1.652,0.058-3.223,0.558-4.354,1.789
		c-0.227,0.246-0.176,0.776,0.221,0.836c1.471,0.213,4.51,0.983,4.938-1.246c0.018-0.088,0.041-0.217,0.068-0.36
		c0.877-0.007,1.729,0.071,2.438,0.194c0.947,0.162,1.713,0.787,2.566,1.185c0.826,0.387,1.895,0.371,2.781,0.387
		c0.477,0.008,1.232-0.248,1.543-0.639c1.145-1.439,2.855-0.785,4.191-1.631c0.774-0.488,1.383-1.082,2.026-1.734
		c1.459-1.475,3.269,0.016,4.83,0.113C58.043,70.055,58.039,69.055,57.398,69.016z M33.334,72.975
		c0.748-0.442,1.664-0.682,2.619-0.779C35.521,73.215,34.355,73.148,33.334,72.975z M29.691,39.43
		c0.047,0.111,0.086,0.209,0.115,0.279c0.268,0.623,0.611,1.066,1.215,1.363c0.264,0.129,0.684,0.164,0.945,0.018
		c0.785-0.445,0.926-0.846,1.805-0.33c0.684,0.4,1.584,0.041,2.225,0.58c0.465,0.391,0.586,0.541,1.215,0.613
		c0.641,0.072,0.635-0.928,0-1c-0.559-0.064-0.961-0.803-1.584-0.896c-0.566-0.086-1.094,0.055-1.605-0.395
		c-0.205-0.18-0.266-0.361-0.557-0.377c-0.662-0.031-2.166,0.98-2.6,0.316c-0.342-0.527-0.473-1.227-0.85-1.74
		c0.201-1.4,0.203-2.852,0.133-4.221c-0.031-0.643-1.031-0.645-1,0c0.061,1.162,0.074,2.387-0.053,3.582
		c-2.012-0.521-2.674,4.727-2.76,5.918c-0.033,0.477,0.551,0.605,0.854,0.354C28.498,42.408,29.26,40.984,29.691,39.43z
		 M28.402,38.684c0.178-0.355,0.359-0.441,0.531-0.379c-0.238,1.234-0.676,2.404-1.428,3.4
		C27.67,40.656,27.939,39.607,28.402,38.684z M84.629,25.209l-48.539-9.66l-0.117-0.023l-15.908,0.029l-4.711-0.006v68.926h69.292
		V26.883L84.629,25.209z M80.67,28.354c-0.736,3.148-2.85,9.508-8.334,12.777c-4.553-4.09-18.875-13.865-28.457-20.285L80.67,28.354
		z M81.012,80.84H18.988V19.191l0.803-0.002l15.059,0.02c8.477,5.594,21.23,14.189,29.1,19.957c-0.951-0.213-1.81-0.168-2.783,0.072
		c-1.644,0.406-2.203,1.682-3.951,0.346c-0.644-0.49-1.338-0.451-2.075-0.338c-0.582,0.09-1.205,0.428-1.769,0.607
		c-1.158,0.375-1.849-0.508-2.595-1.082c-0.223-0.172-0.552-0.027-0.686,0.18c-1.295,2.031-2.932,0.713-4.488,0.006
		c-0.494-1.379-1.131-2.668-2.293-3.014c-0.803-0.24-1.553,0.324-1.768,1.127c-0.354,1.307,1.113,1.695,1.629,2.422
		c-0.066,0.352-0.021,0.75,0.121,1.094c0.184,0.449,0.795,0.498,0.963,0c0.086-0.256,0.119-0.475,0.129-0.686
		c0.104-0.021,0.244-0.008,0.4,0.027c0.35,0.955,0.66,1.922,1.182,2.777c0.336,0.549,1.201,0.047,0.863-0.504
		c-0.277-0.455-0.504-1.088-0.732-1.777c0.752,0.27,1.574,0.563,2.373,0.572c1.156,0.016,1.619-0.295,2.158-1.055
		c0.457,0.414,0.971,0.91,1.57,0.959c1.504,0.123,3.092-1.186,4.51-0.453c0.842,0.434,1.174,1.102,2.174,1.008
		c0.256-0.023,0.516-0.189,0.732-0.289c1.547-0.711,2.533-1.475,4.338-0.98c0.402,0.109,0.65-0.252,0.613-0.568
		c3.055,2.256,5.283,4.029,6.086,4.943l0.908,1.033L72.805,45c3.828-1.838,6.437-4.738,8.207-7.688V80.84z M44.229,38.592
		c-0.139,0.004-0.264,0.023-0.373,0.061c-0.254-0.25-0.643-0.439-0.928-0.609c-0.936-0.555,0.1-1.389,0.848-0.26
		C43.949,38.043,44.094,38.314,44.229,38.592z"/>
</g>
</svg>
