<?xml version="1.0" encoding="utf-8"?>
<!-- Generator: Adobe Illustrator 16.0.4, SVG Export Plug-In . SVG Version: 6.00 Build 0)  -->
<!DOCTYPE svg PUBLIC "-//W3C//DTD SVG 1.1//EN" "http://www.w3.org/Graphics/SVG/1.1/DTD/svg11.dtd">
<svg version="1.1" id="Capa_1" xmlns="http://www.w3.org/2000/svg" xmlns:xlink="http://www.w3.org/1999/xlink" x="0px" y="0px"
	 width="100px" height="100px" viewBox="0 0 100 100" enable-background="new 0 0 100 100" xml:space="preserve">
<g id="Layer_8">
	<path d="M88.934,28.325H11.067c-1.381,0-2.5,1.119-2.5,2.5v38.35c0,1.382,1.119,2.5,2.5,2.5h77.865c1.381,0,2.5-1.118,2.5-2.5
		v-38.35C91.434,29.444,90.312,28.325,88.934,28.325z M86.434,58.792c-0.692-0.29-1.453-0.45-2.25-0.45
		c-3.231,0-5.852,2.619-5.852,5.85c0,0.891,0.204,1.729,0.561,2.483H20.959c0.354-0.755,0.559-1.594,0.559-2.483
		c0-3.229-2.619-5.85-5.85-5.85c-0.741,0-1.448,0.145-2.101,0.395V40.881c0.652,0.251,1.359,0.395,2.101,0.395
		c3.23,0,5.85-2.619,5.85-5.85c0-0.741-0.144-1.448-0.395-2.101h57.604c-0.252,0.652-0.396,1.359-0.396,2.101
		c0,3.23,2.619,5.85,5.851,5.85c0.799,0,1.559-0.16,2.25-0.449v17.965H86.434z M37.958,41.309h5.497
		c-2.744,2.034-4.531,5.288-4.531,8.967c0,3.361,1.493,6.369,3.844,8.416h-4.81v5.5h24.084v-5.5h-4.628
		c2.352-2.047,3.844-5.055,3.844-8.416c0-3.679-1.787-6.933-4.531-8.967h5.315v-5.5H37.958V41.309z M45.043,50.979h0.909
		c-0.015-0.191-0.021-0.514-0.021-0.962c0-0.435,0.007-0.741,0.021-0.92h-0.909v-1.037h0.983c0.371-3.571,1.868-5.357,4.492-5.357
		c1.256,0,2.265,0.389,3.026,1.166c0.763,0.776,1.233,1.882,1.412,3.314h-1.872c-0.085-0.955-0.354-1.704-0.807-2.246
		c-0.453-0.541-1.041-0.813-1.76-0.813c-1.47,0-2.343,1.313-2.621,3.936h2.931l-0.289,1.037h-2.717
		c-0.014,0.179-0.021,0.485-0.021,0.92c0,0.449,0.007,0.771,0.021,0.962h2.899l-0.29,1.026h-2.534
		c0.278,2.574,1.151,3.86,2.621,3.86c1.504,0,2.358-1.102,2.565-3.305h1.872c-0.293,3.158-1.771,4.737-4.438,4.737
		c-2.604,0-4.101-1.765-4.493-5.294h-0.983L45.043,50.979L45.043,50.979z"/>
</g>
</svg>
