<?xml version="1.0" encoding="utf-8"?>
<!-- Generator: Adobe Illustrator 16.0.4, SVG Export Plug-In . SVG Version: 6.00 Build 0)  -->
<!DOCTYPE svg PUBLIC "-//W3C//DTD SVG 1.1//EN" "http://www.w3.org/Graphics/SVG/1.1/DTD/svg11.dtd">
<svg version="1.1" id="Capa_1" xmlns="http://www.w3.org/2000/svg" xmlns:xlink="http://www.w3.org/1999/xlink" x="0px" y="0px"
	 width="100px" height="100px" viewBox="0 0 100 100" enable-background="new 0 0 100 100" xml:space="preserve">
<g id="Layer_8">
	<path d="M50.002,15.86C31.146,15.86,15.86,31.146,15.86,50c0,18.855,15.286,34.141,34.142,34.141
		c18.854,0,34.139-15.285,34.139-34.141C84.141,31.146,68.855,15.86,50.002,15.86z M50.002,76.553
		c-14.667,0-26.554-11.889-26.554-26.553c0-14.665,11.887-26.553,26.554-26.553c14.663,0,26.553,11.888,26.553,26.553
		C76.555,64.664,64.665,76.553,50.002,76.553z M49.351,30.179h6.961v39.894h-8.338V43.187c-1.816,0.549-4.021,0.819-6.658,0.819
		H39.42v-7.371h1.896c6.094,0,7.337-2.807,7.742-4.917L49.351,30.179z"/>
</g>
</svg>
