<?xml version="1.0" encoding="utf-8"?>
<!-- Generator: Adobe Illustrator 16.0.4, SVG Export Plug-In . SVG Version: 6.00 Build 0)  -->
<!DOCTYPE svg PUBLIC "-//W3C//DTD SVG 1.1//EN" "http://www.w3.org/Graphics/SVG/1.1/DTD/svg11.dtd">
<svg version="1.1" id="Capa_1" xmlns="http://www.w3.org/2000/svg" xmlns:xlink="http://www.w3.org/1999/xlink" x="0px" y="0px"
	 width="100px" height="100px" viewBox="0 0 100 100" enable-background="new 0 0 100 100" xml:space="preserve">
<g id="Layer_8">
	<path d="M36.25,55.359h5.497c-2.745,2.033-4.531,5.287-4.531,8.967c0,3.361,1.493,6.369,3.844,8.416h-4.81v5.5h24.083v-5.5h-4.627
		c2.351-2.047,3.843-5.055,3.843-8.416c0-3.68-1.787-6.934-4.531-8.967h5.315v-5.5H36.25V55.359z M44.4,61.035
		c0-2.284,1.851-4.137,4.135-4.137c2.283,0,4.135,1.853,4.135,4.137c0,1.454-0.752,2.73-1.888,3.468
		c2.157,0.796,3.698,2.865,3.698,5.299H43.174c0-2.3,1.375-4.274,3.346-5.157C45.256,63.938,44.4,62.587,44.4,61.035z
		 M92.684,44.066c-1.431-5.703-5.867-10.676-10.156-15.484c0,0-8.991-7.814-10.084-14.308c-0.494,2.708-1.332,7.319,3.803,13.551
		c6.402,7.319,7.135,12.086,6.846,14.551h-6.531c-0.059-1.123,0.129-2.406,0.334-3.77c0.424-2.843,0.905-6.065-0.846-8.703
		l-0.14-0.21v0.253c0.005,3.812-1.511,5.305-3.267,7.034c-0.961,0.948-1.844,1.998-2.795,3.378
		c-0.468,0.679-0.859,1.351-1.219,2.018H9.359c-1.381,0-2.5,1.119-2.5,2.5v38.351c0,1.381,1.119,2.5,2.5,2.5h77.866
		c1.381,0,2.5-1.119,2.5-2.5V57.111c0.274-0.271,0.539-0.549,0.779-0.846C92.988,53.218,93.723,49.112,92.684,44.066z
		 M84.725,72.843c-0.692-0.29-1.453-0.45-2.25-0.45c-3.23,0-5.85,2.619-5.85,5.851c0,0.89,0.204,1.729,0.559,2.483H19.25
		c0.355-0.756,0.559-1.595,0.559-2.483c0-3.229-2.619-5.851-5.85-5.851c-0.741,0-1.448,0.145-2.101,0.396V54.932
		c0.653,0.252,1.359,0.396,2.101,0.396c3.231,0,5.85-2.619,5.85-5.85c0-0.741-0.144-1.448-0.395-2.101h57.604
		c-0.25,0.652-0.395,1.359-0.395,2.101c0,3.23,2.619,5.85,5.85,5.85c0.799,0,1.559-0.16,2.25-0.449v17.965H84.725z"/>
</g>
</svg>
