<?xml version="1.0" encoding="utf-8"?>
<!-- Generator: Adobe Illustrator 16.0.4, SVG Export Plug-In . SVG Version: 6.00 Build 0)  -->
<!DOCTYPE svg PUBLIC "-//W3C//DTD SVG 1.1//EN" "http://www.w3.org/Graphics/SVG/1.1/DTD/svg11.dtd">
<svg version="1.1" id="Capa_1" xmlns="http://www.w3.org/2000/svg" xmlns:xlink="http://www.w3.org/1999/xlink" x="0px" y="0px"
	 width="100px" height="100px" viewBox="0 0 100 100" enable-background="new 0 0 100 100" xml:space="preserve">
<g id="Layer_8">
	<path d="M91.434,40.224v38.35c0,1.381-1.119,2.5-2.5,2.5H11.067c-1.381,0-2.5-1.119-2.5-2.5v-38.35c0-1.381,1.119-2.5,2.5-2.5
		h5.708l-0.637,4.871c-0.129,0.984,0.212,1.991,0.917,2.701c0.609,0.609,1.42,0.945,2.281,0.945l2.066-0.268
		c-0.534,2.681-2.898,4.701-5.736,4.701c-0.74,0-1.447-0.145-2.1-0.395v17.856c0.652-0.251,1.359-0.395,2.1-0.395
		c3.231,0,5.851,2.619,5.851,5.85c0,0.889-0.204,1.729-0.56,2.483h57.934c-0.354-0.755-0.56-1.595-0.56-2.483
		c0-3.23,2.619-5.85,5.851-5.85c0.797,0,1.557,0.16,2.25,0.449V50.225c-0.693,0.289-1.453,0.45-2.25,0.45
		c-3.23,0-5.851-2.619-5.851-5.85c0-0.741,0.144-1.448,0.396-2.101h-35.2c0.706-0.503,1.199-1.28,1.319-2.167
		c0.155-1.073-0.244-2.127-1.009-2.833h22.347c-0.875-1.55-1.949-2.999-3.236-4.287c-7.467-7.466-19.432-7.714-27.224-0.788
		l-3.012,3.012l8.959,3.885c0.301,0.13,0.478,0.445,0.431,0.769c-0.044,0.324-0.301,0.578-0.626,0.62l-22.313,2.917
		c-0.224,0.029-0.448-0.045-0.609-0.207c-0.159-0.16-0.235-0.385-0.206-0.608l2.917-22.313c0.021-0.165,0.096-0.309,0.206-0.42
		c0.109-0.11,0.253-0.184,0.413-0.207c0.324-0.046,0.64,0.131,0.771,0.432l3.884,8.958l2.188-2.175l-0.032-0.033
		c0.779-0.78,1.598-1.5,2.44-2.17c0.556-0.45,1.19-0.936,1.716-1.263c11.115-7.551,26.412-6.412,36.255,3.433
		c2.996,2.995,5.229,6.568,6.637,10.445h13.191C90.312,37.724,91.434,38.843,91.434,40.224z M37.958,68.09h4.81
		c-2.351-2.047-3.844-5.055-3.844-8.417c0-3.679,1.786-6.932,4.531-8.967h-5.497v-5.5h24.084v5.5h-5.315
		c2.744,2.035,4.53,5.288,4.53,8.967c0,3.362-1.491,6.369-3.843,8.417h4.628v5.5H37.958V68.09z M48.228,59.992
		c-1.971,0.884-3.346,2.857-3.346,5.158h11.308c0-2.435-1.541-4.504-3.697-5.299c1.135-0.737,1.887-2.015,1.887-3.469
		c0-2.283-1.852-4.135-4.135-4.135s-4.135,1.852-4.135,4.135C46.108,57.936,46.964,59.285,48.228,59.992z"/>
</g>
</svg>
