<?xml version="1.0" encoding="utf-8"?>
<!-- Generator: Adobe Illustrator 16.0.4, SVG Export Plug-In . SVG Version: 6.00 Build 0)  -->
<!DOCTYPE svg PUBLIC "-//W3C//DTD SVG 1.1//EN" "http://www.w3.org/Graphics/SVG/1.1/DTD/svg11.dtd">
<svg version="1.1" id="Capa_1" xmlns="http://www.w3.org/2000/svg" xmlns:xlink="http://www.w3.org/1999/xlink" x="0px" y="0px"
	 width="100px" height="100px" viewBox="0 0 100 100" enable-background="new 0 0 100 100" xml:space="preserve">
<g id="Layer_8">
	<path d="M61.871,25.173c1.258-0.321,2.201-1.052,1.045-2.271c-0.139-0.146-0.364-0.096-0.466,0.059
		c-0.332,0.504-1.091,0.672-1.979,0.648c0.275-0.08,0.493-0.221,0.617-0.449c0.449-0.829,0.02-1.531-0.63-2.119
		c-0.235-0.215-0.501-0.349-0.782-0.426c1.749-3.084,3.643-6.767,4.912-10.219c2.973-8.066-9.339,5.52-13.584,3.123
		c-4.246-2.394-2.546-9.915-9.764-2.699c-5.082,5.085,2.816,9.743,7.935,12.057c-1.037,0.145-2.072,0.236-3.093,0.234
		c-1.149,0-2.295-0.035-3.441-0.129c-0.925-0.075-3.274-0.159-3.713-1.232c-0.142-0.349-0.713-0.196-0.569,0.157
		c0.487,1.192,2.173,1.41,3.286,1.557c1.213,0.155,2.446,0.229,3.677,0.244c-0.015,0.002-0.032,0.005-0.047,0.007
		c-3.021,0.394-6.07,0.873-8.989,1.766c-1.037,0.318-3.666,1.034-3.461,2.563c0.05,0.371,0.642,0.377,0.592,0
		c-0.23-1.723,4.932-2.519,5.996-2.75c2.979-0.646,6.013-1.051,9.047-1.355c-7.604,3.738-17.815,13.824-20.096,26.548
		c1.786-0.564,3.684-0.869,5.653-0.869c5.692,0,11.019,2.54,14.616,6.968l0.09,0.111c1.303-0.286,2.655-0.441,4.042-0.441
		c10.381,0,18.825,8.444,18.825,18.825c0,0.991-0.077,1.963-0.226,2.913c6.656-4.141,10.966-11.453,10.966-22.337
		C82.331,40.669,72.182,30.318,61.871,25.173z M58.377,22.845c0.312-0.524,0.641-1.081,0.973-1.659
		c0.073,0.012,0.146,0.021,0.221,0.04c0.822,0.248,1.096,0.816,0.813,1.706c-0.312,0.127-0.747,0.066-1.071,0.043
		C58.998,22.955,58.688,22.904,58.377,22.845z M60.913,24.707c-0.427-0.199-0.854-0.389-1.28-0.571
		c1.219,0.14,2.393,0.029,3.057-0.563c0.49,0.833-1.032,1.061-1.674,1.131C60.979,24.707,60.948,24.706,60.913,24.707z
		 M39.944,61.311v-0.019c0.003,0.004,0.007,0.005,0.011,0.009C39.951,61.305,39.948,61.309,39.944,61.311z M34.859,82.001
		c0.393,1.167,0.908,2.274,1.525,3.319c-0.939,0.175-1.903,0.277-2.892,0.277c-8.739,0-15.823-7.086-15.823-15.824
		c0-8.739,7.084-15.824,15.823-15.824c4.961,0,9.385,2.287,12.286,5.859c-1.167,0.403-2.275,0.928-3.315,1.558
		c-2.245-2.396-5.429-3.9-8.971-3.9c-6.797,0-12.307,5.511-12.307,12.308s5.51,12.308,12.307,12.308
		C33.955,82.08,34.41,82.05,34.859,82.001z M36.418,67.443c-1.568,2.63-2.486,5.689-2.486,8.967c0,0.908,0.09,1.795,0.225,2.667
		h-1.604V66.615c-0.841,0.255-1.864,0.379-3.085,0.379h-0.88v-3.416h0.88c2.824,0,3.4-1.301,3.587-2.278l0.136-0.713h3.227V67.443z
		 M52.242,60.587c-8.739,0-15.824,7.085-15.824,15.823s7.084,15.824,15.824,15.824s15.824-7.086,15.824-15.824
		C68.064,67.672,60.98,60.587,52.242,60.587z M52.242,88.719c-6.797,0-12.307-5.512-12.307-12.309
		c0-6.796,5.51-12.307,12.307-12.307c6.797,0,12.307,5.511,12.307,12.307C64.549,83.207,59.039,88.719,52.242,88.719z
		 M51.939,67.225h3.228v18.489h-3.865V73.252c-0.842,0.255-1.864,0.381-3.086,0.381h-0.879v-3.416h0.879
		c2.825,0,3.4-1.302,3.589-2.279L51.939,67.225z"/>
</g>
</svg>
