<?xml version="1.0" encoding="utf-8"?>
<!-- Generator: Adobe Illustrator 16.0.4, SVG Export Plug-In . SVG Version: 6.00 Build 0)  -->
<!DOCTYPE svg PUBLIC "-//W3C//DTD SVG 1.1//EN" "http://www.w3.org/Graphics/SVG/1.1/DTD/svg11.dtd">
<svg version="1.1" id="Capa_1" xmlns="http://www.w3.org/2000/svg" xmlns:xlink="http://www.w3.org/1999/xlink" x="0px" y="0px"
	 width="100px" height="100px" viewBox="0 0 100 100" enable-background="new 0 0 100 100" xml:space="preserve">
<g id="Layer_8">
	<path d="M90.199,25.483H12.333c-1.381,0-2.5,1.119-2.5,2.5v38.35c0,1.381,1.119,2.5,2.5,2.5h77.866c1.381,0,2.5-1.119,2.5-2.5
		v-38.35C92.699,26.603,91.58,25.483,90.199,25.483z M87.699,55.95c-0.693-0.29-1.453-0.45-2.25-0.45c-3.231,0-5.85,2.619-5.85,5.85
		c0,0.89,0.203,1.729,0.559,2.483H22.225c0.355-0.755,0.559-1.594,0.559-2.483c0-3.23-2.619-5.85-5.85-5.85
		c-0.741,0-1.448,0.145-2.101,0.395V38.039c0.653,0.251,1.359,0.395,2.101,0.395c3.231,0,5.85-2.619,5.85-5.85
		c0-0.741-0.144-1.448-0.395-2.101h57.604c-0.251,0.653-0.396,1.359-0.396,2.101c0,3.231,2.619,5.85,5.851,5.85
		c0.798,0,1.558-0.161,2.25-0.45L87.699,55.95L87.699,55.95z M39.225,38.467h5.497c-2.745,2.035-4.531,5.288-4.531,8.967
		c0,3.362,1.493,6.369,3.844,8.417h-4.81v5.5h24.083v-5.5h-4.627c2.351-2.047,3.842-5.056,3.842-8.417
		c0-3.679-1.787-6.932-4.53-8.967h5.315v-5.5H39.225V38.467z M47.375,44.143c0-2.284,1.851-4.135,4.135-4.135
		c2.284,0,4.135,1.852,4.135,4.135c0,1.454-0.752,2.73-1.888,3.468c2.158,0.796,3.699,2.865,3.699,5.299H46.149
		c0-2.301,1.375-4.274,3.346-5.158C48.23,47.044,47.375,45.694,47.375,44.143z"/>
</g>
</svg>
