<?xml version="1.0" encoding="utf-8"?>
<!-- Generator: Adobe Illustrator 16.0.4, SVG Export Plug-In . SVG Version: 6.00 Build 0)  -->
<!DOCTYPE svg PUBLIC "-//W3C//DTD SVG 1.1//EN" "http://www.w3.org/Graphics/SVG/1.1/DTD/svg11.dtd">
<svg version="1.1" id="Capa_1" xmlns="http://www.w3.org/2000/svg" xmlns:xlink="http://www.w3.org/1999/xlink" x="0px" y="0px"
	 width="100px" height="100px" viewBox="0 0 100 100" enable-background="new 0 0 100 100" xml:space="preserve">
<g id="Layer_8">
	<path d="M57.879,26.929c1.467-0.374,2.566-1.226,1.219-2.648c-0.162-0.169-0.424-0.11-0.543,0.069
		c-0.387,0.588-1.271,0.782-2.307,0.755c0.32-0.094,0.574-0.257,0.719-0.522c0.523-0.967,0.023-1.785-0.734-2.471
		c-0.274-0.25-0.584-0.407-0.912-0.496c2.039-3.597,4.246-7.89,5.728-11.913c3.466-9.403-10.887,6.435-15.836,3.642
		c-4.949-2.792-2.969-11.56-11.383-3.146c-5.924,5.927,3.283,11.357,9.25,14.054c-1.209,0.169-2.416,0.275-3.605,0.274
		c-1.34-0.001-2.676-0.042-4.012-0.151c-1.078-0.088-3.816-0.185-4.328-1.437c-0.166-0.406-0.832-0.229-0.664,0.184
		c0.568,1.391,2.533,1.645,3.83,1.813c1.414,0.183,2.852,0.269,4.287,0.286c-0.018,0.002-0.037,0.005-0.055,0.007
		c-3.521,0.46-7.076,1.019-10.479,2.06c-1.209,0.37-4.273,1.205-4.035,2.985c0.059,0.434,0.748,0.439,0.689,0
		c-0.268-2.007,5.75-2.936,6.99-3.204c3.473-0.755,7.01-1.225,10.547-1.58C32.209,30.422,18.27,44.836,18.27,62.463
		c0,21.334,14.205,30.9,31.73,30.9c17.525,0,31.73-9.566,31.73-30.9C81.73,44.993,69.898,32.928,57.879,26.929z M58.832,25.063
		c0.572,0.971-1.203,1.235-1.951,1.318c-0.043,0.005-0.078,0.003-0.119,0.006c-0.498-0.232-0.996-0.454-1.492-0.666
		C56.689,25.882,58.059,25.753,58.832,25.063z M54.939,22.28c0.086,0.014,0.17,0.024,0.258,0.047
		c0.959,0.289,1.277,0.952,0.949,1.988c-0.363,0.149-0.871,0.078-1.25,0.052c-0.367-0.024-0.729-0.082-1.09-0.152
		C54.172,23.603,54.553,22.954,54.939,22.28z M51.794,59.494L51.008,62.3h-8.333c-0.035,0.489-0.053,1.328-0.053,2.517
		c0,1.225,0.018,2.098,0.053,2.623h8.953l-0.787,2.806h-7.956c0.751,7.008,3.128,10.512,7.131,10.512c4.089,0,6.423-3.006,7-9.019
		h5.088c-0.787,8.6-4.816,12.898-12.086,12.898c-7.097,0-11.178-4.798-12.244-14.393h-2.675v-2.807h2.465
		c-0.035-0.524-0.053-1.397-0.053-2.623c0-1.188,0.018-2.025,0.053-2.516h-2.465v-2.806h2.675
		c1.013-9.735,5.094-14.604,12.244-14.604c3.424,0,6.174,1.058,8.247,3.173c2.07,2.115,3.35,5.122,3.84,9.019h-5.086
		c-0.246-2.604-0.982-4.642-2.216-6.108c-1.233-1.469-2.827-2.202-4.785-2.202c-4.003,0-6.38,3.575-7.131,10.723H51.794z"/>
</g>
</svg>
