<?xml version="1.0" encoding="utf-8"?>
<!-- Generator: Adobe Illustrator 16.0.4, SVG Export Plug-In . SVG Version: 6.00 Build 0)  -->
<!DOCTYPE svg PUBLIC "-//W3C//DTD SVG 1.1//EN" "http://www.w3.org/Graphics/SVG/1.1/DTD/svg11.dtd">
<svg version="1.1" id="Capa_1" xmlns="http://www.w3.org/2000/svg" xmlns:xlink="http://www.w3.org/1999/xlink" x="0px" y="0px"
	 width="100px" height="100px" viewBox="0 0 100 100" enable-background="new 0 0 100 100" xml:space="preserve">
<g id="Layer_8">
	<path d="M88.934,28.325H11.067c-1.381,0-2.5,1.119-2.5,2.5v38.35c0,1.382,1.119,2.5,2.5,2.5h77.865c1.381,0,2.5-1.118,2.5-2.5
		v-38.35C91.434,29.444,90.312,28.325,88.934,28.325z M86.434,58.792c-0.692-0.29-1.453-0.45-2.25-0.45
		c-3.231,0-5.852,2.619-5.852,5.85c0,0.891,0.204,1.729,0.561,2.483H20.959c0.354-0.755,0.559-1.594,0.559-2.483
		c0-3.229-2.619-5.85-5.85-5.85c-0.741,0-1.448,0.145-2.101,0.395V40.881c0.652,0.251,1.359,0.395,2.101,0.395
		c3.23,0,5.85-2.619,5.85-5.85c0-0.741-0.144-1.448-0.395-2.101h57.604c-0.252,0.652-0.396,1.359-0.396,2.101
		c0,3.23,2.619,5.85,5.851,5.85c0.799,0,1.559-0.16,2.25-0.449v17.965H86.434z M50.58,55.977V50.7
		c0.891,0.241,1.492,0.544,1.807,0.907c0.312,0.358,0.471,0.885,0.471,1.576C52.855,54.863,52.098,55.793,50.58,55.977z
		 M49.529,48.774c-0.635-0.168-1.138-0.416-1.51-0.744c-0.38-0.336-0.569-0.868-0.569-1.598c0-1.372,0.693-2.179,2.079-2.419V48.774
		z M37.958,41.309h5.497c-2.744,2.034-4.531,5.288-4.531,8.967c0,3.361,1.493,6.369,3.844,8.416h-4.81v5.5h24.084v-5.5h-4.628
		c2.352-2.047,3.844-5.055,3.844-8.416c0-3.679-1.787-6.933-4.531-8.967h5.315v-5.5H37.958V41.309z M45.535,46.574
		c0-1.152,0.357-2.087,1.072-2.802c0.729-0.715,1.703-1.127,2.922-1.236v-1.511h1.051v1.511c2.342,0.175,3.626,1.368,3.854,3.578
		h-1.927c-0.096-1.218-0.737-1.911-1.927-2.079v4.958c1.643,0.343,2.747,0.832,3.316,1.467c0.582,0.642,0.875,1.51,0.875,2.604
		c0,1.152-0.373,2.155-1.117,3.01c-0.729,0.839-1.754,1.299-3.074,1.379v1.521h-1.051v-1.5c-2.685-0.291-4.119-1.736-4.301-4.334
		h1.915c0.139,1.635,0.934,2.579,2.386,2.834V50.47C46.866,49.931,45.535,48.632,45.535,46.574z"/>
</g>
</svg>
