<?xml version="1.0" encoding="utf-8"?>
<!-- Generator: Adobe Illustrator 16.0.4, SVG Export Plug-In . SVG Version: 6.00 Build 0)  -->
<!DOCTYPE svg PUBLIC "-//W3C//DTD SVG 1.1//EN" "http://www.w3.org/Graphics/SVG/1.1/DTD/svg11.dtd">
<svg version="1.1" id="Capa_1" xmlns="http://www.w3.org/2000/svg" xmlns:xlink="http://www.w3.org/1999/xlink" x="0px" y="0px"
	 width="100px" height="100px" viewBox="0 0 100 100" enable-background="new 0 0 100 100" xml:space="preserve">
<g id="Layer_8">
	<path d="M57.879,26.929c1.467-0.374,2.566-1.226,1.219-2.648c-0.162-0.169-0.424-0.11-0.543,0.069
		c-0.387,0.588-1.271,0.782-2.307,0.755c0.32-0.094,0.574-0.257,0.719-0.522c0.523-0.967,0.023-1.785-0.734-2.471
		c-0.274-0.25-0.584-0.407-0.912-0.496c2.039-3.597,4.246-7.89,5.728-11.913c3.466-9.403-10.887,6.435-15.836,3.642
		c-4.949-2.792-2.969-11.56-11.383-3.146c-5.924,5.927,3.283,11.357,9.25,14.054c-1.209,0.169-2.416,0.275-3.605,0.274
		c-1.34-0.001-2.676-0.042-4.012-0.151c-1.078-0.088-3.816-0.185-4.328-1.437c-0.166-0.406-0.832-0.229-0.664,0.184
		c0.568,1.391,2.533,1.645,3.83,1.813c1.414,0.183,2.852,0.269,4.287,0.286c-0.018,0.002-0.037,0.005-0.055,0.007
		c-3.521,0.46-7.076,1.019-10.479,2.06c-1.209,0.37-4.273,1.205-4.035,2.985c0.059,0.434,0.748,0.439,0.689,0
		c-0.268-2.007,5.75-2.936,6.99-3.204c3.473-0.755,7.01-1.225,10.547-1.58C32.209,30.422,18.27,44.836,18.27,62.463
		c0,21.334,14.205,30.9,31.73,30.9c17.525,0,31.73-9.566,31.73-30.9C81.73,44.993,69.898,32.928,57.879,26.929z M58.832,25.063
		c0.572,0.971-1.203,1.235-1.951,1.318c-0.043,0.005-0.078,0.003-0.119,0.006c-0.498-0.232-0.996-0.454-1.492-0.666
		C56.689,25.882,58.059,25.753,58.832,25.063z M55.197,22.327c0.959,0.289,1.277,0.952,0.949,1.988
		c-0.363,0.149-0.871,0.078-1.25,0.052c-0.367-0.024-0.729-0.082-1.09-0.152c0.364-0.612,0.745-1.261,1.133-1.935
		C55.025,22.294,55.109,22.305,55.197,22.327z"/>
</g>
</svg>
