<?xml version="1.0" encoding="utf-8"?>
<!-- Generator: Adobe Illustrator 16.0.4, SVG Export Plug-In . SVG Version: 6.00 Build 0)  -->
<!DOCTYPE svg PUBLIC "-//W3C//DTD SVG 1.1//EN" "http://www.w3.org/Graphics/SVG/1.1/DTD/svg11.dtd">
<svg version="1.1" id="Capa_1" xmlns="http://www.w3.org/2000/svg" xmlns:xlink="http://www.w3.org/1999/xlink" x="0px" y="0px"
	 width="100px" height="100px" viewBox="0 0 100 100" enable-background="new 0 0 100 100" xml:space="preserve">
<g id="Layer_8">
	<path d="M48.848,31.721v5.077c-0.002,2.628-7.816,4.759-17.453,4.759c-9.639,0-17.451-2.131-17.453-4.759v-5.077
		c0,2.629,7.814,4.76,17.453,4.76S48.848,34.35,48.848,31.721z M48.848,30.76c0,2.629-7.814,4.76-17.453,4.76
		s-17.453-2.131-17.453-4.76c0-2.629,7.814-4.76,17.453-4.76S48.848,28.131,48.848,30.76z M39.82,30.489l-15.332-1.046l-0.521,0.937
		l0.568,0.079c0.779,0.11,1.768,0.35,1.309,1.169l-0.143,0.255l2.834,0.193l0.143-0.255c0.197-0.354,0.258-0.657,0.184-0.916
		l10.332,0.705L39.82,30.489z M31.395,42.854c-9.639,0-17.453-2.131-17.453-4.76v5.077c0.002,2.628,7.814,4.759,17.453,4.759
		c9.637,0,17.451-2.131,17.453-4.759v-5.077C48.848,40.723,41.033,42.854,31.395,42.854z M31.395,49.263
		c-9.639,0-17.453-2.131-17.453-4.76v5.077c0.002,2.628,7.814,4.759,17.453,4.759c9.637,0,17.451-2.131,17.453-4.759v-5.077
		C48.848,47.132,41.033,49.263,31.395,49.263z M31.395,55.562c-9.639,0-17.453-2.131-17.453-4.76v5.077
		c0.002,2.628,7.814,4.759,17.453,4.759c9.637,0,17.451-2.131,17.453-4.759v-5.077C48.848,53.434,41.033,55.562,31.395,55.562z
		 M31.395,61.785c-9.639,0-17.453-2.131-17.453-4.76v5.076c0.002,2.629,7.814,4.76,17.453,4.76c9.637,0,17.451-2.131,17.453-4.76
		v-5.076C48.848,59.654,41.033,61.785,31.395,61.785z M31.395,67.997c-9.639,0-17.453-2.131-17.453-4.761v5.078
		c0.002,2.627,7.814,4.758,17.453,4.758c9.637,0,17.451-2.131,17.453-4.758v-5.078C48.848,65.866,41.033,67.997,31.395,67.997z
		 M51.26,32.061h0.127v0.129c2.766,0.503,6.09,0.798,9.666,0.798c9.637,0,17.449-2.131,17.453-4.759v-5.077
		c0,2.629-7.814,4.76-17.453,4.76S43.6,25.78,43.6,23.151v1.91c4.188,1.007,7.787,2.809,7.787,6.038
		C51.387,31.437,51.336,31.753,51.26,32.061z M43.6,22.19c0-2.629,7.814-4.76,17.453-4.76s17.453,2.131,17.453,4.76
		c0,2.63-7.814,4.761-17.453,4.761S43.6,24.82,43.6,22.19z M52.625,22.461l15.332,1.046l0.523-0.936l-0.57-0.079
		c-0.781-0.11-1.766-0.35-1.311-1.169l0.145-0.256l-2.834-0.193L63.77,21.13c-0.199,0.354-0.26,0.657-0.186,0.916l-10.332-0.705
		L52.625,22.461z M61.053,39.36c9.637,0,17.449-2.131,17.453-4.759v-5.077c0,2.629-7.814,4.76-17.453,4.76
		c-3.576,0-6.9-0.295-9.666-0.799v3.652c-0.002,0.461-0.08,0.89-0.219,1.295h0.219v0.129C54.152,39.066,57.477,39.36,61.053,39.36z
		 M51.387,44.843v0.129c2.766,0.503,6.09,0.798,9.666,0.798c9.637,0,17.449-2.131,17.453-4.759v-5.077
		c0,2.63-7.814,4.761-17.453,4.761c-3.576,0-6.9-0.294-9.666-0.798v3.613c-0.002,0.476-0.088,0.918-0.234,1.333H51.387z
		 M78.506,46.828v-4.594c0,1.588-2.861,2.99-7.244,3.855C73.186,46.175,75.855,46.374,78.506,46.828z M51.387,49.321
		c1.695-1.154,4.227-1.905,6.842-2.393c-2.496-0.111-4.819-0.364-6.842-0.732V49.321z M68.605,58.41
		c-9.64,0-17.453-2.131-17.453-4.762v5.078c0.004,2.629,7.815,4.76,17.453,4.76c9.639,0,17.451-2.131,17.453-4.76v-5.078
		C86.059,56.279,78.244,58.41,68.605,58.41z M68.605,47.93c9.639,0,17.453,2.131,17.453,4.759c0,2.629-7.814,4.761-17.453,4.761
		c-9.64,0-17.453-2.132-17.453-4.761C51.152,50.061,58.967,47.93,68.605,47.93z M71.139,52.544l-10.332-0.705l-0.625,1.12
		l15.332,1.047l0.521-0.938l-0.568-0.078c-0.778-0.11-1.766-0.35-1.309-1.17l0.143-0.254l-2.834-0.193l-0.141,0.255
		C71.125,51.982,71.064,52.285,71.139,52.544z M68.605,64.782c-9.64,0-17.453-2.132-17.453-4.761V65.1
		c0.004,2.629,7.815,4.76,17.453,4.76c9.639,0,17.451-2.131,17.453-4.76v-5.076C86.059,62.65,78.244,64.782,68.605,64.782z
		 M68.605,71.191c-9.64,0-17.453-2.131-17.453-4.76v5.077c0.004,2.628,7.815,4.759,17.453,4.759c9.639,0,17.451-2.131,17.453-4.759
		v-5.077C86.059,69.062,78.244,71.191,68.605,71.191z M68.605,77.493c-9.64,0-17.453-2.132-17.453-4.761v5.078
		c0.004,2.627,7.815,4.758,17.453,4.758c9.639,0,17.451-2.131,17.453-4.758v-5.078C86.059,75.361,78.244,77.493,68.605,77.493z"/>
</g>
</svg>
