<?xml version="1.0" encoding="utf-8"?>
<!-- Generator: Adobe Illustrator 16.0.4, SVG Export Plug-In . SVG Version: 6.00 Build 0)  -->
<!DOCTYPE svg PUBLIC "-//W3C//DTD SVG 1.1//EN" "http://www.w3.org/Graphics/SVG/1.1/DTD/svg11.dtd">
<svg version="1.1" id="Capa_1" xmlns="http://www.w3.org/2000/svg" xmlns:xlink="http://www.w3.org/1999/xlink" x="0px" y="0px"
	 width="100px" height="100px" viewBox="0 0 100 100" enable-background="new 0 0 100 100" xml:space="preserve">
<g id="Layer_8">
	<path d="M29.416,21.067v0.849c-7.879,0.495-14.145,7.045-14.145,15.049v8.877c0,8.003,6.266,14.553,14.145,15.049v0.284
		c0,9.81,7.95,17.759,17.758,17.759h19.797c9.807,0,17.758-7.949,17.758-17.759V21.067H29.416z M29.416,55.562
		c-4.941-0.479-8.82-4.654-8.82-9.721v-8.877c0-5.07,3.879-9.241,8.82-9.721V55.562z M52.169,70.354
		c-16.548,0-16.736-15.088-16.736-15.24v-23.6c0-1.029,0.835-1.86,1.856-1.86c1.031,0,1.861,0.831,1.861,1.86v23.6
		c0.011,1.17,0.454,11.518,13.019,11.518c1.028,0,1.86,0.836,1.86,1.861C54.029,69.521,53.197,70.354,52.169,70.354z"/>
</g>
</svg>
