<?xml version="1.0" encoding="utf-8"?>
<!-- Generator: Adobe Illustrator 16.0.4, SVG Export Plug-In . SVG Version: 6.00 Build 0)  -->
<!DOCTYPE svg PUBLIC "-//W3C//DTD SVG 1.1//EN" "http://www.w3.org/Graphics/SVG/1.1/DTD/svg11.dtd">
<svg version="1.1" id="Capa_1" xmlns="http://www.w3.org/2000/svg" xmlns:xlink="http://www.w3.org/1999/xlink" x="0px" y="0px"
	 width="100px" height="100px" viewBox="0 0 100 100" enable-background="new 0 0 100 100" xml:space="preserve">
<g id="Layer_8">
	<path d="M72.104,14.289c-4.418,0-8,3.582-8,8c0,2.193,0.885,4.178,2.313,5.623l-2.868,11.697c-0.203-0.051-0.412-0.084-0.631-0.084
		c-1.466,0-2.656,1.191-2.656,2.656c0,1.465,1.19,2.658,2.656,2.658c1.465,0,2.657-1.193,2.657-2.658
		c0-0.883-0.438-1.662-1.104-2.146l7.068-9.773c0.188,0.012,0.374,0.027,0.564,0.027c4.418,0,8-3.582,8-8
		S76.521,14.289,72.104,14.289z M64.575,42.182c0,0.914-0.744,1.658-1.657,1.658c-0.914,0-1.656-0.744-1.656-1.658
		s0.742-1.656,1.656-1.656c0.137,0,0.268,0.021,0.395,0.053l-0.395,1.604l0.969-1.338C64.302,41.145,64.575,41.631,64.575,42.182z
		 M77.73,24.73c-0.734,0.051-1.43-1.322-1.551-3.066c-0.123-1.744,0.375-3.199,1.108-3.252c0.735-0.051,1.43,1.322,1.552,3.066
		C78.962,23.223,78.466,24.68,77.73,24.73z M74.561,69.951H62.395c-0.828,0-1.5,0.672-1.5,1.5v11.26h-38V28.377h40.823l0.506-2.061
		c-0.217-0.303-0.41-0.619-0.594-0.939H21.394c-0.828,0-1.5,0.672-1.5,1.5v57.334c0,0.828,0.672,1.5,1.5,1.5h42.449
		c0.38,0,0.744-0.145,1.022-0.402l12.218-11.381c0.306-0.285,0.478-0.682,0.478-1.098V30.016c-0.938,0.41-1.945,0.691-3,0.824
		V69.951z M63.895,82.113v-9.162h9.836L63.895,82.113z"/>
</g>
</svg>
