<?xml version="1.0" encoding="utf-8"?>
<!-- Generator: Adobe Illustrator 16.0.0, SVG Export Plug-In . SVG Version: 6.00 Build 0)  -->
<!DOCTYPE svg PUBLIC "-//W3C//DTD SVG 1.1//EN" "http://www.w3.org/Graphics/SVG/1.1/DTD/svg11.dtd">
<svg version="1.1" id="Layer_9" xmlns="http://www.w3.org/2000/svg" xmlns:xlink="http://www.w3.org/1999/xlink" x="0px" y="0px"
	 width="100px" height="100px" viewBox="0 0 100 100" enable-background="new 0 0 100 100" xml:space="preserve">
<path d="M69.439,69.258c0,1.263-1.024,2.287-2.287,2.287H33.134c-1.263,0-2.288-1.024-2.288-2.287c0-1.263,1.024-2.287,2.288-2.287
	h34.018C68.415,66.972,69.439,67.996,69.439,69.258z M85.003,18.533v66.322c0,3.048-2.479,5.527-5.526,5.527H20.524
	c-3.048,0-5.527-2.479-5.527-5.527V18.533c0-3.048,2.479-5.527,5.527-5.527h5.94c0.429-1.345,1.126-2.461,2.241-3.02
	c2.788-1.397,6.119,1.526,7.653,3.02h3.616c0.429-1.345,1.126-2.461,2.241-3.02c2.788-1.397,6.12,1.526,7.653,3.02h4.476
	c0.429-1.345,1.126-2.461,2.242-3.02c2.787-1.397,6.119,1.526,7.652,3.02h4.176c0.428-1.345,1.126-2.461,2.241-3.02
	c2.789-1.397,6.12,1.526,7.653,3.02h1.169C82.524,13.006,85.003,15.485,85.003,18.533z M71.582,13.006h1.974
	c-1.061-0.583-1.507-0.42-1.58-0.384C71.83,12.694,71.7,12.828,71.582,13.006z M67.885,19.8c-0.458,0.446-0.744,1.067-0.744,1.755
	c0,1.354,1.102,2.456,2.457,2.456c1.354,0,2.456-1.102,2.456-2.456c0-0.906-0.498-1.689-1.229-2.115
	c0.046,0.782,0.123,1.568,0.232,2.32c0.117,0.806-0.442,1.553-1.248,1.67c-0.072,0.011-0.143,0.016-0.213,0.016
	c-0.72,0-1.351-0.529-1.457-1.263C68.06,21.636,67.956,20.79,67.885,19.8z M57.512,13.006h1.974c-1.061-0.583-1.507-0.42-1.58-0.384
	C57.76,12.694,57.629,12.828,57.512,13.006z M53.815,19.8c-0.458,0.446-0.744,1.067-0.744,1.755c0,1.354,1.102,2.456,2.457,2.456
	c1.354,0,2.456-1.102,2.456-2.456c0-0.906-0.498-1.689-1.229-2.115c0.046,0.782,0.123,1.568,0.232,2.32
	c0.117,0.806-0.442,1.553-1.248,1.67c-0.071,0.011-0.143,0.016-0.213,0.016c-0.72,0-1.351-0.529-1.457-1.263
	C53.989,21.636,53.885,20.79,53.815,19.8z M43.142,13.006h1.974c-1.06-0.583-1.507-0.42-1.58-0.384
	C43.39,12.694,43.26,12.828,43.142,13.006z M39.445,19.8c-0.458,0.446-0.744,1.067-0.744,1.755c0,1.354,1.102,2.456,2.456,2.456
	s2.456-1.102,2.456-2.456c0-0.906-0.498-1.689-1.229-2.115c0.045,0.782,0.123,1.568,0.232,2.32c0.117,0.806-0.442,1.553-1.248,1.67
	c-0.071,0.011-0.143,0.016-0.213,0.016c-0.72,0-1.35-0.529-1.457-1.263C39.619,21.636,39.516,20.79,39.445,19.8z M29.632,13.006
	h1.974c-1.06-0.583-1.507-0.42-1.58-0.384C29.88,12.694,29.75,12.828,29.632,13.006z M25.936,19.8
	c-0.458,0.446-0.744,1.067-0.744,1.755c0,1.354,1.102,2.456,2.456,2.456c1.354,0,2.456-1.102,2.456-2.456
	c0-0.906-0.498-1.689-1.229-2.115c0.045,0.782,0.123,1.568,0.232,2.32c0.117,0.806-0.442,1.553-1.248,1.67
	c-0.072,0.011-0.143,0.016-0.213,0.016c-0.72,0-1.35-0.529-1.457-1.263C26.109,21.636,26.006,20.79,25.936,19.8z M81.319,18.533
	c0-1.016-0.826-1.842-1.842-1.842h-7.542c1.811,0.874,3.066,2.723,3.066,4.865c0,2.979-2.424,5.404-5.403,5.404
	c-2.98,0-5.404-2.424-5.404-5.404c0-2.142,1.255-3.991,3.067-4.865h-9.396c1.811,0.874,3.066,2.723,3.066,4.865
	c0,2.979-2.424,5.404-5.403,5.404c-2.98,0-5.404-2.424-5.404-5.404c0-2.142,1.256-3.991,3.067-4.865h-9.696
	c1.811,0.874,3.066,2.723,3.066,4.865c0,2.979-2.424,5.404-5.404,5.404s-5.404-2.424-5.404-5.404c0-2.142,1.256-3.991,3.067-4.865
	h-8.835c1.811,0.874,3.066,2.723,3.066,4.865c0,2.979-2.424,5.404-5.404,5.404c-2.979,0-5.404-2.424-5.404-5.404
	c0-2.142,1.256-3.991,3.067-4.865h-4.787c-1.016,0-1.842,0.826-1.842,1.842v66.322c0,1.016,0.826,1.842,1.842,1.842h58.953
	c1.016,0,1.842-0.826,1.842-1.842V18.533z M67.152,51.249H33.134c-1.263,0-2.288,1.024-2.288,2.287c0,1.263,1.024,2.287,2.288,2.287
	h34.018c1.263,0,2.287-1.024,2.287-2.287C69.439,52.273,68.415,51.249,67.152,51.249z M72.584,35.526H27.417
	c-1.263,0-2.287,1.024-2.287,2.287c0,1.263,1.024,2.288,2.287,2.288h45.167c1.263,0,2.287-1.024,2.287-2.288
	C74.871,36.55,73.847,35.526,72.584,35.526z"/>
</svg>
