<?xml version="1.0" encoding="utf-8"?>
<!-- Generator: Adobe Illustrator 16.0.4, SVG Export Plug-In . SVG Version: 6.00 Build 0)  -->
<!DOCTYPE svg PUBLIC "-//W3C//DTD SVG 1.1//EN" "http://www.w3.org/Graphics/SVG/1.1/DTD/svg11.dtd">
<svg version="1.1" id="Capa_1" xmlns="http://www.w3.org/2000/svg" xmlns:xlink="http://www.w3.org/1999/xlink" x="0px" y="0px"
	 width="100px" height="100px" viewBox="0 0 100 100" enable-background="new 0 0 100 100" xml:space="preserve">
<g id="Layer_8">
	<path d="M77.333,19.834H22.666c-0.829,0-1.5,0.672-1.5,1.5v57.332c0,0.828,0.671,1.5,1.5,1.5h42.449
		c0.379,0,0.744-0.143,1.021-0.402l12.219-11.381c0.305-0.283,0.478-0.682,0.478-1.098V21.334
		C78.833,20.506,78.162,19.834,77.333,19.834z M24.166,22.834h51.667v41.572H63.667c-0.829,0-1.5,0.672-1.5,1.5v11.26h-38
		L24.166,22.834L24.166,22.834z M65.167,76.568v-9.162h9.836L65.167,76.568z"/>
</g>
</svg>
