<?xml version="1.0" encoding="utf-8"?>
<!-- Generator: Adobe Illustrator 16.0.4, SVG Export Plug-In . SVG Version: 6.00 Build 0)  -->
<!DOCTYPE svg PUBLIC "-//W3C//DTD SVG 1.1//EN" "http://www.w3.org/Graphics/SVG/1.1/DTD/svg11.dtd">
<svg version="1.1" id="Capa_1" xmlns="http://www.w3.org/2000/svg" xmlns:xlink="http://www.w3.org/1999/xlink" x="0px" y="0px"
	 width="100px" height="100px" viewBox="0 0 100 100" enable-background="new 0 0 100 100" xml:space="preserve">
<g id="Layer_8">
	<path d="M72.555,29.817c0.629-6.512-3.916-9.644-3.974-9.682l-1.529-1.02l-0.692,1.703c-2,4.922-20.156,8.922-32.555,10.55
		c-6.555-2.169-18.139-1.484-18.139-1.484v51h68.668v-51C84.333,29.884,78.378,29.33,72.555,29.817z M61.525,66.884H38.192
		c0,0,0-1.985,0-4.979h23.333C61.525,64.9,61.525,66.884,61.525,66.884z M61.525,57.652H38.192c0-1.437,0-2.965,0-4.528h23.333
		C61.525,54.689,61.525,56.218,61.525,57.652z M61.525,48.874H38.192c0-1.62,0-3.219,0-4.74h23.333
		C61.525,45.662,61.525,47.26,61.525,48.874z M69.482,30.188c-4.346,0.709-7.957,2.221-7.957,5.297c0,1.153,0,2.667,0,4.398H38.192
		c0-1.789,0-3.311,0-4.398c0-0.611-0.183-1.156-0.502-1.646c9.008-1.379,25.361-4.573,30.314-10.132
		C68.921,24.863,69.997,26.972,69.482,30.188z"/>
</g>
</svg>
