<?xml version="1.0" encoding="utf-8"?>
<!-- Generator: Adobe Illustrator 16.0.0, SVG Export Plug-In . SVG Version: 6.00 Build 0)  -->
<!DOCTYPE svg PUBLIC "-//W3C//DTD SVG 1.1//EN" "http://www.w3.org/Graphics/SVG/1.1/DTD/svg11.dtd">
<svg version="1.1" id="Layer_9" xmlns="http://www.w3.org/2000/svg" xmlns:xlink="http://www.w3.org/1999/xlink" x="0px" y="0px"
	 width="100px" height="100px" viewBox="0 0 100 100" enable-background="new 0 0 100 100" xml:space="preserve">
<path d="M47.02,33.275h7.809v8.779h5.154v-29.57c0-2.041-1.654-3.696-3.695-3.696H19.818c-2.041,0-3.697,1.655-3.697,3.696v75.032
	c0,2.041,1.656,3.696,3.697,3.696h13.121V67.188h10.164V47.082c0-2.184,1.607-3.997,3.916-4.705V33.275z M47.02,16.18h7.809v11.088
	H47.02V16.18z M29.217,78.522h-7.809V67.434h7.809V78.522z M29.217,62.29h-7.809V51.201h7.809V62.29z M29.217,44.363h-7.809V33.275
	h7.809V44.363z M29.217,27.269h-7.809V16.18h7.809V27.269z M42.24,62.29h-7.807V51.201h7.807V62.29z M42.24,44.363h-7.807V33.275
	h7.807V44.363z M42.24,27.269h-7.807V16.18h7.807V27.269z M80.746,45.011H49.857c-1.729,0-3.131,0.927-3.131,2.071V89.14
	c0,1.145,1.402,2.072,3.131,2.072h11.113V77.746h8.924v13.466h10.852c1.729,0,3.131-0.927,3.131-2.072V47.082
	C83.877,45.938,82.475,45.011,80.746,45.011z M57.816,84.099h-6.613v-6.215h6.613V84.099z M57.816,75h-6.613v-6.215h6.613V75z
	 M57.816,64.952h-6.613v-6.215h6.613V64.952z M57.816,55.369h-6.613v-6.215h6.613V55.369z M68.85,75h-6.613v-6.215h6.613V75z
	 M68.85,64.952h-6.613v-6.215h6.613V64.952z M68.85,55.369h-6.613v-6.215h6.613V55.369z M79.512,84.237h-6.613v-6.215h6.613V84.237z
	 M79.512,75h-6.613v-6.215h6.613V75z M79.512,64.952h-6.613v-6.215h6.613V64.952z M79.512,55.369h-6.613v-6.215h6.613V55.369z"/>
</svg>
