<?xml version="1.0" encoding="utf-8"?>
<!-- Generator: Adobe Illustrator 16.0.0, SVG Export Plug-In . SVG Version: 6.00 Build 0)  -->
<!DOCTYPE svg PUBLIC "-//W3C//DTD SVG 1.1//EN" "http://www.w3.org/Graphics/SVG/1.1/DTD/svg11.dtd">
<svg version="1.1" id="Layer_9" xmlns="http://www.w3.org/2000/svg" xmlns:xlink="http://www.w3.org/1999/xlink" x="0px" y="0px"
	 width="100px" height="100px" viewBox="0 0 100 100" enable-background="new 0 0 100 100" xml:space="preserve">
<path d="M70.809,42.847V10.333H33.744v17.948H5.781v61.342h27.963v0.043h60.475v-46.82H70.809z M24.215,87.022v-14.75h-6.303v14.75
	H8.383v-56.14h25.361v56.14H24.215z M91.617,87.065H58.67V60.838H47.398v26.228H36.344V28.281V12.935h31.863v32.514h23.41V87.065z
	 M39.715,19.22h5.42v12.053h-5.42V19.22z M50.1,19.22h5.418v12.053H50.1V19.22z M60.09,19.22h5.42v12.053h-5.42V19.22z
	 M39.715,37.73h5.42v13.354h-5.42V37.73z M50.1,37.73h5.418v13.354H50.1V37.73z M60.09,37.73h5.42v13.354h-5.42V37.73z
	 M75.154,63.679h-5.418V51.3h5.418V63.679z M75.154,83.489h-5.418V70.786h5.418V83.489z M86.533,63.679h-5.418V51.3h5.418V63.679z
	 M86.533,83.489h-5.418V70.786h5.418V83.489z M12.664,35.206h5.418v12.378h-5.418V35.206z M12.664,54.691h5.418v12.703h-5.418
	V54.691z M24.043,35.206h5.418v12.378h-5.418V35.206z M24.043,54.691h5.418v12.703h-5.418V54.691z"/>
</svg>
