<?xml version="1.0" encoding="utf-8"?>
<!-- Generator: Adobe Illustrator 16.0.4, SVG Export Plug-In . SVG Version: 6.00 Build 0)  -->
<!DOCTYPE svg PUBLIC "-//W3C//DTD SVG 1.1//EN" "http://www.w3.org/Graphics/SVG/1.1/DTD/svg11.dtd">
<svg version="1.1" id="Capa_1" xmlns="http://www.w3.org/2000/svg" xmlns:xlink="http://www.w3.org/1999/xlink" x="0px" y="0px"
	 width="100px" height="100px" viewBox="0 0 100 100" enable-background="new 0 0 100 100" xml:space="preserve">
<g id="Layer_8">
	<path d="M32.425,51.072v-0.295l0.114-0.271c0.016-0.039,1.934-4.963,1.934-19.666c0-14.664-1.908-19.361-1.929-19.408l-0.113-0.271
		l-0.006-0.309c0-1.613,1.313-2.924,2.925-2.924h29.251c1.612,0,2.924,1.312,2.924,2.924v0.201l-0.053,0.193
		c-0.021,0.07-1.994,7.305-1.994,19.352c0,12.074,1.982,20.035,2.004,20.115l0.043,0.176v0.185c0,1.612-1.312,2.926-2.924,2.926
		H35.35C33.737,53.998,32.425,52.686,32.425,51.072z M70.964,38.008c-1.616,0-2.926,1.309-2.926,2.924v14.626H31.962V40.932
		c0-1.615-1.31-2.924-2.926-2.924c-1.615,0-2.925,1.309-2.925,2.924v17.55c0,1.615,1.31,2.927,2.925,2.927h41.928
		c1.615,0,2.925-1.312,2.925-2.927v-17.55C73.889,39.316,72.579,38.008,70.964,38.008z M70.962,73.021l-18.28-9.873
		c-0.648-0.351-1.369-0.418-2.035-0.267c-0.688-0.161-1.42-0.077-2.062,0.267l-18.281,9.873c-0.945,0.51-1.535,1.498-1.535,2.573
		v3.289c0,0.886,0.4,1.668,1.02,2.203c-0.193,0.371-0.313,0.787-0.313,1.233c0,1.48,1.2,2.683,2.682,2.683
		c1.48,0,2.681-1.201,2.681-2.683c0-0.7-0.274-1.331-0.714-1.811c0.312-0.465,0.494-1.023,0.494-1.627V77.34l12.438-6.717
		l0.019,15.213c0,0.754,0.295,1.434,0.764,1.951c-0.338,0.449-0.545,1-0.545,1.604c0,1.482,1.2,2.683,2.682,2.683
		c1.48,0,2.682-1.199,2.682-2.683c0-0.59-0.197-1.131-0.521-1.574c0.485-0.521,0.788-1.217,0.787-1.985l-0.02-15.91l13.742,7.42
		v1.545c0,0.591,0.177,1.136,0.476,1.593c-0.459,0.481-0.743,1.129-0.743,1.846c0,1.48,1.2,2.682,2.682,2.682
		c1.48,0,2.683-1.201,2.683-2.682c0-0.438-0.114-0.842-0.3-1.207c0.639-0.535,1.054-1.33,1.054-2.23v-3.289
		C72.497,74.52,71.907,73.531,70.962,73.021z"/>
</g>
</svg>
