<?xml version="1.0" encoding="utf-8"?>
<!-- Generator: Adobe Illustrator 16.0.0, SVG Export Plug-In . SVG Version: 6.00 Build 0)  -->
<!DOCTYPE svg PUBLIC "-//W3C//DTD SVG 1.1//EN" "http://www.w3.org/Graphics/SVG/1.1/DTD/svg11.dtd">
<svg version="1.1" id="Layer_9" xmlns="http://www.w3.org/2000/svg" xmlns:xlink="http://www.w3.org/1999/xlink" x="0px" y="0px"
	 width="100px" height="100px" viewBox="0 0 100 100" enable-background="new 0 0 100 100" xml:space="preserve">
<g>
	<path d="M81.098,39.708l-0.109,0.05v-0.315l-0.07,0.027l0.045-0.112l-15.535-6.329l-1.387,1.804l14.088,5.739L51.592,51.037V48.44
		c-1.217-0.009-2.385-0.586-3.125-1.553L37.551,32.689L19.67,39.481l-0.102-0.039v0.019l-8.23,12.11l8.23-0.726v27.123
		l29.613,11.681v0.046h2.193v-0.046l29.613-11.681V59.292l7.674-3.298L81.098,39.708z M49.182,87.29l-27.42-10.814v-33.81
		l27.42,10.815V87.29z M78.795,76.476L51.375,87.29V53.481l6.029,15.948l21.391-9.195V76.476z"/>
	<path d="M50.711,45.272c0.129,0.169,0.33,0.269,0.543,0.269s0.414-0.1,0.543-0.269l12.92-16.804
		c0.188-0.245,0.188-0.584,0.004-0.831c-0.186-0.246-0.514-0.338-0.801-0.223l-8.553,3.377V10.99c0-0.38-0.307-0.686-0.686-0.686
		h-6.855c-0.379,0-0.686,0.306-0.686,0.686v19.802l-8.555-3.377c-0.287-0.115-0.613-0.023-0.799,0.223
		c-0.092,0.124-0.137,0.269-0.137,0.414c0,0.147,0.047,0.294,0.143,0.417L50.711,45.272z"/>
</g>
</svg>
