<?xml version="1.0" encoding="utf-8"?>
<!-- Generator: Adobe Illustrator 16.0.4, SVG Export Plug-In . SVG Version: 6.00 Build 0)  -->
<!DOCTYPE svg PUBLIC "-//W3C//DTD SVG 1.1//EN" "http://www.w3.org/Graphics/SVG/1.1/DTD/svg11.dtd">
<svg version="1.1" id="Capa_1" xmlns="http://www.w3.org/2000/svg" xmlns:xlink="http://www.w3.org/1999/xlink" x="0px" y="0px"
	 width="100px" height="100px" viewBox="0 0 100 100" enable-background="new 0 0 100 100" xml:space="preserve">
<g id="Layer_8">
	<path d="M67.622,32.337v40.304c0,0.881-0.713,1.594-1.595,1.594c-0.881,0-1.594-0.713-1.594-1.594V32.337
		c0-9.45-14.662-16.973-14.811-17.041c-2.301,1.094-14.058,8.467-14.058,17.041v52.282l22.421,0.083l-0.002-44.74
		c0-5.111-6.371-9.133-7.332-9.563c-0.781,0.354-6.586,4.371-6.586,9.563v35.812c0,0.881-0.713,1.595-1.594,1.595
		c-0.881,0-1.594-0.714-1.594-1.595V39.962c0-7.079,7.156-11.884,8.473-12.474c0.827-0.369,1.775-0.369,2.603-0.001
		c0.094,0.043,9.219,4.75,9.219,12.475v44.74c0,0.842-0.341,1.664-0.938,2.258c-0.601,0.601-1.4,0.931-2.25,0.931l-22.43-0.084
		c-1.752-0.006-3.178-1.437-3.178-3.188V32.337c0-11.647,15.788-19.877,15.947-19.949c0.828-0.369,1.777-0.369,2.604,0
		C51.098,12.463,67.622,20.6,67.622,32.337z"/>
</g>
</svg>
