<?xml version="1.0" encoding="utf-8"?>
<!-- Generator: Adobe Illustrator 16.0.4, SVG Export Plug-In . SVG Version: 6.00 Build 0)  -->
<!DOCTYPE svg PUBLIC "-//W3C//DTD SVG 1.1//EN" "http://www.w3.org/Graphics/SVG/1.1/DTD/svg11.dtd">
<svg version="1.1" id="Capa_1" xmlns="http://www.w3.org/2000/svg" xmlns:xlink="http://www.w3.org/1999/xlink" x="0px" y="0px"
	 width="100px" height="100px" viewBox="0 0 100 100" enable-background="new 0 0 100 100" xml:space="preserve">
<g id="Layer_8">
	<path d="M68.632,27.184v40.304c0,0.88-0.713,1.594-1.594,1.594s-1.595-0.714-1.595-1.594V27.184
		c0-8.517-6.928-15.445-15.443-15.445c-8.516,0-15.444,6.929-15.444,15.445v2.633v13.81v32.415c0,6.738,5.482,12.222,12.22,12.222
		c6.74,0,12.221-5.482,12.221-12.222v-26.88V34.809c0-4.395-3.575-7.97-7.97-7.97c-4.396,0-7.97,3.575-7.97,7.97V70.62
		c0,0.88-0.713,1.594-1.594,1.594c-0.881,0-1.594-0.714-1.594-1.594V34.809c0-6.152,5.006-11.158,11.158-11.158
		s11.158,5.006,11.158,11.158v14.353v26.88v1.274c0,0.226-0.047,0.438-0.131,0.631c-0.943,7.599-7.429,13.503-15.279,13.503
		c-8.496,0-15.408-6.912-15.408-15.408V43.626v-13.81v-2.633C31.368,16.91,39.726,8.551,50,8.551
		C60.273,8.551,68.632,16.91,68.632,27.184z"/>
</g>
</svg>
