<?xml version="1.0" encoding="utf-8"?>
<!-- Generator: Adobe Illustrator 16.0.0, SVG Export Plug-In . SVG Version: 6.00 Build 0)  -->
<!DOCTYPE svg PUBLIC "-//W3C//DTD SVG 1.1//EN" "http://www.w3.org/Graphics/SVG/1.1/DTD/svg11.dtd">
<svg version="1.1" id="Layer_9" xmlns="http://www.w3.org/2000/svg" xmlns:xlink="http://www.w3.org/1999/xlink" x="0px" y="0px"
	 width="100px" height="100px" viewBox="0 0 100 100" enable-background="new 0 0 100 100" xml:space="preserve">
<path d="M87.317,50.08c-0.344-0.501-0.721-0.96-1.111-1.399c-0.022-0.026-0.029-0.058-0.055-0.083l-0.247-0.244
	c-0.205-0.216-0.417-0.426-0.634-0.626L65.086,27.783c-0.043-0.042-0.1-0.059-0.145-0.094c-2.419-2.141-5.661-3.398-8.957-3.411
	c-0.018,0-0.034,0-0.05,0c-3.535,0-6.711,1.384-8.946,3.9c-2.27,2.552-3.412,6.096-3.139,9.724c0.196,2.611,1.131,5.055,2.629,7.005
	H15.454c-0.906-0.003-1.813-0.003-2.719-0.001l-1.356,0.001c-0.003,0-0.004,0-0.004,0h-0.003c-0.001,0-0.001-0.001-0.004,0h-0.004
	c-0.322,0.004-0.617,0.121-0.844,0.315c0,0.001-0.003,0.001-0.003,0.001s0,0-0.001,0c-0.051,0.045-0.1,0.095-0.146,0.148l0,0v0
	c-0.192,0.227-0.313,0.518-0.317,0.839c-0.004,0.253,0.063,0.49,0.185,0.694c5.307,9.304,11.455,18.997,17.78,28.032
	c0.247,0.354,0.652,0.564,1.083,0.564c3.729,0,7.53,0.055,11.209,0.11c3.736,0.054,7.516,0.11,11.342,0.11
	c7.655,0,15.494-0.223,23.534-1.116c7.504-1.071,12.595-5.498,14.334-12.463C90.537,58.085,89.712,53.575,87.317,50.08z
	 M48.967,29.937c1.736-1.953,4.184-3.028,7.007-3.01c3.097,0.011,6.13,1.371,8.114,3.638c0.084,0.096,0.182,0.171,0.286,0.237
	l13.954,13.791c-6.576-0.698-13.357,4.793-14.353,11.769c-0.118,0.951-0.122,1.91-0.015,2.856L50.208,45.035
	c-0.072-0.117-0.16-0.226-0.269-0.319c-0.14-0.114-0.263-0.241-0.391-0.363l-0.426-0.438c-0.01-0.012-0.027-0.016-0.039-0.027
	c-1.48-1.618-2.415-3.808-2.596-6.187C46.269,34.786,47.172,31.956,48.967,29.937z M86.953,61.5
	c-1.974,7.896-8.454,9.958-12.102,10.479c-11.846,1.316-23.363,1.149-34.505,0.985c-3.46-0.051-7.028-0.103-10.554-0.11
	c-5.689-8.162-11.224-16.842-16.107-25.266c1.07,0.002,2.179-0.009,3.4-0.023c0.052-0.001,0.102-0.005,0.153-0.011h31.727
	l18.482,19.063c0.039,0.039,0.083,0.07,0.125,0.104c0.039,0.042,0.075,0.089,0.115,0.13c2.631,2.591,6.054,3.811,9.404,3.343
	c0.724-0.101,1.229-0.77,1.128-1.494c-0.1-0.725-0.768-1.23-1.493-1.129c-2.526,0.354-5.143-0.597-7.179-2.605
	c-2.218-2.188-3.319-5.281-2.948-8.253c0.801-5.614,6.506-10.209,11.765-9.465c1.889,0.237,3.635,1.081,5.095,2.411l0.581,0.575
	c0.388,0.413,0.757,0.854,1.091,1.342C87.105,54.456,87.787,58.167,86.953,61.5z"/>
</svg>
