<?xml version="1.0" encoding="utf-8"?>
<!-- Generator: Adobe Illustrator 16.0.4, SVG Export Plug-In . SVG Version: 6.00 Build 0)  -->
<!DOCTYPE svg PUBLIC "-//W3C//DTD SVG 1.1//EN" "http://www.w3.org/Graphics/SVG/1.1/DTD/svg11.dtd">
<svg version="1.1" id="Capa_1" xmlns="http://www.w3.org/2000/svg" xmlns:xlink="http://www.w3.org/1999/xlink" x="0px" y="0px"
	 width="100px" height="100px" viewBox="0 0 100 100" enable-background="new 0 0 100 100" xml:space="preserve">
<g id="Layer_8">
	<path d="M82.566,52.863c-0.492-6.923-3.909-13.21-9.258-18.057c2.598-2.648,5.604-8.334,2.172-9.697
		c-3.433-1.362-15.842,4.066-15.842,4.066s-3.469-1.068-8.07-1.604c-0.699,3.746-2.961,6.939-6.088,8.887
		c0.536,0,1.076,0.01,1.633,0.033c1.258,0,2.28,1.024,2.28,2.283c0,1.262-1.022,2.283-2.28,2.283c0,0-7.233-0.762-14.84,2.283
		c-1.26,0-2.209-1.022-2.209-2.283c0-1.262,0.487-1.783,2.209-2.283c0,0,0.921-0.368,2.497-0.811
		c-3.088-0.879-5.725-2.84-7.467-5.448c-8.243,5.142-13.214,13.58-13.214,23.139c0,9.414,2.199,16.191,10.622,21.593
		c1.831,0.871,1.833,8.466,1.833,8.466l8.469,0.652c0,0-1.232-3.581,0.975-3.237c3.547,1.027,5.996,1.154,10.123,1.154
		c1.468,0,2.914-0.069,4.337-0.205c0.397-0.038,1.349,2.571,1.349,2.571l5.821-0.039c0,0,1.342-3.854,2.14-4.469
		c0.475-0.154,0.944-0.317,1.407-0.486c0.778,0.205,0.785,2.197,0.785,2.197l8.985-0.854c0,0-1.395-5.422-0.731-6.088
		c2.586-1.843,4.841-3.974,6.7-6.339c3.744-4.112,9.012-3.819,9.012-3.819V55.467C85.913,55.467,83.752,56.008,82.566,52.863z
		 M71.218,47.302c-1.577,0-2.852-1.278-2.852-2.854c0-1.577,1.274-2.854,2.852-2.854c1.575,0,2.851,1.276,2.851,2.854
		C74.068,46.023,72.793,47.302,71.218,47.302z M38.794,36.545c6.393,0,11.593-5.202,11.593-11.6c0-6.394-5.2-11.595-11.593-11.595
		c-6.394,0-11.596,5.201-11.596,11.595C27.199,31.343,32.4,36.545,38.794,36.545z M38.794,15.878c4.999,0,9.065,4.067,9.065,9.067
		c0,5.002-4.067,9.071-9.065,9.071c-5,0-9.068-4.069-9.068-9.071C29.727,19.945,33.794,15.878,38.794,15.878z M34.603,23.274
		l-0.327-2.464l0.635-0.085c2.038-0.271,2.329-1.264,2.371-1.987l0.031-0.528l2.328-0.309l1.768,13.344l-2.788,0.37l-1.192-8.994
		c-0.583,0.266-1.309,0.452-2.191,0.57L34.603,23.274z"/>
</g>
</svg>
