<?xml version="1.0" encoding="utf-8"?>
<!-- Generator: Adobe Illustrator 16.0.4, SVG Export Plug-In . SVG Version: 6.00 Build 0)  -->
<!DOCTYPE svg PUBLIC "-//W3C//DTD SVG 1.1//EN" "http://www.w3.org/Graphics/SVG/1.1/DTD/svg11.dtd">
<svg version="1.1" id="Capa_1" xmlns="http://www.w3.org/2000/svg" xmlns:xlink="http://www.w3.org/1999/xlink" x="0px" y="0px"
	 width="100px" height="100px" viewBox="0 0 100 100" enable-background="new 0 0 100 100" xml:space="preserve">
<g id="Layer_8">
	<path d="M51.4,10.33c-13.206,0-23.906,10.703-23.906,23.906c0,6.555,2.641,12.482,6.91,16.803L24.695,89.67l25.016-32.156
		c0.561,0.58,1.117,0.627,1.689,0.627c13.201,0,23.904-10.703,23.904-23.904C75.305,21.033,64.602,10.33,51.4,10.33z M68.211,41.531
		c-2.193,0.15-4.27-3.951-4.635-9.164c-0.365-5.211,1.121-9.561,3.314-9.717c2.196-0.152,4.272,3.951,4.639,9.162
		C71.891,37.025,70.408,41.379,68.211,41.531z"/>
</g>
</svg>
