<?xml version="1.0" encoding="utf-8"?>
<!-- Generator: Adobe Illustrator 16.0.4, SVG Export Plug-In . SVG Version: 6.00 Build 0)  -->
<!DOCTYPE svg PUBLIC "-//W3C//DTD SVG 1.1//EN" "http://www.w3.org/Graphics/SVG/1.1/DTD/svg11.dtd">
<svg version="1.1" id="Capa_1" xmlns="http://www.w3.org/2000/svg" xmlns:xlink="http://www.w3.org/1999/xlink" x="0px" y="0px"
	 width="100px" height="100px" viewBox="0 0 100 100" enable-background="new 0 0 100 100" xml:space="preserve">
<g id="Layer_8">
	<path d="M77.3,21.712L55.076,8.563c-2.493-1.476-5.711-0.65-7.186,1.842c-1.475,2.493-0.649,5.711,1.844,7.187l0.368,0.218
		c-0.236,0.271-0.458,0.562-0.648,0.882l-14.795,25c-0.166,0.283-0.288,0.579-0.404,0.876c-4.453-0.484-8.073,0.547-9.629,3.176
		l10.295,6.092L20.124,91.495l1.142,0.675l26.573-30.691l9.777,5.785c1.577-2.664,0.7-6.399-1.951-10.119
		c0.185-0.228,0.372-0.453,0.524-0.713l14.793-25.004c0.189-0.319,0.336-0.654,0.461-0.992l0.515,0.305
		c2.493,1.475,5.711,0.649,7.188-1.842C80.62,26.403,79.794,23.188,77.3,21.712z M53,54l-2-1.5l14.314-24.641L67.167,29L53,54z"/>
</g>
</svg>
