<?xml version="1.0" encoding="utf-8"?>
<!-- Generator: Adobe Illustrator 16.0.0, SVG Export Plug-In . SVG Version: 6.00 Build 0)  -->
<!DOCTYPE svg PUBLIC "-//W3C//DTD SVG 1.1//EN" "http://www.w3.org/Graphics/SVG/1.1/DTD/svg11.dtd">
<svg version="1.1" id="Layer_9" xmlns="http://www.w3.org/2000/svg" xmlns:xlink="http://www.w3.org/1999/xlink" x="0px" y="0px"
	 width="100px" height="100px" viewBox="0 0 100 100" enable-background="new 0 0 100 100" xml:space="preserve">
<g>
	<g>
		<path d="M56.316,67.3c-4.576,0-8.299,3.723-8.299,8.3s3.723,8.3,8.299,8.3s8.301-3.723,8.301-8.3S60.893,67.3,56.316,67.3z"/>
	</g>
	<g>
		<path d="M65.639,67.1H8.328c-1.381,0-2.5-1.119-2.5-2.5s1.119-2.5,2.5-2.5H64l19.346-44.497c0.397-0.913,1.298-1.503,2.293-1.503
			h6.033c1.381,0,2.5,1.119,2.5,2.5s-1.119,2.5-2.5,2.5h-4.395L67.932,65.597C67.534,66.51,66.634,67.1,65.639,67.1z"/>
	</g>
	<g>
		<path d="M26.258,67.3c-4.576,0-8.299,3.723-8.299,8.3s3.723,8.3,8.299,8.3s8.301-3.723,8.301-8.3S30.834,67.3,26.258,67.3z"/>
	</g>
</g>
</svg>
