<?xml version="1.0" encoding="utf-8"?>
<!-- Generator: Adobe Illustrator 16.0.0, SVG Export Plug-In . SVG Version: 6.00 Build 0)  -->
<!DOCTYPE svg PUBLIC "-//W3C//DTD SVG 1.1//EN" "http://www.w3.org/Graphics/SVG/1.1/DTD/svg11.dtd">
<svg version="1.1" id="Layer_9" xmlns="http://www.w3.org/2000/svg" xmlns:xlink="http://www.w3.org/1999/xlink" x="0px" y="0px"
	 width="100px" height="100px" viewBox="0 0 100 100" enable-background="new 0 0 100 100" xml:space="preserve">
<path d="M83.745,36.342c3.016-5.539,2.189-12.613-2.496-17.299c-4.686-4.686-11.76-5.513-17.299-2.497l-3.48-3.48L39.843,33.692
	l1.036,1.037c1.265,1.264,1.265,3.315,0,4.581c-1.265,1.264-3.315,1.264-4.581,0l-1.036-1.037L13.066,60.47l4.094,4.093
	c-1.776,5.12-0.637,11.027,3.453,15.116c4.089,4.089,9.996,5.229,15.116,3.453l3.802,3.802l22.196-22.196l-1.036-1.037
	c-1.265-1.264-1.265-3.315-0.001-4.581c1.266-1.264,3.316-1.264,4.581,0l1.036,1.037L86.934,39.53L83.745,36.342z"/>
</svg>
