<?xml version="1.0" encoding="utf-8"?>
<!-- Generator: Adobe Illustrator 16.0.0, SVG Export Plug-In . SVG Version: 6.00 Build 0)  -->
<!DOCTYPE svg PUBLIC "-//W3C//DTD SVG 1.1//EN" "http://www.w3.org/Graphics/SVG/1.1/DTD/svg11.dtd">
<svg version="1.1" id="Layer_9" xmlns="http://www.w3.org/2000/svg" xmlns:xlink="http://www.w3.org/1999/xlink" x="0px" y="0px"
	 width="100px" height="100px" viewBox="0 0 100 100" enable-background="new 0 0 100 100" xml:space="preserve">
<path d="M79.42,26.845L64.029,12.509c-0.35-0.327-0.811-0.507-1.287-0.507H21.869c-1.045,0-1.891,0.846-1.891,1.89v72.216
	c0,1.043,0.846,1.89,1.891,1.89h56.262c1.045,0,1.891-0.846,1.891-1.89v-57.88C80.021,27.703,79.803,27.202,79.42,26.845z
	 M31.383,81.293c0-1.477,1.202-2.679,2.68-2.679s2.679,1.202,2.679,2.679c0,1.478-1.201,2.679-2.679,2.679
	S31.383,82.771,31.383,81.293z M45.127,81.293c0-1.477,1.202-2.679,2.68-2.679c1.477,0,2.678,1.202,2.678,2.679
	c0,1.478-1.201,2.679-2.678,2.679C46.329,83.973,45.127,82.771,45.127,81.293z M76.27,84.219l-24.187-0.024
	c0.563-0.828,0.894-1.827,0.894-2.901c0-2.852-2.319-5.171-5.17-5.171c-2.852,0-5.172,2.319-5.172,5.171
	c0,1.071,0.328,2.066,0.887,2.893l-5.172-0.005c0.558-0.825,0.884-1.819,0.884-2.888c0-2.852-2.319-5.171-5.171-5.171
	s-5.172,2.319-5.172,5.171c0,1.065,0.324,2.056,0.879,2.879l-6.04-0.006l0.045-23.951l3.79,15.159h25.737l12.461-28.661h3.759
	c1.033,0,1.869-0.837,1.869-1.869s-0.836-1.869-1.869-1.869h-6.209L50.851,71.636H30.483l-3.115-12.461H46.78
	c1.033,0,1.869-0.837,1.869-1.869s-0.836-1.87-1.869-1.87H23.784l0.001-0.706v-38.95h35.27v14.183c0,1.043,0.846,1.889,1.889,1.889
	H76.27V84.219z"/>
</svg>
