<?xml version="1.0" encoding="utf-8"?>
<!-- Generator: Adobe Illustrator 16.0.0, SVG Export Plug-In . SVG Version: 6.00 Build 0)  -->
<!DOCTYPE svg PUBLIC "-//W3C//DTD SVG 1.1//EN" "http://www.w3.org/Graphics/SVG/1.1/DTD/svg11.dtd">
<svg version="1.1" id="Layer_9" xmlns="http://www.w3.org/2000/svg" xmlns:xlink="http://www.w3.org/1999/xlink" x="0px" y="0px"
	 width="100px" height="100px" viewBox="0 0 100 100" enable-background="new 0 0 100 100" xml:space="preserve">
<g>
	<path d="M81.744,69.03c-0.141-7.584-4.814-14.69-12.328-17.539c-7.516-2.849-15.727-0.625-20.857,4.961l-7.672-2.909l-5.016,13.235
		l7.672,2.909c0.139,7.583,4.813,14.691,12.328,17.539c7.514,2.848,15.723,0.625,20.855-4.961l7.672,2.908l5.018-13.235
		L81.744,69.03z M58.379,80.608c-3.729-1.413-6.336-4.495-7.322-8.073l18.156,6.881C66.104,81.442,62.107,82.021,58.379,80.608z
		 M56.074,59.3c3.109-2.025,7.104-2.605,10.832-1.191c3.73,1.413,6.336,4.495,7.322,8.073L56.074,59.3z"/>
	<path d="M44.453,83.504H14.654c0.727-10.235,6.967-19.49,16.316-23.946c0.652-0.311,1.086-0.949,1.135-1.669
		c0.049-0.721-0.295-1.412-0.898-1.808c-6.25-4.104-9.98-11.007-9.98-18.465c0-12.177,9.906-22.083,22.082-22.083
		c12.178,0,22.084,9.907,22.084,22.083c0,2.733-0.498,5.408-1.484,7.951c-0.398,1.03,0.113,2.188,1.143,2.587
		c1.033,0.397,2.189-0.113,2.588-1.143c1.164-3.006,1.754-6.167,1.754-9.396c0-14.382-11.701-26.083-26.084-26.083
		c-14.381,0-26.082,11.701-26.082,26.083c0,7.719,3.383,14.934,9.186,19.862c-9.709,5.878-15.828,16.556-15.828,28.026
		c0,1.104,0.896,2,2,2h31.869c1.104,0,2-0.896,2-2S45.557,83.504,44.453,83.504z"/>
</g>
</svg>
