<?xml version="1.0" encoding="utf-8"?>
<!-- Generator: Adobe Illustrator 16.0.4, SVG Export Plug-In . SVG Version: 6.00 Build 0)  -->
<!DOCTYPE svg PUBLIC "-//W3C//DTD SVG 1.1//EN" "http://www.w3.org/Graphics/SVG/1.1/DTD/svg11.dtd">
<svg version="1.1" id="Capa_1" xmlns="http://www.w3.org/2000/svg" xmlns:xlink="http://www.w3.org/1999/xlink" x="0px" y="0px"
	 width="100px" height="100px" viewBox="0 0 100 100" enable-background="new 0 0 100 100" xml:space="preserve">
<g id="Layer_8">
	<path d="M76.666,25.666H79.2v7.666h-2.534c-0.551,0-1-0.447-1-1v-5.666C75.666,26.115,76.115,25.666,76.666,25.666z M75.666,58.5
		v5.666c0,0.553,0.449,1,1,1H79.2V57.5h-2.534C76.115,57.5,75.666,57.949,75.666,58.5z M45.291,41.494l-5.489-5.488
		c-2.088,2.412-3.361,5.549-3.361,8.984c0,3.434,1.273,6.57,3.362,8.984l5.488-5.489V41.494z M53.697,40.08l5.486-5.488
		c-2.412-2.088-5.55-3.361-8.983-3.361c-3.434,0-6.571,1.273-8.984,3.361l5.488,5.488H53.697z M55.109,41.494v6.992l5.488,5.489
		c2.088-2.414,3.361-5.552,3.361-8.984c0-3.433-1.271-6.57-3.361-8.984L55.109,41.494z M79.2,19.24v4.426h-2.534
		c-1.654,0-3,1.346-3,3v5.666c0,1.654,1.346,3,3,3H79.2V55.5h-2.534c-1.654,0-3,1.346-3,3v5.666c0,1.654,1.346,3,3,3H79.2v3.574
		c0,0.551-0.448,1-1,1h-56c-0.552,0-1-0.449-1-1v-51.5c0-0.553,0.448-1,1-1h56C78.752,18.24,79.2,18.688,79.2,19.24z M65.96,44.99
		c0-8.691-7.069-15.76-15.76-15.76c-8.691,0-15.76,7.068-15.76,15.76c0,8.689,7.069,15.76,15.76,15.76
		C58.891,60.75,65.96,53.68,65.96,44.99z M46.705,49.898l-5.489,5.491c2.413,2.088,5.55,3.36,8.984,3.36
		c3.434,0,6.571-1.272,8.983-3.36l-5.488-5.491H46.705z M85.666,10.5v71.334V89.5H67l-1.4-7.666H34.4L33,89.5H14.334v-7.666V10.5
		H85.666z M83.666,26.666c0-1.471-1.066-2.691-2.466-2.945v-4.48c0-1.654-1.347-3-3-3h-56c-1.654,0-3,1.346-3,3v51.5
		c0,1.653,1.346,3,3,3h56c1.653,0,3-1.347,3-3v-3.627c1.399-0.255,2.466-1.476,2.466-2.947V58.5c0-1.471-1.066-2.691-2.466-2.945
		V35.279c1.399-0.254,2.466-1.475,2.466-2.947V26.666z"/>
</g>
</svg>
