<?xml version="1.0" encoding="utf-8"?>
<!-- Generator: Adobe Illustrator 16.0.4, SVG Export Plug-In . SVG Version: 6.00 Build 0)  -->
<!DOCTYPE svg PUBLIC "-//W3C//DTD SVG 1.1//EN" "http://www.w3.org/Graphics/SVG/1.1/DTD/svg11.dtd">
<svg version="1.1" id="Capa_1" xmlns="http://www.w3.org/2000/svg" xmlns:xlink="http://www.w3.org/1999/xlink" x="0px" y="0px"
	 width="100px" height="100px" viewBox="0 0 100 100" enable-background="new 0 0 100 100" xml:space="preserve">
<g id="Layer_8">
	<path d="M85.666,10.5v9H81.2v-0.26c0-1.654-1.347-3-3-3h-56c-1.654,0-3,1.346-3,3v51.5c0,1.654,1.346,3,3,3h56c1.653,0,3-1.346,3-3
		v-3.627c0.739-0.135,1.381-0.545,1.825-1.113h2.641v23.5H67l-1.4-7.666H34.4L33,89.5H14.334v-79H85.666z M83.333,50.234
		c0.342,0,0.838-0.691,1.229-2.001L83.33,44.13l-1.229,4.095C82.493,49.54,82.99,50.234,83.333,50.234z M85.166,43.4
		c0-1.646-0.162-2.999-0.396-4.059l-1.178,3.919l1.209,4.025C85.016,46.251,85.166,44.964,85.166,43.4z M81.5,43.4
		c0,1.559,0.148,2.842,0.363,3.875l1.205-4.015l-1.174-3.909C81.662,40.41,81.5,41.759,81.5,43.4z M84.521,38.422
		c-0.385-1.22-0.858-1.855-1.188-1.855c-0.331,0-0.808,0.639-1.192,1.864l1.189,3.962L84.521,38.422z M78.332,20.8l7.334,2.801
		v15.214c-0.464-1.896-1.245-3.248-2.333-3.248c-1.86,0-2.833,3.941-2.833,7.834s0.973,7.833,2.833,7.833
		c1.088,0,1.869-1.352,2.333-3.248V63.2L78.332,66v-0.7h-0.166v4.396c0,1.669-1.355,3.025-3.021,3.025H24.37
		c-1.665,0-3.021-1.356-3.021-3.025V20.826c0-1.668,1.355-3.025,3.021-3.025h50.774c1.656,0,3.004,1.344,3.019,3L78.332,20.8
		L78.332,20.8z M76.166,65.3h-5.5v-1.75h-3.05v-40h3.05V20.8h5.495c-0.015-0.553-0.462-1-1.017-1H24.37
		c-0.563,0-1.021,0.46-1.021,1.025v48.87c0,0.564,0.458,1.024,1.021,1.024h50.774c0.562,0,1.021-0.46,1.021-1.024L76.166,65.3
		L76.166,65.3z M28.667,34.332h33.666v-2H28.667V34.332z M28.667,48.182h33.666v-2H28.667V48.182z M28.667,62.333h33.666v-2H28.667
		V62.333z"/>
</g>
</svg>
