<?xml version="1.0" encoding="utf-8"?>
<!-- Generator: Adobe Illustrator 16.0.4, SVG Export Plug-In . SVG Version: 6.00 Build 0)  -->
<!DOCTYPE svg PUBLIC "-//W3C//DTD SVG 1.1//EN" "http://www.w3.org/Graphics/SVG/1.1/DTD/svg11.dtd">
<svg version="1.1" id="Capa_1" xmlns="http://www.w3.org/2000/svg" xmlns:xlink="http://www.w3.org/1999/xlink" x="0px" y="0px"
	 width="100px" height="100px" viewBox="0 0 100 100" enable-background="new 0 0 100 100" xml:space="preserve">
<g id="Layer_8">
	<path d="M86.279,10.5v9h-4.465v-0.26c0-1.654-1.347-3-3-3h-56c-1.654,0-3,1.346-3,3v51.5c0,1.654,1.346,3,3,3h56
		c1.653,0,3-1.346,3-3v-3.627c0.74-0.135,1.381-0.545,1.826-1.113h2.639v23.5H67.613l-1.399-7.666H35.015l-1.4,7.666H14.948v-79
		H86.279z M83.947,50.234c0.342,0,0.838-0.691,1.229-2.001l-1.232-4.104l-1.229,4.095C83.107,49.54,83.604,50.234,83.947,50.234z
		 M85.779,43.4c0-1.646-0.161-2.999-0.396-4.059l-1.177,3.919l1.209,4.025C85.63,46.251,85.779,44.964,85.779,43.4z M82.113,43.4
		c0,1.559,0.15,2.842,0.365,3.875l1.205-4.015l-1.175-3.909C82.275,40.41,82.113,41.759,82.113,43.4z M85.137,38.422
		c-0.385-1.22-0.859-1.855-1.188-1.855c-0.331,0-0.808,0.639-1.192,1.864l1.189,3.962L85.137,38.422z M78.945,20.8l7.334,2.801
		v15.214c-0.463-1.896-1.244-3.248-2.332-3.248c-1.86,0-2.834,3.941-2.834,7.834s0.974,7.833,2.834,7.833
		c1.088,0,1.869-1.352,2.332-3.248V63.2L78.945,66v-0.7h-0.166v4.396c0,1.669-1.354,3.025-3.021,3.025H24.984
		c-1.665,0-3.021-1.356-3.021-3.025V20.826c0-1.668,1.355-3.025,3.021-3.025h50.774c1.657,0,3.006,1.344,3.02,3L78.945,20.8
		L78.945,20.8z M76.779,65.3h-5.5v-1.75H68.23v-40h3.049V20.8h5.496c-0.016-0.553-0.463-1-1.018-1H24.984
		c-0.563,0-1.021,0.46-1.021,1.025v48.87c0,0.564,0.458,1.024,1.021,1.024h50.774c0.562,0,1.021-0.46,1.021-1.024V65.3L76.779,65.3z
		 M29.281,34.332h33.667v-2H29.281V34.332z M29.281,48.182h33.667v-2H29.281V48.182z M29.281,62.333h33.667v-2H29.281V62.333z
		 M31.079,30.562h6.797c0.586,0,1.061-0.475,1.061-1.061l-0.742-3c-0.197-0.617-0.474-1.061-1.06-1.061h-5.313
		c-0.586,0-0.884,0.339-1.061,1.061l-0.741,3C30.02,30.087,30.493,30.562,31.079,30.562z M42.733,30.562h6.798
		c0.585,0,1.06-0.475,1.06-1.061l-0.742-3c-0.198-0.617-0.475-1.061-1.059-1.061h-5.315c-0.585,0-0.882,0.339-1.06,1.061l-0.742,3
		C41.673,30.087,42.148,30.562,42.733,30.562z M54.352,30.562h6.799c0.586,0,1.06-0.475,1.06-1.061l-0.742-3
		c-0.198-0.617-0.474-1.061-1.06-1.061h-5.312c-0.587,0-0.883,0.339-1.061,1.061l-0.742,3
		C53.292,30.087,53.768,30.562,54.352,30.562z M37.876,44.601c0.586,0,1.061-0.475,1.061-1.061l-0.742-3
		c-0.197-0.617-0.474-1.061-1.06-1.061h-5.313c-0.586,0-0.884,0.339-1.061,1.061l-0.741,3c0,0.586,0.474,1.061,1.06,1.061H37.876z
		 M49.531,44.601c0.585,0,1.06-0.475,1.06-1.061l-0.742-3c-0.198-0.617-0.475-1.061-1.059-1.061h-5.315
		c-0.585,0-0.882,0.339-1.06,1.061l-0.742,3c0,0.586,0.476,1.061,1.061,1.061H49.531z M61.148,44.601
		c0.586,0,1.061-0.475,1.061-1.061l-0.742-3c-0.197-0.617-0.474-1.061-1.06-1.061h-5.313c-0.586,0-0.882,0.339-1.06,1.061l-0.742,3
		c0,0.586,0.476,1.061,1.06,1.061H61.148z"/>
</g>
</svg>
