<?xml version="1.0" encoding="utf-8"?>
<!-- Generator: Adobe Illustrator 16.0.0, SVG Export Plug-In . SVG Version: 6.00 Build 0)  -->
<!DOCTYPE svg PUBLIC "-//W3C//DTD SVG 1.1//EN" "http://www.w3.org/Graphics/SVG/1.1/DTD/svg11.dtd">
<svg version="1.1" id="Layer_9" xmlns="http://www.w3.org/2000/svg" xmlns:xlink="http://www.w3.org/1999/xlink" x="0px" y="0px"
	 width="100px" height="100px" viewBox="0 0 100 100" enable-background="new 0 0 100 100" xml:space="preserve">
<path d="M83.355,24.407L67.965,10.071c-0.35-0.327-0.811-0.507-1.287-0.507H25.805c-1.043,0-1.891,0.847-1.891,1.89V63.72
	l3.065-3.065l0,0l0.714-0.714V13.344h35.27v14.183c0,1.043,0.846,1.89,1.889,1.89h15.326v52.365H44.341l-3.779,3.778h41.505
	c1.045,0,1.891-0.846,1.891-1.89V25.79C83.957,25.266,83.738,24.764,83.355,24.407z M66.742,25.637v-11.54l12.389,11.54H66.742z
	 M43.627,77.854L31.045,90.436L28.89,88.28c-2.902,1.007-6.25,0.36-8.568-1.958c-2.318-2.317-2.965-5.666-1.957-8.568l-2.321-2.32
	l12.583-12.582l0.587,0.587c0.717,0.717,1.879,0.717,2.597,0c0.717-0.718,0.717-1.88,0-2.597l-0.588-0.587l11.693-11.692
	l1.973,1.973c3.14-1.709,7.149-1.241,9.806,1.415s3.125,6.666,1.415,9.806l1.808,1.808L46.224,75.257l-0.587-0.588
	c-0.717-0.717-1.879-0.717-2.597,0c-0.717,0.718-0.717,1.88,0,2.597L43.627,77.854z"/>
</svg>
