<?xml version="1.0" encoding="utf-8"?>
<!-- Generator: Adobe Illustrator 16.0.4, SVG Export Plug-In . SVG Version: 6.00 Build 0)  -->
<!DOCTYPE svg PUBLIC "-//W3C//DTD SVG 1.1//EN" "http://www.w3.org/Graphics/SVG/1.1/DTD/svg11.dtd">
<svg version="1.1" id="Capa_1" xmlns="http://www.w3.org/2000/svg" xmlns:xlink="http://www.w3.org/1999/xlink" x="0px" y="0px"
	 width="100px" height="100px" viewBox="0 0 100 100" enable-background="new 0 0 100 100" xml:space="preserve">
<g id="Layer_8">
	<path d="M95.344,10.5v9h-4.465v-0.26c0-1.654-1.346-3-3-3h-56c-1.654,0-3,1.346-3,3v1.974c-0.342,0.155-0.674,0.334-0.977,0.562
		c-1.967,1.485-2.707,4.123-1.801,6.411l2.492,6.31h-4.582V10.5H95.344z M90.879,67.113v3.627c0,1.654-1.346,3-3,3h-56
		c-1.654,0-3-1.346-3-3v-1.961c-0.332-0.155-0.652-0.334-0.953-0.557c-1.992-1.5-2.734-4.142-1.82-6.438l2.488-6.302h-4.582V89.5
		h18.666l1.4-7.666h31.199l1.399,7.666h18.666V66h-2.639C92.26,66.568,91.619,66.979,90.879,67.113z M93.012,50.234
		c0.342,0,0.838-0.691,1.229-2.001l-1.232-4.104l-1.229,4.095C92.172,49.54,92.668,50.234,93.012,50.234z M94.844,43.4
		c0-1.646-0.162-2.999-0.396-4.059L93.27,43.26l1.209,4.025C94.693,46.251,94.844,44.964,94.844,43.4z M91.178,43.4
		c0,1.559,0.15,2.842,0.365,3.875l1.205-4.015l-1.174-3.909C91.34,40.41,91.178,41.759,91.178,43.4z M94.201,38.422
		c-0.385-1.22-0.859-1.855-1.189-1.855c-0.332,0-0.807,0.639-1.193,1.864l1.189,3.962L94.201,38.422z M87.842,20.8
		c-0.014-1.656-1.361-3-3.02-3H34.049c-1.629,0-2.951,1.3-3.01,2.917c0.674-0.02,1.352,0.065,1.988,0.278v-0.17
		c0-0.565,0.459-1.025,1.021-1.025H84.82c0.556,0,1.003,0.447,1.019,1h-5.496v2.75h-3.049v40h3.049v1.75h5.5v4.396
		c0,0.565-0.456,1.025-1.021,1.025H34.049c-0.563,0-1.021-0.46-1.021-1.025v-0.693c-0.582,0.203-1.195,0.312-1.813,0.312
		c-0.064,0-0.125-0.013-0.188-0.015v0.396c0,1.669,1.355,3.025,3.021,3.025H84.82c1.666,0,3.021-1.356,3.021-3.025V65.3h0.166V66
		l7.334-2.801V47.986c-0.463,1.896-1.244,3.249-2.332,3.249c-1.861,0-2.834-3.941-2.834-7.834s0.973-7.834,2.834-7.834
		c1.088,0,1.869,1.352,2.332,3.248V23.601L88.01,20.8H87.842z M72.012,32.332H48.258l2.602,2h21.152V32.332z M72.012,46.182H61.064
		c-0.162,0.721-0.474,1.399-0.898,2h11.846V46.182z M42.166,62.333h29.846v-2H44.768L42.166,62.333z M29.586,63.172
		c-0.166,0.418-0.031,0.895,0.328,1.164c0.18,0.135,0.389,0.201,0.6,0.201c0.215,0,0.43-0.068,0.609-0.207l24.486-18.824
		C55.857,45.316,56,45.023,56,44.713s-0.143-0.604-0.391-0.793L31.123,25.098c-0.355-0.275-0.852-0.277-1.209-0.008
		c-0.359,0.271-0.494,0.748-0.328,1.166l4.924,12.463H5.654c-0.553,0-0.998,0.449-0.998,1v9.988c0,0.553,0.445,1,0.998,1H34.51
		L29.586,63.172z"/>
</g>
</svg>
