<?xml version="1.0" encoding="utf-8"?>
<!-- Generator: Adobe Illustrator 16.0.0, SVG Export Plug-In . SVG Version: 6.00 Build 0)  -->
<!DOCTYPE svg PUBLIC "-//W3C//DTD SVG 1.1//EN" "http://www.w3.org/Graphics/SVG/1.1/DTD/svg11.dtd">
<svg version="1.1" id="Layer_9" xmlns="http://www.w3.org/2000/svg" xmlns:xlink="http://www.w3.org/1999/xlink" x="0px" y="0px"
	 width="100px" height="100px" viewBox="0 0 100 100" enable-background="new 0 0 100 100" xml:space="preserve">
<path d="M17.529,9.364v81.272h5.697V73.041h53.928v17.596h5.316V9.364H17.529z M77.154,70.002H61.203V58.039h-4.367v11.964h-1.709
	V58.039H50.76v11.964h-1.52V58.039h-4.367v11.964h-1.805V58.039h-4.367v11.964h-1.709V58.039h-4.367v11.964h-1.52V58.039h-4.367
	v11.964h-3.512V52.658h53.928V70.002z M77.154,49.621h-3.08l0.914-0.208l-2.803-12.345l-4.258,0.967l2.629,11.586h-2.629V38.035
	v-0.641h-4.367v12.227H43.164V37.34h-4.367v12.28h-1.709V37.34h-4.367v12.28h-1.52V37.34h-4.367v12.28h-3.607V33.417h53.928V49.621z
	 M77.154,30.378h-1.803V17.719h-4.369v12.659h-1.709V17.719h-4.367v12.659h-1.52V17.719H59.02v12.659H37.342l2.82-0.641
	l-2.803-12.346L33.1,18.36l2.729,12.019H33.1V18.36v-0.641h-4.367v12.659h-5.506V12.402h53.928V30.378z"/>
</svg>
