<?xml version="1.0" encoding="utf-8"?>
<!-- Generator: Adobe Illustrator 16.0.0, SVG Export Plug-In . SVG Version: 6.00 Build 0)  -->
<!DOCTYPE svg PUBLIC "-//W3C//DTD SVG 1.1//EN" "http://www.w3.org/Graphics/SVG/1.1/DTD/svg11.dtd">
<svg version="1.1" id="Layer_9" xmlns="http://www.w3.org/2000/svg" xmlns:xlink="http://www.w3.org/1999/xlink" x="0px" y="0px"
	 width="100px" height="100px" viewBox="0 0 100 100" enable-background="new 0 0 100 100" xml:space="preserve">
<path d="M51.316,68.3c-4.576,0-8.299,3.723-8.299,8.3s3.723,8.3,8.299,8.3s8.301-3.723,8.301-8.3S55.893,68.3,51.316,68.3z
	 M51.316,80.9c-2.371,0-4.299-1.929-4.299-4.3s1.928-4.3,4.299-4.3s4.301,1.929,4.301,4.3S53.688,80.9,51.316,80.9z M86.172,15.1
	h-9.967l-8.695,20h-4.361l0.674-1.901l-3.162-1.121c0.979-1.399,2.426-3.931,1.057-5.804c-1.59-2.171-6.139-1.554-9.816-0.6
	c-2.256-3.056-5.402-6.4-8.004-5.713c-2.242,0.593-2.713,3.472-2.832,5.174L37.9,24.016L33.975,35.1h-4.572l-2.707-4.869
	l-7.865,4.372l0.275,0.497h-8.277l8,32h41.311l20-46h6.033c1.656,0,3-1.343,3-3S87.828,15.1,86.172,15.1z M59.275,28.008
	c0.002,0.007,0.139,0.76-1.514,2.955c-0.018,0.023-0.027,0.049-0.045,0.073l-3.434-1.217c0.029-0.313-0.033-0.637-0.211-0.925
	c-0.105-0.17-0.223-0.357-0.344-0.55C56.502,27.727,58.793,27.548,59.275,28.008z M44.018,26.094
	c0.096-2.681,0.652-3.219,0.635-3.229c0.699-0.063,2.379,1.513,4.146,3.734c-0.217,0.072-0.424,0.144-0.611,0.209
	c-0.32,0.112-0.572,0.325-0.746,0.586l-3.436-1.217C44.01,26.15,44.018,26.123,44.018,26.094z M48.461,30.144l2.828,1.002
	l-1.4,3.955h-3.184L48.461,30.144z M44.58,41.1h3.182l-2.563,7.233h-3.182L44.58,41.1z M18.514,41.1h3.926l4.02,7.233h-6.137
	L18.514,41.1z M56.205,61.1H23.514l-1.691-6.767h7.971l3.244,5.837l7.867-4.372l-0.814-1.465h2.984l-0.217,0.613l11.781,4.174
	l1.697-4.787h2.811L56.205,61.1z M61.703,48.452c-0.252-0.069-0.514-0.119-0.791-0.119h-2.451l2.563-7.233H64.9L61.703,48.452z
	 M29.258,68.3c-4.576,0-8.299,3.723-8.299,8.3s3.723,8.3,8.299,8.3s8.301-3.723,8.301-8.3S33.834,68.3,29.258,68.3z M29.258,80.9
	c-2.371,0-4.299-1.929-4.299-4.3s1.928-4.3,4.299-4.3s4.301,1.929,4.301,4.3S31.629,80.9,29.258,80.9z"/>
</svg>
