<?xml version="1.0" encoding="utf-8"?>
<!-- Generator: Adobe Illustrator 16.0.0, SVG Export Plug-In . SVG Version: 6.00 Build 0)  -->
<!DOCTYPE svg PUBLIC "-//W3C//DTD SVG 1.1//EN" "http://www.w3.org/Graphics/SVG/1.1/DTD/svg11.dtd">
<svg version="1.1" id="Layer_9" xmlns="http://www.w3.org/2000/svg" xmlns:xlink="http://www.w3.org/1999/xlink" x="0px" y="0px"
	 width="100px" height="100px" viewBox="0 0 100 100" enable-background="new 0 0 100 100" xml:space="preserve">
<path d="M89.171,18.1c0,1.657-1.343,3-3,3h-6.033l-20,46h-41.31l-8-32h38.843c1.657,0,3,1.343,3,3s-1.343,3-3,3H18.514l5,20h32.69
	l20-46h9.967C87.829,15.1,89.171,16.443,89.171,18.1z M37.558,76.6c0,4.577-3.724,8.3-8.3,8.3s-8.3-3.723-8.3-8.3s3.724-8.3,8.3-8.3
	S37.558,72.023,37.558,76.6z M33.558,76.6c0-2.371-1.929-4.3-4.3-4.3s-4.3,1.929-4.3,4.3s1.929,4.3,4.3,4.3
	S33.558,78.971,33.558,76.6z M59.617,76.6c0,4.577-3.724,8.3-8.3,8.3s-8.3-3.723-8.3-8.3s3.724-8.3,8.3-8.3
	S59.617,72.023,59.617,76.6z M55.617,76.6c0-2.371-1.929-4.3-4.3-4.3s-4.3,1.929-4.3,4.3s1.929,4.3,4.3,4.3
	S55.617,78.971,55.617,76.6z"/>
</svg>
