<?xml version="1.0" encoding="utf-8"?>
<!-- Generator: Adobe Illustrator 16.0.0, SVG Export Plug-In . SVG Version: 6.00 Build 0)  -->
<!DOCTYPE svg PUBLIC "-//W3C//DTD SVG 1.1//EN" "http://www.w3.org/Graphics/SVG/1.1/DTD/svg11.dtd">
<svg version="1.1" id="Layer_9" xmlns="http://www.w3.org/2000/svg" xmlns:xlink="http://www.w3.org/1999/xlink" x="0px" y="0px"
	 width="100px" height="100px" viewBox="0 0 100 100" enable-background="new 0 0 100 100" xml:space="preserve">
<path d="M29.258,68.3c-4.576,0-8.3,3.723-8.3,8.3s3.724,8.3,8.3,8.3s8.3-3.723,8.3-8.3S33.834,68.3,29.258,68.3z M29.258,80.9
	c-2.371,0-4.3-1.929-4.3-4.3s1.929-4.3,4.3-4.3s4.3,1.929,4.3,4.3S31.629,80.9,29.258,80.9z M86.171,15.1h-9.967l-8.696,20h-56.68
	l8,32h41.31l20-46h6.033c1.657,0,3-1.343,3-3S87.829,15.1,86.171,15.1z M64.9,41.1l-3.197,7.352
	c-0.253-0.069-0.515-0.119-0.791-0.119h-40.59L18.514,41.1H64.9z M23.514,61.1l-1.692-6.767h37.324L56.205,61.1H23.514z
	 M51.317,68.3c-4.576,0-8.3,3.723-8.3,8.3s3.724,8.3,8.3,8.3s8.3-3.723,8.3-8.3S55.893,68.3,51.317,68.3z M51.317,80.9
	c-2.371,0-4.3-1.929-4.3-4.3s1.929-4.3,4.3-4.3s4.3,1.929,4.3,4.3S53.688,80.9,51.317,80.9z"/>
</svg>
