<?xml version="1.0" encoding="utf-8"?>
<!-- Generator: Adobe Illustrator 16.0.0, SVG Export Plug-In . SVG Version: 6.00 Build 0)  -->
<!DOCTYPE svg PUBLIC "-//W3C//DTD SVG 1.1//EN" "http://www.w3.org/Graphics/SVG/1.1/DTD/svg11.dtd">
<svg version="1.1" id="Layer_9" xmlns="http://www.w3.org/2000/svg" xmlns:xlink="http://www.w3.org/1999/xlink" x="0px" y="0px"
	 width="100px" height="100px" viewBox="0 0 100 100" enable-background="new 0 0 100 100" xml:space="preserve">
<path d="M85.199,29.968h-1.5l5.54-5.54c1.78-1.781,1.78-4.666,0-6.446c-1.78-1.781-4.666-1.781-6.446,0l-8.637,8.637
	c-0.208-0.019-0.408-0.063-0.621-0.063c-2.589,0-4.844,1.369-6.125,3.412H32.168c-1.282-2.043-3.537-3.412-6.125-3.412
	c-0.213,0-0.414,0.044-0.621,0.063l-8.637-8.637c-1.78-1.781-4.666-1.781-6.445,0c-1.781,1.78-1.781,4.665,0,6.446l5.539,5.54
	h-1.078c-3.338,0-6.043,2.706-6.043,6.042v4.23c0,3.152,2.424,5.711,5.504,5.988l4.535,30.112c0,3.872,3.139,7.012,7.012,7.012
	h48.382c3.873,0,7.012-3.14,7.012-7.012l4.535-30.112c3.081-0.277,5.504-2.836,5.504-5.988v-4.23
	C91.243,32.674,88.537,29.968,85.199,29.968z M36.767,76.338h-10.82l-1.542-11.836h12.362V76.338z M36.767,59.898H23.704
	l-1.403-11.837h14.466V59.898z M55.509,76.338H44.548V64.501h10.961V76.338z M55.509,59.898H44.548V48.062h10.961V59.898z
	 M72.812,76.338h-8.645V64.501h10.748L72.812,76.338z M75.83,59.898H64.167V48.062h13.766L75.83,59.898z"/>
</svg>
