<?xml version="1.0" encoding="utf-8"?>
<!-- Generator: Adobe Illustrator 16.0.0, SVG Export Plug-In . SVG Version: 6.00 Build 0)  -->
<!DOCTYPE svg PUBLIC "-//W3C//DTD SVG 1.1//EN" "http://www.w3.org/Graphics/SVG/1.1/DTD/svg11.dtd">
<svg version="1.1" id="Layer_9" xmlns="http://www.w3.org/2000/svg" xmlns:xlink="http://www.w3.org/1999/xlink" x="0px" y="0px"
	 width="100px" height="100px" viewBox="0 0 100 100" enable-background="new 0 0 100 100" xml:space="preserve">
<path d="M78.829,79.583c-1.991-7.839-7.883-34.746-0.104-51.861c0.008-0.017,0.009-0.035,0.016-0.052
	c0.042-0.1,0.073-0.201,0.095-0.306c0.006-0.026,0.015-0.051,0.02-0.076c0.021-0.13,0.028-0.262,0.021-0.394
	c-0.002-0.024-0.009-0.048-0.011-0.071c-0.011-0.106-0.031-0.211-0.063-0.315c-0.011-0.037-0.024-0.073-0.038-0.109
	c-0.034-0.091-0.077-0.179-0.127-0.265c-0.012-0.021-0.018-0.046-0.032-0.069c-0.008-0.013-0.021-0.021-0.028-0.034
	c-0.014-0.02-0.022-0.042-0.037-0.062l-5.594-7.522c-0.327-0.44-0.844-0.7-1.394-0.7H26.61c-0.651,0-1.248,0.364-1.545,0.944
	l-3.857,7.522c-0.017,0.033-0.024,0.068-0.04,0.102c-0.02,0.044-0.037,0.088-0.053,0.135c-0.028,0.083-0.049,0.167-0.063,0.252
	c-0.008,0.04-0.017,0.079-0.021,0.12c-0.011,0.113-0.013,0.225-0.002,0.337c0.001,0.015-0.001,0.029,0,0.044
	c0.015,0.126,0.046,0.251,0.088,0.372c0.004,0.01,0.004,0.02,0.007,0.03c8.218,22.36,2.433,45.586,0.464,52.172
	c-0.113,0.379-0.323,1.085,0.208,1.789c0.327,0.434,0.842,0.689,1.385,0.689c0.008,0,0.016,0,0.023,0
	c0.471-0.006,0.815-0.168,1.071-0.395h51.98c0.247,0.183,0.569,0.31,0.993,0.31c0.536,0,1.042-0.248,1.371-0.671
	C79.144,80.824,78.984,80.193,78.829,79.583z M27.672,21.218H70.68l3.012,4.05H25.594L27.672,21.218z M25.583,78.387
	c2.293-8.679,6.271-29.232-0.392-49.646h49.365c-6.205,16.747-1.844,40.09,0.406,49.646H25.583z M60.987,33.956
	c0,0.526-0.156,1.012-0.415,1.428c1.507,6.136-4.05,12.126-10.266,12.968c-7.426,1.006-11.034-6.005-11.431-12.338
	c-0.587-0.497-0.967-1.229-0.967-2.058c0-1.495,1.213-2.708,2.708-2.708c1.496,0,2.708,1.212,2.708,2.708
	c0,1.283-0.893,2.351-2.09,2.631c0.446,4.603,2.681,9.82,8.067,9.529c4.781-0.258,9.832-4.659,9.179-9.472
	c-0.067,0.004-0.133,0.02-0.202,0.02c-1.496,0-2.708-1.212-2.708-2.709c0-1.495,1.212-2.708,2.708-2.708
	C59.774,31.249,60.987,32.461,60.987,33.956z"/>
</svg>
