<?xml version="1.0" encoding="utf-8"?>
<!-- Generator: Adobe Illustrator 16.0.0, SVG Export Plug-In . SVG Version: 6.00 Build 0)  -->
<!DOCTYPE svg PUBLIC "-//W3C//DTD SVG 1.1//EN" "http://www.w3.org/Graphics/SVG/1.1/DTD/svg11.dtd">
<svg version="1.1" id="Layer_9" xmlns="http://www.w3.org/2000/svg" xmlns:xlink="http://www.w3.org/1999/xlink" x="0px" y="0px"
	 width="100px" height="100px" viewBox="0 0 100 100" enable-background="new 0 0 100 100" xml:space="preserve">
<path d="M80.5,40.583v12h-5.166V17.461L64.455,6.583H24.334v46H19.5v-12h-6v12v9.334v31.5h8.666v-31.5h5.168v19.666h5v11.834h7
	V80.75h3h2h3v11.001h7V87.75h5v-6.167h3v11.834h7V80.75h5V61.917h3.498v31.5H86.5v-31.5V40.583H80.5z M65.334,11.704l4.879,4.879
	h-4.879V11.704z M32.334,79.583h-3V61.917h3V79.583z M37.334,80.75v10.667h-3v-9.834V61.917h3V80.75z M42.334,78.75h-3V61.917h3
	V78.75z M47.334,78.75h-3V61.917h3V78.75z M52.334,87.75v2.001h-3V80.75V61.917h3V87.75z M57.334,81.583v4.167h-3V61.917h3V81.583z
	 M62.334,79.583h-3V61.917h3V79.583z M67.334,80.75v10.667h-3v-9.834V61.917h3V80.75z M72.334,78.75h-3V61.917h3V78.75z
	 M72.334,52.583h-45v-43h35v10h10V52.583z M76.166,57.083c-0.828,0-1.5-0.671-1.5-1.5c0-0.828,0.672-1.5,1.5-1.5
	c0.83,0,1.5,0.672,1.5,1.5C77.666,56.412,76.996,57.083,76.166,57.083z"/>
</svg>
