<?xml version="1.0" encoding="utf-8"?>
<!-- Generator: Adobe Illustrator 16.0.0, SVG Export Plug-In . SVG Version: 6.00 Build 0)  -->
<!DOCTYPE svg PUBLIC "-//W3C//DTD SVG 1.1//EN" "http://www.w3.org/Graphics/SVG/1.1/DTD/svg11.dtd">
<svg version="1.1" id="Layer_9" xmlns="http://www.w3.org/2000/svg" xmlns:xlink="http://www.w3.org/1999/xlink" x="0px" y="0px"
	 width="100px" height="100px" viewBox="0 0 100 100" enable-background="new 0 0 100 100" xml:space="preserve">
<g>
	<polygon points="18.398,54.067 18.398,55.319 27.057,55.319 30.186,58.448 34.355,58.448 34.355,57.196 30.703,57.196 
		27.574,54.067 	"/>
	<path d="M41.865,38.736c0-1.381-1.123-2.503-2.504-2.503H18.398c-1.381,0-2.504,1.122-2.504,2.503v6.385
		c-0.047,0.211-0.078,0.429-0.078,0.655c0,0.226,0.031,0.443,0.078,0.655V59.7c0,1.38,1.123,2.503,2.504,2.503h20.963
		c1.381,0,2.504-1.123,2.504-2.503v-7.911c0.047-0.211,0.078-0.429,0.078-0.654c0-0.227-0.031-0.444-0.078-0.655V38.736z
		 M18.396,44.104c0.127-0.029,0.258-0.049,0.393-0.049h7.119c0.949,0,1.721,0.771,1.721,1.721s-0.771,1.721-1.721,1.721h-7.119
		c-0.135,0-0.266-0.02-0.393-0.049V44.104z M39.361,52.807c-0.125,0.029-0.256,0.049-0.391,0.049h-7.117
		c-0.949,0-1.723-0.772-1.723-1.721c0-0.949,0.773-1.722,1.723-1.722h7.117c0.135,0,0.266,0.02,0.391,0.049V52.807z M39.361,42.804
		h-6.703l-3.129-3.129h-4.17v1.252h3.652l3.129,3.129h7.221v4.146c-0.129-0.018-0.256-0.039-0.391-0.039h-7.117
		c-1.641,0-2.973,1.333-2.973,2.973c0,1.639,1.332,2.972,2.973,2.972h7.117c0.135,0,0.262-0.021,0.391-0.039V59.7H18.398
		l-0.002-10.991c0.131,0.017,0.26,0.04,0.393,0.04h7.119c1.639,0,2.973-1.334,2.973-2.973c0-1.64-1.334-2.973-2.973-2.973h-7.119
		c-0.135,0-0.262,0.022-0.393,0.04v-4.107h0.002h20.963V42.804z"/>
	<path d="M90.988,19.337H9.012c-1.381,0-2.504,1.123-2.504,2.503v56.32c0,1.381,1.123,2.503,2.504,2.503h81.977
		c1.381,0,2.504-1.122,2.504-2.503V21.84C93.492,20.46,92.369,19.337,90.988,19.337z M9.012,78.16V21.84h81.977l0.002,56.32H9.012z"
		/>
	<path d="M81.289,29.35H19.336c-0.518,0-0.938,0.42-0.938,0.938s0.42,0.938,0.938,0.938h61.953c0.52,0,0.939-0.42,0.939-0.938
		S81.809,29.35,81.289,29.35z"/>
</g>
</svg>
