<?xml version="1.0" encoding="utf-8"?>
<!-- Generator: Adobe Illustrator 16.0.4, SVG Export Plug-In . SVG Version: 6.00 Build 0)  -->
<!DOCTYPE svg PUBLIC "-//W3C//DTD SVG 1.1//EN" "http://www.w3.org/Graphics/SVG/1.1/DTD/svg11.dtd">
<svg version="1.1" id="Capa_1" xmlns="http://www.w3.org/2000/svg" xmlns:xlink="http://www.w3.org/1999/xlink" x="0px" y="0px"
	 width="100px" height="100px" viewBox="0 0 100 100" enable-background="new 0 0 100 100" xml:space="preserve">
<g id="Layer_8">
	<path d="M90.914,46.546c0-8.589-2.146-18.873-18.881-22.194c-2.727-0.541-6.562-0.805-11.729-0.805
		c-18.543,0-46.894,3.447-48.093,3.594c-1.405,0.172-2.462,1.365-2.462,2.782v16.623c0,1.548,1.255,2.803,2.803,2.803h38.199
		c-0.269,1.295-0.42,2.633-0.42,4.008c0,0.269,0.015,0.531,0.025,0.797H16.1v6.072h35.448c0.341,0.938,0.743,1.848,1.214,2.713
		H9.086v13.477h64.742c0.812,0.1,15.766-0.027,16.605-0.027l0.069-23.029c0-0.772-0.06-1.53-0.146-2.277
		C90.708,49.622,90.914,48.109,90.914,46.546z M70.77,38.448c3.484,0,6.312,2.825,6.312,6.311c0,3.486-2.826,6.31-6.312,6.31
		c-3.484,0-6.31-2.823-6.31-6.31C64.46,41.273,67.284,38.448,70.77,38.448z M51.648,49.349h0.615
		c0.125,0.863,0.326,1.701,0.562,2.523C52.381,51.061,51.98,50.223,51.648,49.349z M66.746,44.759c0-2.14,1.734-3.872,3.872-3.872
		c2.139,0,3.873,1.732,3.873,3.872c0,2.139-1.734,3.871-3.873,3.871C68.48,48.63,66.746,46.897,66.746,44.759z"/>
</g>
</svg>
