<?xml version="1.0" encoding="utf-8"?>
<!-- Generator: Adobe Illustrator 16.0.4, SVG Export Plug-In . SVG Version: 6.00 Build 0)  -->
<!DOCTYPE svg PUBLIC "-//W3C//DTD SVG 1.1//EN" "http://www.w3.org/Graphics/SVG/1.1/DTD/svg11.dtd">
<svg version="1.1" id="Capa_1" xmlns="http://www.w3.org/2000/svg" xmlns:xlink="http://www.w3.org/1999/xlink" x="0px" y="0px"
	 width="100px" height="100px" viewBox="0 0 100 100" enable-background="new 0 0 100 100" xml:space="preserve">
<g id="Layer_8">
	<path d="M84.629,25.209l-48.539-9.66l-0.117-0.023l-15.908,0.029l-4.711-0.006v68.926h69.292V26.883L84.629,25.209z M72.336,41.131
		c-4.553-4.09-18.875-13.865-28.457-20.285l36.791,7.508C79.934,31.502,77.82,37.861,72.336,41.131z M72.805,45
		c3.828-1.838,6.437-4.738,8.207-7.688V80.84H18.988V19.191l0.803-0.002l15.059,0.02c12.104,7.986,32.945,22.104,35.802,25.352
		l0.908,1.033L72.805,45z"/>
</g>
</svg>
