<?xml version="1.0" encoding="utf-8"?>
<!-- Generator: Adobe Illustrator 16.0.4, SVG Export Plug-In . SVG Version: 6.00 Build 0)  -->
<!DOCTYPE svg PUBLIC "-//W3C//DTD SVG 1.1//EN" "http://www.w3.org/Graphics/SVG/1.1/DTD/svg11.dtd">
<svg version="1.1" id="Capa_1" xmlns="http://www.w3.org/2000/svg" xmlns:xlink="http://www.w3.org/1999/xlink" x="0px" y="0px"
	 width="100px" height="100px" viewBox="0 0 100 100" enable-background="new 0 0 100 100" xml:space="preserve">
<g id="Layer_8">
	<path d="M60.999,46.313c0,1.316-1.065,2.384-2.384,2.384c-1.314,0-2.383-1.067-2.383-2.384s1.067-2.383,2.383-2.383
		C59.934,43.929,60.999,44.996,60.999,46.313z M29.467,53.773c1.315,0,2.384-1.066,2.384-2.383c0-1.317-1.068-2.384-2.384-2.384
		c-1.317,0-2.384,1.067-2.384,2.384C27.083,52.706,28.149,53.773,29.467,53.773z M84.1,64.215c-0.828,0.307-1.57,0.434-2.236,0.434
		c-3.377,0-4.719-3.295-4.733-3.336c-7.758-15.934-13.644-19.75-13.7-19.786c-0.353-0.208-0.689-0.385-1.019-0.551
		c1.668,1.189,2.761,3.136,2.761,5.336c0,3.614-2.939,6.555-6.556,6.555c-3.613,0-6.556-2.941-6.556-6.555
		c0-3.026,2.066-5.574,4.859-6.324c-1.554,0.243-3.195,0.87-5.287,1.672c-2.132,0.817-4.784,1.834-8.232,2.767
		c-0.26,0.07-0.509,0.128-0.766,0.193c4.105,5.678,10.637,10.544,20.997,10.544h4.888c2.957,0,5.362,2.406,5.362,5.363v23.639
		c0,2.958-2.405,5.363-5.362,5.363h-44.1c-2.957,0-5.363-2.406-5.363-5.363V60.527c0-2.861,2.257-5.185,5.079-5.334
		c-0.768-1.074-1.224-2.385-1.224-3.803c0-2.685,1.622-4.995,3.938-6.008c-2.342-0.628-4.339-1.679-5.967-3.173
		c-5.294-4.859-5.17-12.771-4.862-16.014C16.669,17.418,24,10.469,32.942,10.469c9.364,0,16.983,7.619,16.983,16.984
		c0,6.399-3.559,11.979-8.801,14.874c0.251,0.419,0.513,0.834,0.786,1.249c0.392-0.098,0.779-0.19,1.178-0.299
		c3.39-0.917,6.011-1.922,8.117-2.729c5.038-1.93,7.812-2.996,12.838-0.041c0.262,0.159,6.211,3.963,14.175,20.328
		c0.079,0.19,1.538,3.708,5.47,2.263L84.1,64.215z M21.918,27.454c0,6.031,4.869,10.94,10.883,11.018
		c-2.255-5.854-2.808-10.577-2.822-10.701c-0.174-1.637,1.011-3.104,2.647-3.28c1.639-0.158,3.102,1.009,3.278,2.642
		c0.049,0.442,0.569,4.734,2.59,9.83c3.268-1.916,5.473-5.455,5.473-9.509c0-6.079-4.945-11.025-11.024-11.025
		S21.918,21.375,21.918,27.454z M21.694,41.337c3.163,2.898,7.875,4.017,14.046,3.364c-0.09-0.158-0.175-0.315-0.262-0.474
		c-0.83,0.125-1.673,0.21-2.536,0.21c-6.26,0-11.726-3.414-14.671-8.467C18.963,37.918,20.03,39.811,21.694,41.337z M24.104,51.391
		c0,1.471,0.596,2.805,1.558,3.773h7.609c0.963-0.969,1.56-2.303,1.56-3.773c0-2.957-2.407-5.363-5.363-5.363
		C26.508,46.027,24.104,48.434,24.104,51.391z M36.408,45.825c-1.088,0.13-2.135,0.207-3.143,0.235
		c1.665,1.189,2.756,3.133,2.756,5.331c0,1.405-0.449,2.705-1.204,3.773h9.932C41.202,52.497,38.481,49.204,36.408,45.825z
		 M58.615,40.949c-2.956,0-5.363,2.406-5.363,5.363c0,2.958,2.407,5.363,5.363,5.363c2.959,0,5.363-2.406,5.363-5.363
		S61.574,40.949,58.615,40.949z"/>
</g>
</svg>
