<?xml version="1.0" encoding="utf-8"?>
<!-- Generator: Adobe Illustrator 16.0.4, SVG Export Plug-In . SVG Version: 6.00 Build 0)  -->
<!DOCTYPE svg PUBLIC "-//W3C//DTD SVG 1.1//EN" "http://www.w3.org/Graphics/SVG/1.1/DTD/svg11.dtd">
<svg version="1.1" id="Capa_1" xmlns="http://www.w3.org/2000/svg" xmlns:xlink="http://www.w3.org/1999/xlink" x="0px" y="0px"
	 width="100px" height="100px" viewBox="0 0 100 100" enable-background="new 0 0 100 100" xml:space="preserve">
<g id="Layer_8">
	<path d="M78.848,30.771l2.48-2.48c0.691,0.32,1.535,0.2,2.105-0.37l0.441-0.441c0.73-0.731,0.73-1.917,0-2.647l-3.177-3.178
		c-0.732-0.731-1.917-0.731-2.648,0l-0.44,0.441c-0.731,0.731-0.731,1.916,0,2.647l0.098,0.097l-2.297,2.298
		c-5.875-5.427-13.506-9.007-22.008-9.778v-2.29h0.332c1.719,0,3.111-1.393,3.111-3.111v-1.038c0-1.719-1.394-3.111-3.111-3.111
		h-7.469c-1.719,0-3.111,1.393-3.111,3.111v1.038c0,1.719,1.393,3.111,3.111,3.111h0.331v2.278
		c-18.325,1.639-33.005,16.546-34.039,35.279c-1.14,20.646,14.729,38.369,35.376,39.509c0.703,0.039,1.4,0.058,2.096,0.058
		c19.883,0,36.317-15.563,37.413-35.434C87.984,46.945,84.678,37.797,78.848,30.771z M82.45,56.482
		c-0.983,17.824-16.212,31.646-34.241,30.66C30.316,86.154,16.563,70.794,17.55,52.9c0.95-17.219,15.19-30.708,32.421-30.708
		c0.604,0,1.208,0.017,1.82,0.05C69.684,23.23,83.438,38.591,82.45,56.482z M55.955,54.691c0,3.289-2.666,5.955-5.955,5.955
		s-5.955-2.666-5.955-5.955c0-2.696,1.794-4.973,4.254-5.705V31.061c0-0.939,0.762-1.702,1.701-1.702
		c0.939,0,1.701,0.763,1.701,1.702v17.927C54.161,49.72,55.955,51.995,55.955,54.691z"/>
</g>
</svg>
