<?xml version="1.0" encoding="utf-8"?>
<!-- Generator: Adobe Illustrator 16.0.0, SVG Export Plug-In . SVG Version: 6.00 Build 0)  -->
<!DOCTYPE svg PUBLIC "-//W3C//DTD SVG 1.1//EN" "http://www.w3.org/Graphics/SVG/1.1/DTD/svg11.dtd">
<svg version="1.1" id="Layer_9" xmlns="http://www.w3.org/2000/svg" xmlns:xlink="http://www.w3.org/1999/xlink" x="0px" y="0px"
	 width="100px" height="100px" viewBox="0 0 100 100" enable-background="new 0 0 100 100" xml:space="preserve">
<path d="M84.62,40.856l-5.787-21.421c-0.177-0.654-0.452-1.272-0.782-1.854c0.49-0.701,0.782-1.55,0.782-2.47
	c0-2.388-1.936-4.323-4.323-4.323H24.985c-2.388,0-4.323,1.935-4.323,4.323c0,1.195,0.484,2.276,1.269,3.059
	c-0.322,0.572-0.589,1.179-0.763,1.821l-5.786,21.421c-0.784,2.901,0.355,5.348,2.584,5.931v41.868h64.433V46.647
	C84.375,45.898,85.357,43.589,84.62,40.856z M66.059,23.025l4.889,18.099c0.076,0.282,0.188,0.552,0.295,0.823
	c-2.183,3.575-5.356,5.127-8.813,4.268c-3.035-0.753-5.152-3.082-5.198-4.735V23.859c0-0.286-0.043-0.56-0.085-0.834H66.059z
	 M29.054,41.68l5.039-18.655h8.484c-0.043,0.274-0.085,0.549-0.085,0.834v17.953l-0.01-0.005c-2.018,3.816-5.136,5.519-8.551,4.67
	c-2.832-0.702-4.805-2.888-4.805-4.41h-0.213C28.958,41.937,29.018,41.813,29.054,41.68z M71.831,85.874H60.985V60.011h10.846
	V85.874z M79.062,85.874h-5.006V57.787H58.761v28.087H21.303V47.525l0.98,0.019c2.318,0.046,4.736-1.696,6.045-4.116
	c0.748,1.81,2.844,3.511,5.336,4.13c0.487,0.121,1.166,0.239,1.963,0.239c1.964,0,4.637-0.721,6.873-3.887
	c0.042,3.016,2.508,4.375,5.554,4.375h3.615c2.627,0,4.814-1.827,5.398-4.275c1.076,1.48,2.955,2.755,5.096,3.285
	c0.521,0.13,1.25,0.256,2.103,0.256c2.158,0,5.11-0.817,7.544-4.428c1.336,2.29,3.67,3.91,5.909,3.866l1.343-0.026V85.874z
	 M29.561,58.899h22.248v12.792H29.561V58.899z M68.402,73.846c0-0.601,0.486-1.088,1.089-1.088c0.602,0,1.088,0.488,1.088,1.088
	c0,0.602-0.486,1.09-1.088,1.09C68.889,74.936,68.402,74.448,68.402,73.846z"/>
</svg>
