<?xml version="1.0" encoding="utf-8"?>
<!-- Generator: Adobe Illustrator 16.0.0, SVG Export Plug-In . SVG Version: 6.00 Build 0)  -->
<!DOCTYPE svg PUBLIC "-//W3C//DTD SVG 1.1//EN" "http://www.w3.org/Graphics/SVG/1.1/DTD/svg11.dtd">
<svg version="1.1" id="Layer_9" xmlns="http://www.w3.org/2000/svg" xmlns:xlink="http://www.w3.org/1999/xlink" x="0px" y="0px"
	 width="100px" height="100px" viewBox="0 0 100 100" enable-background="new 0 0 100 100" xml:space="preserve">
<g>
	<path d="M20.75,21.833v56.333c0,2.761,2.239,5,5,5h36.195V16.833H25.75C22.989,16.833,20.75,19.072,20.75,21.833z M49,24.167h8.5
		v8.5H49V24.167z M49,36.5h8.5V45H49V36.5z M49,49h8.5v8.5H49V49z M38.25,24.167h8.5v8.5h-8.5V24.167z M38.25,36.5h8.5V45h-8.5V36.5
		z M38.25,49h8.5v8.5h-8.5V49z M38.25,60.333h8.5v8.5h-8.5V60.333z M27,24.167h8.5v8.5H27V24.167z M27,36.5h8.5V45H27V36.5z M27,49
		h8.5v8.5H27V49z"/>
	<path d="M74.25,16.833h-8.445v66.333h8.445c2.761,0,5-2.239,5-5V21.833C79.25,19.072,77.011,16.833,74.25,16.833z"/>
</g>
</svg>
