<?xml version="1.0" encoding="utf-8"?>
<!-- Generator: Adobe Illustrator 16.0.4, SVG Export Plug-In . SVG Version: 6.00 Build 0)  -->
<!DOCTYPE svg PUBLIC "-//W3C//DTD SVG 1.1//EN" "http://www.w3.org/Graphics/SVG/1.1/DTD/svg11.dtd">
<svg version="1.1" id="Capa_1" xmlns="http://www.w3.org/2000/svg" xmlns:xlink="http://www.w3.org/1999/xlink" x="0px" y="0px"
	 width="100px" height="100px" viewBox="0 0 100 100" enable-background="new 0 0 100 100" xml:space="preserve">
<path d="M50,9C27.393,9,9,27.393,9,50c0,22.607,18.393,41,41,41c22.607,0,41-18.393,41-41C91,27.393,72.607,9,50,9z M50,86
	c-19.851,0-36-16.148-36-36c0-19.851,16.149-36,36-36c19.852,0,36,16.149,36,36C86,69.852,69.852,86,50,86z M39.524,75.511
	l1.879,0.682l-2.422,6.676l-1.879-0.682L39.524,75.511z M31.359,70.25l1.533,1.284l-4.56,5.444l-1.533-1.283L31.359,70.25z
	 M25.477,62.529l1.001,1.73l-6.147,3.557l-1.001-1.73L25.477,62.529z M22.944,55.227L15.95,56.46l-0.347-1.969l6.994-1.233
	L22.944,55.227z M22.709,45.53l-6.994-1.234l0.347-1.969l6.994,1.234L22.709,45.53z M25.808,36.335l-6.15-3.551l1-1.731l6.15,3.551
	L25.808,36.335z M28.831,22.033l4.565,5.44l-1.531,1.285l-4.565-5.44L28.831,22.033z M39.596,16.348l2.429,6.674l-1.878,0.684
	l-2.429-6.674L39.596,16.348z M51.657,21.793h-1.999V14.69h1.999V21.793z M61.68,16.575l1.879,0.684l-2.428,6.674l-1.879-0.684
	L61.68,16.575z M69.294,29.178l-1.532-1.286l4.566-5.44l1.532,1.286L69.294,29.178z M75.174,36.908l-1-1.732l6.151-3.551l1,1.732
	L75.174,36.908z M77.713,44.211l6.994-1.233l0.348,1.97l-6.994,1.233L77.713,44.211z M77.949,53.904l6.994,1.232l-0.347,1.971
	l-6.994-1.234L77.949,53.904z M74.854,63.102l6.15,3.551l-1,1.732l-6.15-3.552L74.854,63.102z M68.793,70.683l4.566,5.44
	l-1.533,1.285l-4.564-5.44L68.793,70.683z M60.512,75.729l2.43,6.674l-1.879,0.684l-2.43-6.674L60.512,75.729z M49,77.645h2v7.103
	h-2V77.645z M54.523,50.001c0,1.679-0.926,3.126-2.283,3.907v5.912l-2.581,4.94l-2.581-4.94v-6.396
	c-0.971-0.828-1.6-2.047-1.6-3.424c0-1.516,0.752-2.851,1.898-3.671V34.208l2.581-4.941l2.581,4.941v12.05
	C53.734,47.072,54.521,48.443,54.523,50.001z"/>
</svg>
