<?xml version="1.0" encoding="utf-8"?>
<!-- Generator: Adobe Illustrator 16.0.0, SVG Export Plug-In . SVG Version: 6.00 Build 0)  -->
<!DOCTYPE svg PUBLIC "-//W3C//DTD SVG 1.1//EN" "http://www.w3.org/Graphics/SVG/1.1/DTD/svg11.dtd">
<svg version="1.1" id="Layer_9" xmlns="http://www.w3.org/2000/svg" xmlns:xlink="http://www.w3.org/1999/xlink" x="0px" y="0px"
	 width="100px" height="100px" viewBox="0 0 100 100" enable-background="new 0 0 100 100" xml:space="preserve">
<path d="M64.617,75.6c0,4.577-3.725,8.3-8.301,8.3s-8.299-3.723-8.299-8.3s3.723-8.3,8.299-8.3S64.617,71.023,64.617,75.6z
	 M91.672,16.1h-6.033c-0.995,0-1.896,0.59-2.293,1.503L64,62.1H8.328c-1.381,0-2.5,1.119-2.5,2.5s1.119,2.5,2.5,2.5h57.311
	c0.995,0,1.896-0.59,2.293-1.503L87.277,21.1h4.395c1.381,0,2.5-1.119,2.5-2.5S93.053,16.1,91.672,16.1z M26.258,67.3
	c-4.576,0-8.299,3.723-8.299,8.3s3.723,8.3,8.299,8.3s8.301-3.723,8.301-8.3S30.834,67.3,26.258,67.3z M13.37,55.974V29.825
	c0-1.868,1.514-3.382,3.381-3.382h8.83c0.309-1.503,2.61-2.598,5.598-2.598h6.614c2.988,0,5.291,1.095,5.599,2.598h8.976
	c1.868,0,3.381,1.514,3.381,3.382v26.148c0,1.867-1.514,3.381-3.381,3.381H16.75C14.884,59.354,13.37,57.84,13.37,55.974z
	 M27.036,26.443h14.898c-0.449-0.593-1.966-1.246-4.143-1.246h-6.614C29.002,25.198,27.485,25.85,27.036,26.443z"/>
</svg>
