<?xml version="1.0" encoding="utf-8"?>
<!-- Generator: Adobe Illustrator 16.0.4, SVG Export Plug-In . SVG Version: 6.00 Build 0)  -->
<!DOCTYPE svg PUBLIC "-//W3C//DTD SVG 1.1//EN" "http://www.w3.org/Graphics/SVG/1.1/DTD/svg11.dtd">
<svg version="1.1" id="Capa_1" xmlns="http://www.w3.org/2000/svg" xmlns:xlink="http://www.w3.org/1999/xlink" x="0px" y="0px"
	 width="100px" height="100px" viewBox="0 0 100 100" enable-background="new 0 0 100 100" xml:space="preserve">
<g id="Layer_8">
	<path d="M66.193,53.198c0,1.149-0.932,2.083-2.082,2.083s-2.084-0.934-2.084-2.083c0-1.15,0.934-2.083,2.084-2.083
		S66.193,52.048,66.193,53.198z M78.093,27.529c0.829,0,1.5-0.672,1.5-1.5c0-0.828-0.671-1.5-1.5-1.5h-8.038l0.969,3H78.093z
		 M84.831,51.539v3.842c0,1.989-1.308,3.66-3.101,4.251v13.134c0,1.104-0.896,2-2,2H23.667c-1.104,0-2-0.896-2-2V32.884
		c0-0.122,0.015-0.24,0.036-0.356c-0.023-0.214-0.038-0.431-0.038-0.65c0-3.328,2.653-7.348,5.947-7.348h2.448
		c-0.103,0.103-0.205,0.204-0.307,0.307c-0.729,0.729-0.76,1.914-0.109,2.693h-2.032c-1.174,0-2.415,1.737-2.813,3.354H79.73
		c1.104,0,2,0.896,2,2v14.404C83.523,47.879,84.831,49.55,84.831,51.539z M83.831,51.539c0-1.927-1.567-3.494-3.494-3.494H62.756
		c-2.951,0-5.343,2.393-5.343,5.344c0,2.95,2.392,5.344,5.343,5.344h18.518c1.471-0.412,2.558-1.75,2.558-3.352V51.539z
		 M70.75,29.477l-2.705-6.981l-18.017,6.981H70.75z M31.492,29.477h5.116l29.686-11.502l-1.696-4.381
		c-0.313-0.806-1.221-1.206-2.027-0.894L31.357,24.793c-0.807,0.313-1.207,1.22-0.895,2.026L31.492,29.477z"/>
</g>
</svg>
