<?xml version="1.0" encoding="utf-8"?>
<!-- Generator: Adobe Illustrator 16.0.4, SVG Export Plug-In . SVG Version: 6.00 Build 0)  -->
<!DOCTYPE svg PUBLIC "-//W3C//DTD SVG 1.1//EN" "http://www.w3.org/Graphics/SVG/1.1/DTD/svg11.dtd">
<svg version="1.1" id="Capa_1" xmlns="http://www.w3.org/2000/svg" xmlns:xlink="http://www.w3.org/1999/xlink" x="0px" y="0px"
	 width="100px" height="100px" viewBox="0 0 100 100" enable-background="new 0 0 100 100" xml:space="preserve">
<g id="Layer_8">
	<path d="M83.025,66h2.641v23.5H67l-1.4-7.666H34.4L33,89.5H14.334V58.254l4.866,3.741v8.745c0,1.654,1.346,3,3,3h56
		c1.653,0,3-1.346,3-3v-3.627C81.939,66.979,82.581,66.568,83.025,66z M14.334,10.5v21.767l4.866-3.741V19.24c0-1.654,1.346-3,3-3
		h56c1.653,0,3,1.346,3,3v0.26h4.466v-9H14.334z M83.333,50.234c0.342,0,0.838-0.691,1.229-2.001L83.33,44.13l-1.229,4.095
		C82.493,49.54,82.99,50.234,83.333,50.234z M85.166,43.4c0-1.646-0.162-2.999-0.396-4.059l-1.178,3.919l1.209,4.025
		C85.016,46.251,85.166,44.964,85.166,43.4z M81.5,43.4c0,1.559,0.148,2.842,0.363,3.875l1.205-4.015l-1.174-3.909
		C81.662,40.41,81.5,41.759,81.5,43.4z M84.521,38.422c-0.385-1.22-0.858-1.855-1.188-1.855c-0.331,0-0.808,0.639-1.192,1.864
		l1.189,3.962L84.521,38.422z M78.163,20.8c-0.015-1.656-1.361-3-3.019-3H24.37c-1.665,0-3.021,1.357-3.021,3.025v6.048l2-1.538
		v-4.51c0-0.565,0.458-1.025,1.021-1.025h50.774c0.555,0,1.002,0.447,1.017,1h-5.495v2.75h-3.05v40h3.05v1.75h5.5v4.396
		c0,0.565-0.458,1.025-1.021,1.025H24.37c-0.563,0-1.021-0.46-1.021-1.025v-4.51l-2-1.537v6.047c0,1.669,1.355,3.025,3.021,3.025
		h50.774c1.666,0,3.021-1.356,3.021-3.025V65.3h0.166V66l7.334-2.801V47.986c-0.464,1.896-1.245,3.249-2.333,3.249
		c-1.859,0-2.833-3.941-2.833-7.834s0.974-7.834,2.833-7.834c1.088,0,1.869,1.352,2.333,3.248V23.601L78.332,20.8H78.163z
		 M62.333,32.332H30.449l-0.79,2h32.674V32.332z M62.333,46.182h-4.994v2h4.994V46.182z M32.087,62.333h30.246v-2H31.297
		L32.087,62.333z M28.95,65.037c0.358-0.271,0.493-0.748,0.327-1.166l-4.924-12.463H53.21c0.552,0,0.998-0.449,0.998-1V40.42
		c0-0.553-0.446-1-0.998-1H24.354l4.924-12.465c0.166-0.418,0.031-0.895-0.327-1.164c-0.18-0.135-0.39-0.201-0.601-0.201
		c-0.215,0-0.43,0.068-0.609,0.207L3.254,44.621c-0.247,0.189-0.39,0.482-0.39,0.793s0.143,0.604,0.39,0.793L27.74,65.029
		C28.096,65.305,28.592,65.307,28.95,65.037z"/>
</g>
</svg>
