<?xml version="1.0" encoding="utf-8"?>
<!-- Generator: Adobe Illustrator 16.0.0, SVG Export Plug-In . SVG Version: 6.00 Build 0)  -->
<!DOCTYPE svg PUBLIC "-//W3C//DTD SVG 1.1//EN" "http://www.w3.org/Graphics/SVG/1.1/DTD/svg11.dtd">
<svg version="1.1" id="Layer_1" xmlns="http://www.w3.org/2000/svg" xmlns:xlink="http://www.w3.org/1999/xlink" x="0px" y="0px"
	 width="401.856px" height="117.211px" viewBox="0 0 401.856 117.211" enable-background="new 0 0 401.856 117.211"
	 xml:space="preserve">
<g>
	<path fill-rule="evenodd" clip-rule="evenodd" fill="#FFFFFF" d="M0.01,61.973C-0.232,32.859,20.227,6.976,49.396,1.29
		c19.827-3.865,37.745,0.969,53.142,14.331c2.446,2.124,2.428,2.145,0.242,4.378c-2.311,2.36-2.214,2.275,0.027,4.802
		c7.338,8.271,11.993,17.83,13.561,28.831c2.49,17.473-2.36,32.758-14.148,45.725c-8.641,9.505-19.492,15.086-32.258,17.159
		c-12.138,1.974-23.424-0.353-34.244-5.754c-4.57-2.281-8.58-5.399-12.309-8.847c-0.999-0.924-1.462-1.113-2.475-0.083
		c-3.198,3.259-3.349,3.312-6.346-0.153c-7.78-8.994-12.346-19.47-14.083-31.22C0.059,67.444-0.034,64.432,0.01,61.973z
		 M6.423,62.619c0.15,3.915,0.705,8.776,1.977,13.541c2.301,8.614,6.547,16.152,12.457,22.806c0.971,1.093,1.718,1.411,2.556,0.074
		c0.664-1.058-0.514-1.398-0.983-1.932c-7.101-8.067-11.681-17.326-12.991-28.036c-0.561-4.59-0.359-4.583,4.455-4.435
		c1.261,0.039,1.809,0.303,1.966,1.763c1.059,9.876,4.857,18.577,11.441,26.061c1.058,1.201,1.644,1.261,2.817,0.055
		c5.541-5.7,11.198-11.287,16.815-16.912C62.04,60.475,77.131,45.331,92.289,30.251c1.205-1.2,1.145-1.781-0.071-2.833
		c-6.651-5.75-14.23-9.479-22.92-10.986c-4.482-0.778-4.413-0.866-4.294-5.497c0.035-1.39,0.343-1.873,1.837-1.704
		c11.572,1.304,21.661,5.906,30.399,13.536c0.677,0.591,1.091,1.53,2.117,0.475c1.029-1.059,0.129-1.522-0.546-2.11
		C82.912,7.302,64.685,3.015,44.675,9.413C21.37,16.866,6.711,37.503,6.423,62.619z M64.547,111.157
		c-0.85,2.823,0.711,3.183,2.936,2.843c0.404-0.062,0.824-0.026,1.227-0.096c11.67-1.988,21.954-6.711,30.295-15.304
		c8.887-9.156,13.894-20.065,14.891-32.794c0.048-0.613,0.492-1.552-0.144-1.832c-1.616-0.708-3.395-0.341-5.086-0.224
		c-1.271,0.089-0.96,1.431-1.023,2.191c-0.632,7.479-2.915,14.404-7.046,20.651c-7.873,11.902-18.81,19.108-33.062,20.941
		C65.16,107.84,63.775,108.492,64.547,111.157z M58.687,110.757c0.474-1.811-0.195-2.962-2.73-3.207
		c-9.131-0.877-17.122-4.564-24.141-10.388c-3.629-3.01-3.565-3.045-6.739,0.473c-0.642,0.712-0.83,1.085-0.015,1.872
		c8.588,8.294,18.888,12.94,30.652,14.453C58.676,114.342,58.69,114.231,58.687,110.757z M110.258,57.881
		c3.85,0.004,3.728,0.021,3.275-3.467c-1.323-10.189-5.59-19.025-12.056-26.896c-2.867-3.49-2.795-3.438-6.102-0.289
		c-1.236,1.176-1.162,1.831-0.022,3.027c6.618,6.952,10.574,15.288,11.973,24.726C107.681,57.379,108.194,58.438,110.258,57.881z"/>
	<path fill-rule="evenodd" clip-rule="evenodd" fill="#FFFFFF" d="M59.933,12.937c0.496,2.233-0.634,2.715-3.154,3.07
		c-18.015,2.536-30.871,12.092-38.007,28.959c-1.656,3.914-2.649,8.074-2.912,12.333c-0.11,1.787-0.65,2.401-2.492,2.377
		c-4.462-0.056-4.518,0.03-4-4.328c1.739-14.639,8.654-26.373,20.188-35.408c8.197-6.42,17.635-9.782,27.939-10.846
		C60.018,8.833,60.025,8.833,59.933,12.937z"/>
</g>
<g>
	<path fill="#FFFFFF" d="M130.042,50.965v-36.96h-13.92v-2.88h30.96v2.88h-13.92v36.96H130.042z"/>
	<path fill="#FFFFFF" d="M149.961,17.485v-6.36h3v6.36H149.961z M149.961,50.965v-29.28h3v29.28H149.961z"/>
	<path fill="#FFFFFF" d="M193.76,50.965v-17.76c0-3.12-0.68-5.36-2.039-6.72c-1.36-1.359-3.601-2.04-6.721-2.04h-4.92v26.52h-3
		v-26.52h-13.439v26.52h-3v-29.28h24.239c4.16,0,7.18,0.94,9.061,2.82c1.88,1.88,2.819,4.9,2.819,9.06v17.4H193.76z"/>
	<path fill="#FFFFFF" d="M216.38,50.965c-5,0-8.69-1.189-11.069-3.57c-2.381-2.379-3.57-6.069-3.57-11.069s1.189-8.69,3.57-11.07
		c2.379-2.379,6.069-3.57,11.069-3.57h6.12v2.76h-6.24c-3.52,0-6.239,0.78-8.159,2.34s-3,4.121-3.24,7.68h17.28v2.64h-17.28
		c0.079,3.641,0.99,6.4,2.729,8.28c1.74,1.881,4.63,2.82,8.67,2.82h6.48v2.76H216.38z"/>
	<path fill="#FFFFFF" d="M232.94,32.186v18.78h-3.12v-25.44c0-4.88,1.18-8.5,3.54-10.86c2.359-2.36,5.979-3.54,10.86-3.54h9v2.94
		h-8.7c-4.08,0-7.03,0.91-8.851,2.73c-1.82,1.82-2.729,4.77-2.729,8.85v3.6h19.439v2.94H232.94z"/>
	<path fill="#FFFFFF" d="M257.9,50.965v-29.28h8.159c5.92,0,8.881,2.96,8.881,8.88v2.4h-3v-2.52c0-4-2.001-6-6-6h-5.04v26.52H257.9z
		"/>
	<path fill="#FFFFFF" d="M292.159,50.965c-5,0-8.69-1.189-11.069-3.57c-2.381-2.379-3.57-6.069-3.57-11.069s1.189-8.69,3.57-11.07
		c2.379-2.379,6.069-3.57,11.069-3.57h6.12v2.76h-6.24c-3.52,0-6.239,0.78-8.159,2.34s-3,4.121-3.24,7.68h17.28v2.64h-17.28
		c0.079,3.641,0.99,6.4,2.729,8.28c1.74,1.881,4.63,2.82,8.67,2.82h6.48v2.76H292.159z"/>
	<path fill="#FFFFFF" d="M317.238,50.965c-5,0-8.69-1.189-11.069-3.57c-2.381-2.379-3.57-6.069-3.57-11.069s1.189-8.69,3.57-11.07
		c2.379-2.379,6.069-3.57,11.069-3.57h6.12v2.76h-6.24c-3.52,0-6.239,0.78-8.159,2.34s-3,4.121-3.24,7.68h17.28v2.64h-17.28
		c0.079,3.641,0.99,6.4,2.729,8.28c1.74,1.881,4.63,2.82,8.67,2.82h6.48v2.76H317.238z"/>
</g>
<line fill="none" stroke="#FFFFFF" stroke-width="2.5" stroke-miterlimit="10" x1="121.522" y1="58.966" x2="401.856" y2="58.966"/>
<g>
	<path fill="#FFFFFF" d="M127.882,105.965V66.125h3.12v39.839H127.882z"/>
	<path fill="#FFFFFF" d="M159.203,105.965v-17.76c0-3.119-0.681-5.359-2.04-6.72c-1.36-1.359-3.601-2.04-6.721-2.04h-8.28v26.52h-3
		V76.686h11.16c4.16,0,7.18,0.939,9.061,2.82c1.88,1.88,2.82,4.9,2.82,9.06v17.399H159.203z"/>
	<path fill="#FFFFFF" d="M189.142,105.965v-17.76c0-3.119-0.681-5.359-2.04-6.72c-1.36-1.359-3.601-2.04-6.721-2.04h-8.279v26.52h-3
		V76.686h11.159c4.16,0,7.18,0.939,9.061,2.82c1.88,1.88,2.82,4.9,2.82,9.06v17.399H189.142z"/>
	<path fill="#FFFFFF" d="M210.201,106.326c-4.4,0-7.76-1.281-10.079-3.842c-2.32-2.559-3.48-6.279-3.48-11.158
		c0-4.881,1.16-8.601,3.48-11.16c2.319-2.561,5.679-3.841,10.079-3.841s7.76,1.28,10.08,3.841c2.319,2.56,3.48,6.279,3.48,11.16
		c0,4.879-1.161,8.6-3.48,11.158C217.96,105.045,214.601,106.326,210.201,106.326z M210.201,103.564c6.96,0,10.44-4.08,10.44-12.238
		c0-8.16-3.48-12.24-10.44-12.24s-10.439,4.08-10.439,12.24C199.761,99.484,203.241,103.564,210.201,103.564z"/>
	<path fill="#FFFFFF" d="M236.36,105.965l-12-29.279h3.42l10.439,26.16l10.44-26.16h3.3l-12,29.279H236.36z"/>
	<path fill="#FFFFFF" d="M261.92,105.965c-2.761,0-4.931-0.789-6.511-2.369s-2.369-3.75-2.369-6.51s0.789-4.93,2.369-6.51
		s3.75-2.371,6.511-2.371h11.52v-1.619c0-2.641-0.53-4.49-1.59-5.551c-1.061-1.059-2.91-1.59-5.55-1.59h-11.7v-2.76h11.52
		c3.76,0,6.421,0.779,7.98,2.34s2.34,4.221,2.34,7.98v18.959H261.92z M273.44,90.965h-11.16c-4.08,0-6.12,2.041-6.12,6.121
		s2.04,6.119,6.12,6.119h11.16V90.965z"/>
	<path fill="#FFFFFF" d="M292.819,105.965c-2.64,0-4.58-0.619-5.82-1.859s-1.859-3.18-1.859-5.82v-18.84h-5.28v-2.76h5.28v-7.44h3
		v7.44h11.28v2.76h-11.28v18.84c0,1.801,0.369,3.07,1.109,3.811s2.011,1.109,3.811,1.109h6.12v2.76H292.819z"/>
	<path fill="#FFFFFF" d="M303.379,72.485v-6.36h3v6.36H303.379z M303.379,105.965V76.686h3v29.279H303.379z"/>
	<path fill="#FFFFFF" d="M324.739,106.326c-4.4,0-7.76-1.281-10.079-3.842c-2.32-2.559-3.48-6.279-3.48-11.158
		c0-4.881,1.16-8.601,3.48-11.16c2.319-2.561,5.679-3.841,10.079-3.841s7.76,1.28,10.08,3.841c2.319,2.56,3.48,6.279,3.48,11.16
		c0,4.879-1.161,8.6-3.48,11.158C332.499,105.045,329.139,106.326,324.739,106.326z M324.739,103.564
		c6.96,0,10.44-4.08,10.44-12.238c0-8.16-3.48-12.24-10.44-12.24s-10.439,4.08-10.439,12.24
		C314.299,99.484,317.779,103.564,324.739,103.564z"/>
	<path fill="#FFFFFF" d="M363.138,105.965v-17.76c0-3.119-0.681-5.359-2.04-6.72c-1.36-1.359-3.601-2.04-6.721-2.04h-8.279v26.52h-3
		V76.686h11.159c4.16,0,7.18,0.939,9.061,2.82c1.88,1.88,2.82,4.9,2.82,9.06v17.399H363.138z"/>
	<path fill="#FFFFFF" d="M371.118,105.965v-2.76h12.84c1.92,0,3.319-0.41,4.199-1.23c0.88-0.818,1.32-2.189,1.32-4.109
		s-0.44-3.279-1.32-4.08c-0.88-0.799-2.279-1.199-4.199-1.199h-4.561c-2.64,0-4.66-0.67-6.06-2.01
		c-1.4-1.34-2.101-3.331-2.101-5.971c0-2.641,0.7-4.62,2.101-5.939c1.399-1.32,3.42-1.98,6.06-1.98h12.24v2.76h-11.64
		c-1.92,0-3.341,0.381-4.261,1.141s-1.38,2.1-1.38,4.02s0.46,3.27,1.38,4.051c0.92,0.779,2.341,1.17,4.261,1.17h4.439
		c5.439,0,8.16,2.68,8.16,8.039c0,5.4-2.721,8.1-8.16,8.1H371.118z"/>
</g>
<g display="none">
	<path display="inline" fill="#FFFFFF" d="M130.042,50.965v-36.96h-13.92v-2.88h30.96v2.88h-13.92v36.96H130.042z"/>
	<path display="inline" fill="#FFFFFF" d="M149.961,17.485v-6.36h3v6.36H149.961z M149.961,50.965v-29.28h3v29.28H149.961z"/>
	<path display="inline" fill="#FFFFFF" d="M193.76,50.965v-17.76c0-3.12-0.68-5.36-2.039-6.72c-1.36-1.359-3.601-2.04-6.721-2.04
		h-4.92v26.52h-3v-26.52h-13.439v26.52h-3v-29.28h24.239c4.16,0,7.18,0.94,9.061,2.82c1.88,1.88,2.819,4.9,2.819,9.06v17.4H193.76z"
		/>
	<path display="inline" fill="#FFFFFF" d="M216.38,50.965c-5,0-8.69-1.189-11.069-3.57c-2.381-2.379-3.57-6.069-3.57-11.069
		s1.189-8.69,3.57-11.07c2.379-2.379,6.069-3.57,11.069-3.57h6.12v2.76h-6.24c-3.52,0-6.239,0.78-8.159,2.34s-3,4.121-3.24,7.68
		h17.28v2.64h-17.28c0.079,3.641,0.99,6.4,2.729,8.28c1.74,1.881,4.63,2.82,8.67,2.82h6.48v2.76H216.38z"/>
	<path display="inline" fill="#FFFFFF" d="M232.94,32.186v18.78h-3.12v-25.44c0-4.88,1.18-8.5,3.54-10.86
		c2.359-2.36,5.979-3.54,10.86-3.54h9v2.94h-8.7c-4.08,0-7.03,0.91-8.851,2.73c-1.82,1.82-2.729,4.77-2.729,8.85v3.6h19.439v2.94
		H232.94z"/>
	<path display="inline" fill="#FFFFFF" d="M257.9,50.965v-29.28h8.159c5.92,0,8.881,2.96,8.881,8.88v2.4h-3v-2.52c0-4-2.001-6-6-6
		h-5.04v26.52H257.9z"/>
	<path display="inline" fill="#FFFFFF" d="M292.159,50.965c-5,0-8.69-1.189-11.069-3.57c-2.381-2.379-3.57-6.069-3.57-11.069
		s1.189-8.69,3.57-11.07c2.379-2.379,6.069-3.57,11.069-3.57h6.12v2.76h-6.24c-3.52,0-6.239,0.78-8.159,2.34s-3,4.121-3.24,7.68
		h17.28v2.64h-17.28c0.079,3.641,0.99,6.4,2.729,8.28c1.74,1.881,4.63,2.82,8.67,2.82h6.48v2.76H292.159z"/>
	<path display="inline" fill="#FFFFFF" d="M317.238,50.965c-5,0-8.69-1.189-11.069-3.57c-2.381-2.379-3.57-6.069-3.57-11.069
		s1.189-8.69,3.57-11.07c2.379-2.379,6.069-3.57,11.069-3.57h6.12v2.76h-6.24c-3.52,0-6.239,0.78-8.159,2.34s-3,4.121-3.24,7.68
		h17.28v2.64h-17.28c0.079,3.641,0.99,6.4,2.729,8.28c1.74,1.881,4.63,2.82,8.67,2.82h6.48v2.76H317.238z"/>
</g>
<g display="none">
	<path display="inline" fill="#FFFFFF" d="M127.882,105.965V66.125h3.12v39.839H127.882z"/>
	<path display="inline" fill="#FFFFFF" d="M159.203,105.965v-17.76c0-3.119-0.681-5.359-2.04-6.72
		c-1.36-1.359-3.601-2.04-6.721-2.04h-8.28v26.52h-3V76.686h11.16c4.16,0,7.18,0.939,9.061,2.82c1.88,1.88,2.82,4.9,2.82,9.06
		v17.399H159.203z"/>
	<path display="inline" fill="#FFFFFF" d="M189.142,105.965v-17.76c0-3.119-0.681-5.359-2.04-6.72
		c-1.36-1.359-3.601-2.04-6.721-2.04h-8.279v26.52h-3V76.686h11.159c4.16,0,7.18,0.939,9.061,2.82c1.88,1.88,2.82,4.9,2.82,9.06
		v17.399H189.142z"/>
	<path display="inline" fill="#FFFFFF" d="M210.201,106.326c-4.4,0-7.76-1.281-10.079-3.842c-2.32-2.559-3.48-6.279-3.48-11.158
		c0-4.881,1.16-8.601,3.48-11.16c2.319-2.561,5.679-3.841,10.079-3.841s7.76,1.28,10.08,3.841c2.319,2.56,3.48,6.279,3.48,11.16
		c0,4.879-1.161,8.6-3.48,11.158C217.96,105.045,214.601,106.326,210.201,106.326z M210.201,103.564c6.96,0,10.44-4.08,10.44-12.238
		c0-8.16-3.48-12.24-10.44-12.24s-10.439,4.08-10.439,12.24C199.761,99.484,203.241,103.564,210.201,103.564z"/>
	<path display="inline" fill="#FFFFFF" d="M236.36,105.965l-12-29.279h3.42l10.439,26.16l10.44-26.16h3.3l-12,29.279H236.36z"/>
	<path display="inline" fill="#FFFFFF" d="M261.92,105.965c-2.761,0-4.931-0.789-6.511-2.369s-2.369-3.75-2.369-6.51
		s0.789-4.93,2.369-6.51s3.75-2.371,6.511-2.371h11.52v-1.619c0-2.641-0.53-4.49-1.59-5.551c-1.061-1.059-2.91-1.59-5.55-1.59h-11.7
		v-2.76h11.52c3.76,0,6.421,0.779,7.98,2.34s2.34,4.221,2.34,7.98v18.959H261.92z M273.44,90.965h-11.16
		c-4.08,0-6.12,2.041-6.12,6.121s2.04,6.119,6.12,6.119h11.16V90.965z"/>
	<path display="inline" fill="#FFFFFF" d="M292.819,105.965c-2.64,0-4.58-0.619-5.82-1.859s-1.859-3.18-1.859-5.82v-18.84h-5.28
		v-2.76h5.28v-7.44h3v7.44h11.28v2.76h-11.28v18.84c0,1.801,0.369,3.07,1.109,3.811s2.011,1.109,3.811,1.109h6.12v2.76H292.819z"/>
	<path display="inline" fill="#FFFFFF" d="M303.379,72.485v-6.36h3v6.36H303.379z M303.379,105.965V76.686h3v29.279H303.379z"/>
	<path display="inline" fill="#FFFFFF" d="M324.739,106.326c-4.4,0-7.76-1.281-10.079-3.842c-2.32-2.559-3.48-6.279-3.48-11.158
		c0-4.881,1.16-8.601,3.48-11.16c2.319-2.561,5.679-3.841,10.079-3.841s7.76,1.28,10.08,3.841c2.319,2.56,3.48,6.279,3.48,11.16
		c0,4.879-1.161,8.6-3.48,11.158C332.499,105.045,329.139,106.326,324.739,106.326z M324.739,103.564
		c6.96,0,10.44-4.08,10.44-12.238c0-8.16-3.48-12.24-10.44-12.24s-10.439,4.08-10.439,12.24
		C314.299,99.484,317.779,103.564,324.739,103.564z"/>
	<path display="inline" fill="#FFFFFF" d="M363.138,105.965v-17.76c0-3.119-0.681-5.359-2.04-6.72
		c-1.36-1.359-3.601-2.04-6.721-2.04h-8.279v26.52h-3V76.686h11.159c4.16,0,7.18,0.939,9.061,2.82c1.88,1.88,2.82,4.9,2.82,9.06
		v17.399H363.138z"/>
	<path display="inline" fill="#FFFFFF" d="M371.118,105.965v-2.76h12.84c1.92,0,3.319-0.41,4.199-1.23
		c0.88-0.818,1.32-2.189,1.32-4.109s-0.44-3.279-1.32-4.08c-0.88-0.799-2.279-1.199-4.199-1.199h-4.561c-2.64,0-4.66-0.67-6.06-2.01
		c-1.4-1.34-2.101-3.331-2.101-5.971c0-2.641,0.7-4.62,2.101-5.939c1.399-1.32,3.42-1.98,6.06-1.98h12.24v2.76h-11.64
		c-1.92,0-3.341,0.381-4.261,1.141s-1.38,2.1-1.38,4.02s0.46,3.27,1.38,4.051c0.92,0.779,2.341,1.17,4.261,1.17h4.439
		c5.439,0,8.16,2.68,8.16,8.039c0,5.4-2.721,8.1-8.16,8.1H371.118z"/>
</g>
</svg>
